<?xml version="1.0" encoding="UTF-8" standalone="no"?>
<!DOCTYPE svg PUBLIC "-//W3C//DTD SVG 1.1//EN" "http://www.w3.org/Graphics/SVG/1.1/DTD/svg11.dtd">
    <svg width="100%" height="100%" viewBox="0 0 3045 2364" version="1.1" xmlns="http://www.w3.org/2000/svg" xmlns:xlink="http://www.w3.org/1999/xlink" xml:space="preserve" xmlns:serif="http://www.serif.com/" style="fill-rule:evenodd;clip-rule:evenodd;stroke-linecap:round;stroke-linejoin:round;stroke-miterlimit:1.5;">
    <g>
        <circle cx="1886.65" cy="1158.17" r="1151.5" style="fill:#d5d5d5;stroke:#3e3e3e;stroke-width:13.33px;"/>
        <g>
            <path d="M2307.84,1504.33l199.185,0c113.936,0 170.905,38.935 170.905,116.806c-0,55.739 -19.878,99.182 -59.633,130.33c-39.754,31.149 -95.698,46.723 -167.831,46.723l-233.611,-0c-85.248,-0 -151.028,-17.829 -197.341,-53.485c-46.312,-35.657 -69.468,-86.682 -69.468,-153.077c-0,-42.624 17.213,-104.92 51.64,-186.889l315.99,-740.18l-237.3,254.514c-56.558,61.477 -110.248,92.215 -161.069,92.215c-66.394,0 -109.428,-45.493 -129.101,-136.478l-34.427,-152.462l-300.006,740.179c-103.281,254.104 -181.971,426.853 -236.07,518.248c-54.1,91.396 -124.183,170.701 -210.251,237.915c-124.592,96.724 -267.628,145.085 -429.107,145.085c-172.135,0 -311.892,-54.304 -419.271,-162.913c-107.379,-108.609 -161.069,-250.21 -161.069,-424.804c0,-228.693 84.428,-429.927 253.284,-603.701c90.985,-92.625 204.512,-167.422 340.581,-224.39c136.068,-56.968 270.088,-85.453 402.057,-85.453c67.215,0 120.905,14.345 161.069,43.034c40.165,28.689 60.248,66.805 60.248,114.347c-0,50.001 -21.312,90.575 -63.936,121.724c-24.591,18.033 -72.133,30.328 -142.626,36.886c-163.118,14.754 -294.678,52.05 -394.681,111.887c-82.788,50.001 -148.568,115.167 -197.34,195.496c-48.771,80.33 -73.157,164.348 -73.157,252.055c0,93.444 23.771,167.011 71.313,220.701c47.542,53.69 112.707,80.534 195.496,80.534c99.182,0 185.455,-42.419 258.817,-127.256c73.362,-84.838 153.896,-234.636 241.603,-449.395l488.125,-1201.26c42.624,-105.74 100.002,-158.61 172.135,-158.61c45.903,0 82.174,14.755 108.814,44.264c26.64,29.508 49.796,81.149 69.468,154.921l75.002,282.793l368.86,-362.713c81.149,-79.51 156.971,-119.265 227.464,-119.265c49.181,0 90.78,14.96 124.798,44.878c34.017,29.919 51.025,66.19 51.025,108.814c0,27.05 -6.557,56.559 -19.672,88.527l-28.28,68.854l-442.632,1090.6Z" style="fill:#787878;fill-rule:nonzero;"/>
            <path d="M1335.2,1325.35l127.183,-307.882c13.851,-34 27.703,-55.616 41.554,-64.851c13.852,-9.234 39.666,-13.851 77.443,-13.851l324.882,-0c57.925,-0 86.887,19.728 86.887,59.184c0,26.024 -9.549,47.746 -28.647,65.165c-19.099,17.419 -42.709,26.129 -70.832,26.129l-285.216,-0l-95.702,236.106l95.072,0c47.011,0 70.517,20.358 70.517,61.073c0,24.765 -9.654,45.857 -28.962,63.276c-19.308,17.42 -42.814,26.129 -70.517,26.129l-127.183,0l-139.774,343.771l451.434,-0c47.012,-0 70.517,19.728 70.517,59.184c0,26.024 -9.549,47.745 -28.647,65.165c-19.099,17.419 -42.709,26.129 -70.832,26.129l-483.545,-0l-8.185,17.629c-29.382,65.48 -52.363,111.442 -68.943,137.886c-16.58,26.444 -38.302,52.048 -65.165,76.813c-70.098,64.221 -150.689,96.331 -241.773,96.332c-74.295,-0.001 -135.472,-22.037 -183.533,-66.11c-48.061,-44.073 -72.091,-100.109 -72.091,-168.108c-0,-42.394 10.284,-82.06 30.851,-118.997c20.568,-36.938 48.481,-65.69 83.739,-86.258c45.752,-26.443 107.664,-39.665 185.737,-39.665l222.884,-0l139.775,-343.771l-20.778,0c-47.011,0 -70.517,-20.567 -70.517,-61.702c0,-24.765 9.654,-45.752 28.963,-62.962c19.308,-17.209 42.814,-25.814 70.517,-25.814l52.887,0Zm-261.92,644.727l-166.219,-0c-82.269,-0 -123.404,29.172 -123.404,87.517c-0,23.925 9.129,43.968 27.388,60.128c18.259,16.16 40.82,24.24 67.684,24.24c37.777,0 73.98,-15.321 108.608,-45.962c34.629,-30.641 63.277,-72.616 85.943,-125.923Z" style="fill:#860303;fill-rule:nonzero;"/>
            <path d="M2242.47,1660.94l71.776,0c53.308,0 79.962,18.679 79.962,56.036c-0,25.605 -9.445,45.542 -28.333,59.814c-18.889,14.271 -44.913,21.407 -78.072,21.407l-84.999,-0c-32.74,-0 -56.665,-13.432 -71.776,-40.296c-26.863,26.864 -55.616,40.296 -86.257,40.296l-79.962,-0c-46.591,-0 -83.843,-15.951 -111.756,-47.851c-27.913,-31.901 -41.87,-74.295 -41.87,-127.183c0,-81.01 27.598,-153.836 82.795,-218.476c55.196,-64.641 117.213,-96.961 186.051,-96.961c50.789,-0 91.295,18.259 121.516,54.776l140.405,-344.4c23.925,-58.764 57.295,-88.146 100.108,-88.146c18.049,0 33.37,5.772 45.962,17.315c12.593,11.543 18.889,25.709 18.889,42.499c-0,13.012 -3.148,27.703 -9.444,44.073l-7.556,16.999l-247.439,610.098Zm-230.439,3.148l23.925,0c28.962,0 48.061,-11.542 57.295,-34.628l47.221,-116.479c5.877,-14.272 8.815,-25.185 8.815,-32.74c-0,-12.593 -5.352,-23.296 -16.055,-32.111c-10.704,-8.814 -24.031,-13.222 -39.981,-13.222c-32.74,0 -63.276,18.259 -91.609,54.777c-28.333,36.518 -42.499,75.973 -42.499,118.368c-0,37.357 17.629,56.035 52.888,56.035Z" style="fill:#860303;fill-rule:nonzero;"/>
        </g>
    </g>
    </svg>