<?xml version="1.0" encoding="UTF-8" standalone="no"?><!DOCTYPE svg PUBLIC "-//W3C//DTD SVG 1.1//EN" "http://www.w3.org/Graphics/SVG/1.1/DTD/svg11.dtd"><svg width="100%" height="100%" viewBox="0 0 6000 3750" version="1.1" xmlns="http://www.w3.org/2000/svg" xmlns:xlink="http://www.w3.org/1999/xlink" xml:space="preserve" xmlns:serif="http://www.serif.com/" style="fill-rule:evenodd;clip-rule:evenodd;stroke-linecap:round;stroke-linejoin:round;stroke-miterlimit:1.5;"><g transform="matrix(4.16667,0,0,4.16667,-395.289,58.6147)"><g transform="matrix(0.955802,0.294012,-0.294012,0.955802,208.802,-63.0033)"><g transform="matrix(91,0,0,91,313.954,662.987)"><path d="M0.65,-0.333l-0.081,0.2c-0.041,0.099 -0.072,0.167 -0.094,0.204c-0.022,0.038 -0.049,0.07 -0.083,0.096c-0.049,0.038 -0.105,0.058 -0.17,0.058c-0.068,-0 -0.123,-0.022 -0.165,-0.065c-0.043,-0.043 -0.064,-0.099 -0.064,-0.167c0,-0.092 0.034,-0.172 0.101,-0.241c0.036,-0.037 0.081,-0.067 0.135,-0.09c0.055,-0.022 0.109,-0.034 0.162,-0.034c0.026,0 0.046,0.006 0.062,0.018c0.016,0.011 0.024,0.027 0.024,0.045c-0,0.02 -0.009,0.036 -0.026,0.048c-0.01,0.007 -0.028,0.012 -0.056,0.015c-0.064,0.006 -0.117,0.021 -0.157,0.044c-0.033,0.02 -0.059,0.046 -0.078,0.078c-0.02,0.032 -0.029,0.066 -0.029,0.102c-0,0.036 0.009,0.064 0.028,0.086c0.019,0.021 0.044,0.032 0.075,0.032c0.04,-0 0.074,-0.017 0.103,-0.051c0.029,-0.033 0.061,-0.093 0.096,-0.178l0.17,-0.417l-0.054,0c-0.045,0 -0.067,-0.015 -0.067,-0.047c-0,-0.022 0.008,-0.039 0.024,-0.051c0.015,-0.012 0.038,-0.019 0.066,-0.019l0.186,0c0.063,0 0.109,0.012 0.139,0.036c0.03,0.023 0.044,0.06 0.044,0.109c0,0.06 -0.023,0.109 -0.069,0.147c-0.033,0.028 -0.085,0.042 -0.155,0.042l-0.067,-0Zm0.047,-0.117l0.04,-0c0.052,-0 0.078,-0.021 0.078,-0.064c-0,-0.024 -0.015,-0.036 -0.044,-0.036l-0.033,0l-0.041,0.1Z" style="fill:#787878;fill-rule:nonzero;"/></g></g><g transform="matrix(0.972433,0.233184,-0.233184,0.972433,170.236,-70.8678)"><g transform="matrix(91,0,0,91,384.842,684.551)"><path d="M0.379,-0.106l0.054,-0c0.041,-0 0.062,0.014 0.062,0.043c-0,0.019 -0.008,0.035 -0.022,0.046c-0.015,0.011 -0.035,0.017 -0.061,0.017l-0.062,-0c-0.028,-0 -0.047,-0.011 -0.058,-0.033c-0.024,0.022 -0.048,0.033 -0.07,0.033l-0.056,-0c-0.036,-0 -0.065,-0.013 -0.087,-0.038c-0.022,-0.026 -0.033,-0.059 -0.033,-0.101c0,-0.062 0.022,-0.118 0.065,-0.167c0.043,-0.05 0.092,-0.074 0.146,-0.074c0.042,-0 0.072,0.014 0.092,0.043c0.016,-0.024 0.037,-0.037 0.064,-0.037c0.014,0 0.026,0.005 0.035,0.014c0.01,0.009 0.015,0.02 0.015,0.034c-0,0.009 -0.003,0.02 -0.008,0.033l-0.005,0.013l-0.071,0.174Zm-0.177,0.002l0.012,-0c0.027,-0 0.045,-0.011 0.054,-0.033l0.034,-0.084c0.004,-0.011 0.007,-0.021 0.007,-0.028c-0,-0.009 -0.005,-0.016 -0.013,-0.023c-0.009,-0.006 -0.019,-0.01 -0.031,-0.01c-0.024,0 -0.047,0.014 -0.07,0.042c-0.022,0.027 -0.033,0.056 -0.033,0.086c-0,0.033 0.013,0.05 0.04,0.05Z" style="fill:#787878;fill-rule:nonzero;"/></g></g><g transform="matrix(0.980799,0.195019,-0.195019,0.980799,143.618,-69.7826)"><g transform="matrix(91,0,0,91,426.198,694.467)"><path d="M0.208,-0.24l-0.009,0.022c-0.014,0.032 -0.034,0.049 -0.061,0.049c-0.013,-0 -0.025,-0.005 -0.036,-0.014c-0.01,-0.01 -0.016,-0.02 -0.016,-0.032c0,-0.012 0.005,-0.027 0.015,-0.046l0.065,-0.132c0.015,-0.031 0.035,-0.047 0.059,-0.047c0.013,0 0.024,0.004 0.033,0.013c0.009,0.008 0.013,0.018 0.013,0.029c0,0.003 -0,0.009 -0.002,0.019c-0.002,0.007 -0.002,0.014 -0.002,0.019c-0,0.021 0.007,0.042 0.023,0.063l0.027,0.039c0.029,0.039 0.043,0.077 0.043,0.114c-0,0.041 -0.015,0.075 -0.046,0.103c-0.031,0.027 -0.069,0.041 -0.114,0.041l-0.102,-0c-0.042,-0 -0.062,-0.014 -0.062,-0.043c-0,-0.02 0.007,-0.035 0.022,-0.047c0.014,-0.011 0.034,-0.016 0.06,-0.016l0.057,-0c0.045,-0 0.068,-0.017 0.068,-0.05c-0,-0.012 -0.005,-0.026 -0.013,-0.042l-0.022,-0.042Z" style="fill:#787878;fill-rule:nonzero;"/></g></g><g transform="matrix(0.986846,0.161661,-0.161661,0.986846,119.297,-64.7191)"><g transform="matrix(91,0,0,91,457.353,700.733)"><path d="M0.208,-0.24l-0.009,0.022c-0.014,0.032 -0.034,0.049 -0.061,0.049c-0.013,-0 -0.025,-0.005 -0.036,-0.014c-0.01,-0.01 -0.016,-0.02 -0.016,-0.032c0,-0.012 0.005,-0.027 0.015,-0.046l0.065,-0.132c0.015,-0.031 0.035,-0.047 0.059,-0.047c0.013,0 0.024,0.004 0.033,0.013c0.009,0.008 0.013,0.018 0.013,0.029c0,0.003 -0,0.009 -0.002,0.019c-0.002,0.007 -0.002,0.014 -0.002,0.019c-0,0.021 0.007,0.042 0.023,0.063l0.027,0.039c0.029,0.039 0.043,0.077 0.043,0.114c-0,0.041 -0.015,0.075 -0.046,0.103c-0.031,0.027 -0.069,0.041 -0.114,0.041l-0.102,-0c-0.042,-0 -0.062,-0.014 -0.062,-0.043c-0,-0.02 0.007,-0.035 0.022,-0.047c0.014,-0.011 0.034,-0.016 0.06,-0.016l0.057,-0c0.045,-0 0.068,-0.017 0.068,-0.05c-0,-0.012 -0.005,-0.026 -0.013,-0.042l-0.022,-0.042Z" style="fill:#787878;fill-rule:nonzero;"/></g></g><g transform="matrix(0.99146,0.130414,-0.130414,0.99146,96.2326,-57.6971)"><g transform="matrix(91,0,0,91,488.641,705.9)"><path d="M0.182,-0.106l0.055,-0c0.041,-0 0.061,0.014 0.061,0.043c0,0.02 -0.007,0.035 -0.021,0.046c-0.015,0.011 -0.035,0.017 -0.061,0.017l-0.078,-0c-0.028,-0 -0.051,-0.006 -0.067,-0.018c-0.017,-0.011 -0.025,-0.027 -0.025,-0.047c-0,-0.011 0.003,-0.025 0.01,-0.041l0.081,-0.199l0.005,-0.013c0.015,-0.037 0.039,-0.056 0.072,-0.056c0.014,0 0.026,0.005 0.036,0.014c0.01,0.009 0.015,0.02 0.015,0.033c-0,0.01 -0.005,0.026 -0.014,0.048l-0.069,0.173Zm0.064,-0.423c0.019,-0 0.035,0.006 0.048,0.019c0.013,0.014 0.02,0.03 0.02,0.049c-0,0.018 -0.007,0.034 -0.02,0.048c-0.013,0.013 -0.029,0.019 -0.048,0.019c-0.019,0 -0.035,-0.006 -0.048,-0.019c-0.013,-0.014 -0.02,-0.03 -0.02,-0.048c0,-0.019 0.007,-0.035 0.02,-0.049c0.013,-0.013 0.029,-0.019 0.048,-0.019Z" style="fill:#787878;fill-rule:nonzero;"/></g></g><g transform="matrix(0.995044,0.099435,-0.099435,0.995044,73.0738,-47.4975)"><g transform="matrix(91,0,0,91,513.027,709.321)"><path d="M0.272,-0.38c0.047,-0 0.086,0.015 0.116,0.045c0.031,0.029 0.046,0.068 0.046,0.114c0,0.035 -0.008,0.069 -0.024,0.104c-0.016,0.034 -0.036,0.061 -0.062,0.082c-0.017,0.013 -0.034,0.022 -0.052,0.027c-0.018,0.005 -0.044,0.008 -0.076,0.008c-0.053,0 -0.089,-0.006 -0.108,-0.019c-0.043,-0.03 -0.065,-0.074 -0.065,-0.133c-0,-0.062 0.022,-0.115 0.067,-0.16c0.044,-0.046 0.097,-0.068 0.158,-0.068Zm-0.012,0.104c-0.024,-0 -0.046,0.012 -0.066,0.035c-0.02,0.024 -0.029,0.05 -0.029,0.079c-0,0.038 0.021,0.057 0.063,0.057c0.025,-0 0.044,-0.008 0.057,-0.023c0.022,-0.025 0.033,-0.054 0.033,-0.086c0,-0.019 -0.005,-0.034 -0.016,-0.045c-0.01,-0.012 -0.024,-0.017 -0.042,-0.017Z" style="fill:#787878;fill-rule:nonzero;"/></g></g><g transform="matrix(0.99836,0.0572494,-0.0572494,0.99836,41.7375,-30.3476)"><g transform="matrix(91,0,0,91,550.528,713.275)"><path d="M0.408,-0.106l0.058,-0c0.042,-0 0.062,0.014 0.062,0.043c0,0.02 -0.007,0.035 -0.022,0.046c-0.014,0.011 -0.034,0.017 -0.06,0.017l-0.102,-0c-0.02,-0 -0.037,-0.006 -0.05,-0.018c-0.014,-0.012 -0.021,-0.027 -0.021,-0.045c0,-0.012 0.005,-0.028 0.014,-0.05l0.043,-0.107c0.005,-0.011 0.007,-0.02 0.007,-0.027c0.001,-0.007 -0.002,-0.014 -0.009,-0.02c-0.007,-0.005 -0.015,-0.008 -0.026,-0.008c-0.033,0 -0.06,0.025 -0.081,0.076l-0.057,0.141c-0.018,0.043 -0.043,0.065 -0.078,0.065c-0.014,-0 -0.025,-0.004 -0.035,-0.013c-0.01,-0.008 -0.015,-0.019 -0.015,-0.031c0,-0.009 0.003,-0.02 0.008,-0.033l0.005,-0.013l0.099,-0.243c0.013,-0.032 0.034,-0.048 0.065,-0.048c0.025,0 0.043,0.012 0.054,0.034c0.034,-0.027 0.068,-0.04 0.099,-0.04c0.031,-0 0.056,0.008 0.076,0.026c0.02,0.018 0.03,0.04 0.03,0.067c-0,0.015 -0.004,0.031 -0.011,0.049l-0.053,0.132Z" style="fill:#787878;fill-rule:nonzero;"/></g></g><g transform="matrix(0.99992,0.0126169,-0.0126169,0.99992,9.08099,-7.46289)"><g transform="matrix(91,0,0,91,596.016,715.987)"><path d="M0.379,-0.106l0.054,-0c0.041,-0 0.062,0.014 0.062,0.043c-0,0.019 -0.008,0.035 -0.022,0.046c-0.015,0.011 -0.035,0.017 -0.061,0.017l-0.062,-0c-0.028,-0 -0.047,-0.011 -0.058,-0.033c-0.024,0.022 -0.048,0.033 -0.07,0.033l-0.056,-0c-0.036,-0 -0.065,-0.013 -0.087,-0.038c-0.022,-0.026 -0.033,-0.059 -0.033,-0.101c0,-0.062 0.022,-0.118 0.065,-0.167c0.043,-0.05 0.092,-0.074 0.146,-0.074c0.042,-0 0.072,0.014 0.092,0.043c0.016,-0.024 0.037,-0.037 0.064,-0.037c0.014,0 0.026,0.005 0.035,0.014c0.01,0.009 0.015,0.02 0.015,0.034c-0,0.009 -0.003,0.02 -0.008,0.033l-0.005,0.013l-0.071,0.174Zm-0.177,0.002l0.012,-0c0.027,-0 0.045,-0.011 0.054,-0.033l0.034,-0.084c0.004,-0.011 0.007,-0.021 0.007,-0.028c-0,-0.009 -0.005,-0.016 -0.013,-0.023c-0.009,-0.006 -0.019,-0.01 -0.031,-0.01c-0.024,0 -0.047,0.014 -0.07,0.042c-0.022,0.027 -0.033,0.056 -0.033,0.086c-0,0.033 0.013,0.05 0.04,0.05Z" style="fill:#787878;fill-rule:nonzero;"/></g></g><g transform="matrix(0.99971,-0.0240975,0.0240975,0.99971,-17.0815,15.5953)"><g transform="matrix(91,0,0,91,638.539,716.544)"><path d="M0.29,-0.374l0.015,0c0.042,0 0.062,0.015 0.062,0.044c0,0.02 -0.007,0.035 -0.022,0.046c-0.014,0.011 -0.035,0.017 -0.06,0.017l-0.036,-0l-0.065,0.161l0.054,-0c0.042,-0 0.062,0.014 0.062,0.043c0,0.02 -0.007,0.035 -0.021,0.046c-0.015,0.011 -0.035,0.017 -0.061,0.017l-0.088,-0c-0.024,-0 -0.044,-0.006 -0.058,-0.017c-0.015,-0.011 -0.022,-0.027 -0.022,-0.046c-0,-0.013 0.003,-0.026 0.009,-0.041l0.009,-0.021l0.057,-0.142l-0.007,-0c-0.036,-0 -0.055,-0.014 -0.055,-0.043c0,-0.02 0.008,-0.035 0.022,-0.047c0.015,-0.011 0.035,-0.017 0.061,-0.017l0.022,0l0.026,-0.064l0.006,-0.013c0.015,-0.036 0.039,-0.054 0.072,-0.054c0.013,0 0.025,0.005 0.034,0.014c0.01,0.008 0.015,0.019 0.015,0.032c-0,0.012 -0.004,0.028 -0.013,0.047l-0.018,0.038Z" style="fill:#787878;fill-rule:nonzero;"/></g></g><g transform="matrix(0.998534,-0.0541335,0.0541335,0.998534,-37.7873,37.1018)"><g transform="matrix(91,0,0,91,665.979,716.078)"><path d="M0.163,-0.143c0,0.024 0.018,0.037 0.055,0.037l0.145,-0c0.041,-0 0.062,0.014 0.062,0.043c-0,0.02 -0.007,0.035 -0.022,0.046c-0.014,0.011 -0.035,0.017 -0.061,0.017l-0.138,-0c-0.051,-0 -0.09,-0.013 -0.117,-0.038c-0.027,-0.025 -0.041,-0.063 -0.041,-0.111c0,-0.063 0.022,-0.117 0.064,-0.163c0.043,-0.046 0.093,-0.068 0.152,-0.068c0.042,-0 0.077,0.011 0.103,0.033c0.025,0.022 0.038,0.052 0.038,0.088c0,0.044 -0.018,0.077 -0.053,0.098c-0.02,0.012 -0.05,0.018 -0.089,0.018l-0.098,-0Zm0.024,-0.089l0.053,0c0.035,0 0.052,-0.008 0.051,-0.023c-0.001,-0.017 -0.012,-0.026 -0.034,-0.026c-0.03,0 -0.053,0.017 -0.07,0.049Z" style="fill:#787878;fill-rule:nonzero;"/></g></g><g transform="matrix(0.99663,-0.0820274,0.0820274,0.99663,-56.21,59.9919)"><g transform="matrix(91,0,0,91,702.027,714.099)"><path d="M0.142,-0.123c0.018,-0 0.034,0.007 0.047,0.02c0.014,0.013 0.02,0.029 0.02,0.048c0,0.019 -0.006,0.035 -0.02,0.048c-0.013,0.014 -0.029,0.02 -0.047,0.02c-0.019,0 -0.035,-0.006 -0.049,-0.02c-0.013,-0.013 -0.02,-0.029 -0.02,-0.048c0,-0.019 0.007,-0.035 0.02,-0.048c0.014,-0.013 0.03,-0.02 0.049,-0.02Z" style="fill:#787878;fill-rule:nonzero;"/></g></g><g transform="matrix(0.987077,-0.160248,0.160248,0.987077,-105.118,125.414)"><g transform="matrix(91,0,0,91,725.012,714.441)"><path d="M1.21,-0.55l-0.301,0.517c-0.022,0.039 -0.049,0.058 -0.081,0.058c-0.025,-0 -0.044,-0.008 -0.057,-0.023c-0.013,-0.015 -0.02,-0.037 -0.02,-0.064l0.013,-0.351l-0.178,0.38c-0.018,0.039 -0.044,0.058 -0.078,0.058c-0.024,-0 -0.043,-0.008 -0.057,-0.023c-0.014,-0.016 -0.021,-0.037 -0.021,-0.064l-0.01,-0.338c-0,-0.059 -0.005,-0.1 -0.015,-0.12c-0.011,-0.021 -0.031,-0.031 -0.06,-0.031c-0.027,-0 -0.053,0.014 -0.079,0.041c-0.026,0.028 -0.039,0.056 -0.039,0.085c0,0.023 0.007,0.043 0.022,0.057c0.015,0.015 0.034,0.022 0.058,0.022c0.006,0 0.013,0 0.019,-0c0.006,-0.001 0.01,-0.001 0.012,-0.001c0.04,0 0.059,0.017 0.059,0.05c0,0.021 -0.011,0.04 -0.033,0.054c-0.023,0.015 -0.051,0.022 -0.085,0.022c-0.053,-0 -0.097,-0.018 -0.131,-0.054c-0.035,-0.037 -0.052,-0.082 -0.052,-0.138c0,-0.067 0.028,-0.127 0.082,-0.181c0.055,-0.053 0.117,-0.079 0.187,-0.079c0.063,-0 0.109,0.018 0.138,0.056c0.028,0.037 0.042,0.096 0.042,0.179l0.001,0.038l0.003,0.17l0.174,-0.378c0.02,-0.044 0.049,-0.065 0.089,-0.065c0.023,-0 0.042,0.006 0.056,0.02c0.014,0.013 0.021,0.031 0.021,0.054l-0.001,0.005l-0.009,0.372l0.22,-0.379l0.01,-0.019c0.018,-0.031 0.046,-0.047 0.083,-0.047l0.095,0c0.045,0 0.068,0.016 0.068,0.048c-0,0.022 -0.008,0.039 -0.024,0.051c-0.016,0.012 -0.038,0.018 -0.066,0.018l-0.055,0Z" style="fill:#787878;fill-rule:nonzero;"/></g></g><g transform="matrix(0.974166,-0.225833,0.225833,0.974166,-135.891,205.503)"><g transform="matrix(91,0,0,91,830.278,696.711)"><path d="M0.163,-0.143c0,0.024 0.018,0.037 0.055,0.037l0.145,-0c0.041,-0 0.062,0.014 0.062,0.043c-0,0.02 -0.007,0.035 -0.022,0.046c-0.014,0.011 -0.035,0.017 -0.061,0.017l-0.138,-0c-0.051,-0 -0.09,-0.013 -0.117,-0.038c-0.027,-0.025 -0.041,-0.063 -0.041,-0.111c0,-0.063 0.022,-0.117 0.064,-0.163c0.043,-0.046 0.093,-0.068 0.152,-0.068c0.042,-0 0.077,0.011 0.103,0.033c0.025,0.022 0.038,0.052 0.038,0.088c0,0.044 -0.018,0.077 -0.053,0.098c-0.02,0.012 -0.05,0.018 -0.089,0.018l-0.098,-0Zm0.024,-0.089l0.053,0c0.035,0 0.052,-0.008 0.051,-0.023c-0.001,-0.017 -0.012,-0.026 -0.034,-0.026c-0.03,0 -0.053,0.017 -0.07,0.049Z" style="fill:#787878;fill-rule:nonzero;"/></g></g><g transform="matrix(0.964053,-0.265709,0.265709,0.964053,-151.877,254.748)"><g transform="matrix(91,0,0,91,865.578,688.691)"><path d="M0.288,-0.374c0.015,-0.004 0.028,-0.006 0.039,-0.006c0.038,-0 0.069,0.014 0.092,0.042c0.023,0.028 0.035,0.065 0.035,0.109c0,0.087 -0.033,0.155 -0.1,0.204c-0.024,0.017 -0.048,0.025 -0.074,0.025l-0.046,0c-0.032,0 -0.06,-0.012 -0.083,-0.035c-0.013,0.023 -0.035,0.035 -0.064,0.035c-0.014,0 -0.026,-0.005 -0.036,-0.014c-0.009,-0.009 -0.014,-0.02 -0.014,-0.033c-0,-0.01 0.002,-0.021 0.007,-0.034l0.006,-0.013l0.204,-0.504l0.006,-0.014c0.015,-0.036 0.039,-0.055 0.071,-0.055c0.014,0 0.027,0.005 0.036,0.014c0.01,0.009 0.015,0.02 0.015,0.033c0,0.01 -0.002,0.021 -0.007,0.034l-0.006,0.013l-0.081,0.199Zm-0.097,0.24c0.016,0.021 0.035,0.031 0.057,0.031c0.016,-0 0.029,-0.004 0.04,-0.013c0.015,-0.012 0.028,-0.03 0.039,-0.054c0.011,-0.024 0.017,-0.045 0.017,-0.064c-0,-0.015 -0.004,-0.026 -0.013,-0.036c-0.008,-0.009 -0.019,-0.014 -0.033,-0.014c-0.031,0 -0.056,0.023 -0.074,0.069l-0.033,0.081Z" style="fill:#787878;fill-rule:nonzero;"/></g></g><g transform="matrix(0.954396,-0.298543,0.298543,0.954396,-161.231,300.719)"><g transform="matrix(91,0,0,91,903.707,678.106)"><path d="M0.142,-0.123c0.018,-0 0.034,0.007 0.047,0.02c0.014,0.013 0.02,0.029 0.02,0.048c0,0.019 -0.006,0.035 -0.02,0.048c-0.013,0.014 -0.029,0.02 -0.047,0.02c-0.019,0 -0.035,-0.006 -0.049,-0.02c-0.013,-0.013 -0.02,-0.029 -0.02,-0.048c0,-0.019 0.007,-0.035 0.02,-0.048c0.014,-0.013 0.03,-0.02 0.049,-0.02Z" style="fill:#787878;fill-rule:nonzero;"/></g></g><g transform="matrix(0.935845,-0.352411,0.352411,0.935845,-177.473,369.333)"><g transform="matrix(91,0,0,91,925.662,672.108)"><path d="M0.536,-0.55l-0.061,0c-0.037,0 -0.055,-0.015 -0.055,-0.047c0,-0.02 0.008,-0.036 0.023,-0.049c0.014,-0.014 0.033,-0.021 0.054,-0.021l0.156,0c0.096,0 0.169,0.023 0.221,0.069c0.051,0.045 0.076,0.111 0.076,0.197c0,0.13 -0.043,0.25 -0.13,0.359c-0.049,0.061 -0.105,0.105 -0.167,0.133c-0.062,0.028 -0.136,0.042 -0.223,0.042l-0.034,0l-0.006,0.014c-0.023,0.051 -0.041,0.086 -0.054,0.107c-0.013,0.02 -0.03,0.04 -0.05,0.059c-0.055,0.05 -0.117,0.075 -0.187,0.075c-0.058,0 -0.106,-0.017 -0.143,-0.051c-0.037,-0.035 -0.056,-0.078 -0.056,-0.131c-0,-0.033 0.008,-0.064 0.024,-0.092c0.016,-0.028 0.037,-0.051 0.065,-0.067c0.035,-0.02 0.083,-0.03 0.144,-0.03l0.173,-0l0.23,-0.567Zm-0.093,0.567l0.02,-0c0.101,-0 0.185,-0.045 0.253,-0.135c0.033,-0.043 0.059,-0.089 0.078,-0.139c0.019,-0.05 0.029,-0.097 0.029,-0.139c-0,-0.048 -0.014,-0.085 -0.04,-0.113c-0.027,-0.027 -0.063,-0.041 -0.109,-0.041l-0.231,0.567Zm-0.184,0.116l-0.13,0c-0.063,0 -0.095,0.023 -0.095,0.068c-0,0.019 0.007,0.034 0.021,0.047c0.014,0.013 0.031,0.019 0.051,0.019c0.03,0 0.058,-0.012 0.085,-0.035c0.027,-0.024 0.05,-0.057 0.068,-0.099Z" style="fill:#787878;fill-rule:nonzero;"/></g></g><g transform="matrix(0.904006,-0.427519,0.427519,0.904006,-178.185,490.444)"><g transform="matrix(91,0,0,91,1003.03,642.007)"><path d="M0.163,-0.143c0,0.024 0.018,0.037 0.055,0.037l0.145,-0c0.041,-0 0.062,0.014 0.062,0.043c-0,0.02 -0.007,0.035 -0.022,0.046c-0.014,0.011 -0.035,0.017 -0.061,0.017l-0.138,-0c-0.051,-0 -0.09,-0.013 -0.117,-0.038c-0.027,-0.025 -0.041,-0.063 -0.041,-0.111c0,-0.063 0.022,-0.117 0.064,-0.163c0.043,-0.046 0.093,-0.068 0.152,-0.068c0.042,-0 0.077,0.011 0.103,0.033c0.025,0.022 0.038,0.052 0.038,0.088c0,0.044 -0.018,0.077 -0.053,0.098c-0.02,0.012 -0.05,0.018 -0.089,0.018l-0.098,-0Zm0.024,-0.089l0.053,0c0.035,0 0.052,-0.008 0.051,-0.023c-0.001,-0.017 -0.012,-0.026 -0.034,-0.026c-0.03,0 -0.053,0.017 -0.07,0.049Z" style="fill:#787878;fill-rule:nonzero;"/></g></g><g transform="matrix(0.88309,-0.469204,0.469204,0.88309,-172.943,559.266)"><g transform="matrix(91,0,0,91,1035.8,626.674)"><path d="M0.169,-0.172l0.113,-0.154l0.009,-0.013c0.019,-0.028 0.04,-0.041 0.063,-0.041c0.016,-0 0.028,0.004 0.038,0.014c0.01,0.01 0.015,0.022 0.015,0.037c-0,0.016 -0.01,0.037 -0.03,0.062l-0.18,0.234c-0.02,0.027 -0.044,0.04 -0.072,0.04c-0.023,-0 -0.041,-0.008 -0.054,-0.024c-0.014,-0.016 -0.02,-0.039 -0.02,-0.066c-0,-0.006 -0,-0.011 0,-0.015l0.018,-0.194c0.002,-0.027 0.009,-0.047 0.021,-0.061c0.012,-0.014 0.028,-0.021 0.048,-0.021c0.031,0 0.047,0.016 0.047,0.047c-0,0.005 -0.001,0.013 -0.002,0.024l-0.014,0.131Z" style="fill:#787878;fill-rule:nonzero;"/></g></g><g transform="matrix(0.862297,-0.506402,0.506402,0.862297,-163.846,622.599)"><g transform="matrix(91,0,0,91,1062.88,612.572)"><path d="M0.163,-0.143c0,0.024 0.018,0.037 0.055,0.037l0.145,-0c0.041,-0 0.062,0.014 0.062,0.043c-0,0.02 -0.007,0.035 -0.022,0.046c-0.014,0.011 -0.035,0.017 -0.061,0.017l-0.138,-0c-0.051,-0 -0.09,-0.013 -0.117,-0.038c-0.027,-0.025 -0.041,-0.063 -0.041,-0.111c0,-0.063 0.022,-0.117 0.064,-0.163c0.043,-0.046 0.093,-0.068 0.152,-0.068c0.042,-0 0.077,0.011 0.103,0.033c0.025,0.022 0.038,0.052 0.038,0.088c0,0.044 -0.018,0.077 -0.053,0.098c-0.02,0.012 -0.05,0.018 -0.089,0.018l-0.098,-0Zm0.024,-0.089l0.053,0c0.035,0 0.052,-0.008 0.051,-0.023c-0.001,-0.017 -0.012,-0.026 -0.034,-0.026c-0.03,0 -0.053,0.017 -0.07,0.049Z" style="fill:#787878;fill-rule:nonzero;"/></g></g><g transform="matrix(0.836697,-0.547666,0.547666,0.836697,-146.801,696.306)"><g transform="matrix(91,0,0,91,1094.19,594.314)"><path d="M0.177,-0.106l0.051,-0c0.041,-0 0.062,0.014 0.062,0.043c0,0.02 -0.007,0.035 -0.022,0.046c-0.014,0.011 -0.034,0.017 -0.06,0.017l-0.088,-0c-0.024,-0 -0.044,-0.006 -0.057,-0.017c-0.014,-0.011 -0.021,-0.027 -0.021,-0.046c-0,-0.01 0.004,-0.027 0.014,-0.05l0.197,-0.486l0.005,-0.013c0.015,-0.036 0.039,-0.055 0.072,-0.055c0.014,0 0.025,0.005 0.035,0.014c0.01,0.009 0.014,0.02 0.014,0.033c0,0.01 -0.002,0.021 -0.007,0.033l-0.005,0.013l-0.19,0.468Z" style="fill:#787878;fill-rule:nonzero;"/></g></g><g transform="matrix(0.813966,-0.580913,0.580913,0.813966,-130.352,755.655)"><g transform="matrix(91,0,0,91,1114.63,581.346)"><path d="M0.272,-0.38c0.047,-0 0.086,0.015 0.116,0.045c0.031,0.029 0.046,0.068 0.046,0.114c0,0.035 -0.008,0.069 -0.024,0.104c-0.016,0.034 -0.036,0.061 -0.062,0.082c-0.017,0.013 -0.034,0.022 -0.052,0.027c-0.018,0.005 -0.044,0.008 -0.076,0.008c-0.053,0 -0.089,-0.006 -0.108,-0.019c-0.043,-0.03 -0.065,-0.074 -0.065,-0.133c-0,-0.062 0.022,-0.115 0.067,-0.16c0.044,-0.046 0.097,-0.068 0.158,-0.068Zm-0.012,0.104c-0.024,-0 -0.046,0.012 -0.066,0.035c-0.02,0.024 -0.029,0.05 -0.029,0.079c-0,0.038 0.021,0.057 0.063,0.057c0.025,-0 0.044,-0.008 0.057,-0.023c0.022,-0.025 0.033,-0.054 0.033,-0.086c0,-0.019 -0.005,-0.034 -0.016,-0.045c-0.01,-0.012 -0.024,-0.017 -0.042,-0.017Z" style="fill:#787878;fill-rule:nonzero;"/></g></g><g transform="matrix(0.783831,-0.620974,0.620974,0.783831,-99.8403,832.148)"><g transform="matrix(91,0,0,91,1145.31,559.476)"><path d="M0.152,-0.038l-0.128,0.313c-0.017,0.044 -0.043,0.065 -0.077,0.065c-0.013,0 -0.024,-0.004 -0.033,-0.013c-0.009,-0.008 -0.014,-0.019 -0.014,-0.031c-0,-0.01 0.004,-0.025 0.012,-0.046l0.235,-0.58c0.013,-0.029 0.033,-0.044 0.063,-0.044c0.02,0 0.037,0.01 0.049,0.03c0.023,-0.024 0.05,-0.036 0.083,-0.036c0.034,-0 0.062,0.013 0.083,0.038c0.021,0.026 0.032,0.06 0.032,0.103c-0,0.08 -0.025,0.145 -0.075,0.196c-0.016,0.016 -0.033,0.028 -0.05,0.034c-0.018,0.006 -0.042,0.009 -0.073,0.009c-0.033,-0 -0.056,-0.002 -0.068,-0.007c-0.013,-0.004 -0.026,-0.015 -0.039,-0.031Zm0.04,-0.1c0.008,0.015 0.016,0.024 0.023,0.028c0.007,0.004 0.019,0.006 0.035,0.006c0.023,0 0.041,-0.008 0.054,-0.025c0.027,-0.035 0.04,-0.071 0.04,-0.108c-0,-0.031 -0.015,-0.047 -0.045,-0.047c-0.033,-0 -0.057,0.019 -0.071,0.057c-0.002,0.004 -0.003,0.008 -0.004,0.011l-0.032,0.078Z" style="fill:#787878;fill-rule:nonzero;"/></g></g><g transform="matrix(0.717617,-0.696438,0.696438,0.717617,-40.4927,970.787)"><g transform="matrix(91,0,0,91,1176.87,535.327)"><path d="M0.633,-0.106l0.058,-0c0.041,-0 0.062,0.014 0.062,0.043c-0,0.02 -0.007,0.035 -0.022,0.046c-0.014,0.011 -0.034,0.017 -0.06,0.017l-0.099,-0c-0.022,-0 -0.039,-0.006 -0.052,-0.017c-0.014,-0.011 -0.02,-0.026 -0.02,-0.045c-0,-0.013 0.004,-0.03 0.013,-0.052l0.046,-0.112c0.002,-0.006 0.003,-0.012 0.003,-0.018c0,-0.021 -0.01,-0.031 -0.032,-0.031c-0.016,-0 -0.033,0.007 -0.049,0.022c-0.016,0.015 -0.029,0.035 -0.039,0.06l-0.055,0.134c-0.018,0.044 -0.044,0.066 -0.078,0.066c-0.013,-0 -0.025,-0.005 -0.034,-0.013c-0.01,-0.009 -0.014,-0.02 -0.014,-0.032c-0,-0.009 0.002,-0.02 0.007,-0.033l0.005,-0.013l0.056,-0.136c0.004,-0.012 0.007,-0.022 0.007,-0.029c-0,-0.007 -0.003,-0.013 -0.01,-0.018c-0.006,-0.006 -0.014,-0.008 -0.023,-0.008c-0.035,-0 -0.063,0.025 -0.083,0.076l-0.057,0.14c-0.018,0.044 -0.044,0.066 -0.078,0.066c-0.013,-0 -0.025,-0.004 -0.034,-0.013c-0.01,-0.009 -0.015,-0.019 -0.015,-0.032c0,-0.009 0.003,-0.02 0.007,-0.033l0.006,-0.013l0.097,-0.239c0.014,-0.034 0.034,-0.051 0.062,-0.051c0.028,0 0.045,0.014 0.052,0.041c0.022,-0.019 0.04,-0.032 0.054,-0.038c0.014,-0.006 0.031,-0.009 0.051,-0.009c0.044,-0 0.077,0.019 0.098,0.057c0.037,-0.038 0.078,-0.057 0.123,-0.057c0.032,-0 0.058,0.009 0.079,0.027c0.021,0.018 0.031,0.04 0.031,0.066c0,0.017 -0.003,0.034 -0.01,0.052l-0.053,0.129Z" style="fill:#787878;fill-rule:nonzero;"/></g></g><g transform="matrix(0.647266,-0.762264,0.762264,0.647266,58.9498,1105.52)"><g transform="matrix(91,0,0,91,1224,489.064)"><path d="M0.163,-0.143c0,0.024 0.018,0.037 0.055,0.037l0.145,-0c0.041,-0 0.062,0.014 0.062,0.043c-0,0.02 -0.007,0.035 -0.022,0.046c-0.014,0.011 -0.035,0.017 -0.061,0.017l-0.138,-0c-0.051,-0 -0.09,-0.013 -0.117,-0.038c-0.027,-0.025 -0.041,-0.063 -0.041,-0.111c0,-0.063 0.022,-0.117 0.064,-0.163c0.043,-0.046 0.093,-0.068 0.152,-0.068c0.042,-0 0.077,0.011 0.103,0.033c0.025,0.022 0.038,0.052 0.038,0.088c0,0.044 -0.018,0.077 -0.053,0.098c-0.02,0.012 -0.05,0.018 -0.089,0.018l-0.098,-0Zm0.024,-0.089l0.053,0c0.035,0 0.052,-0.008 0.051,-0.023c-0.001,-0.017 -0.012,-0.026 -0.034,-0.026c-0.03,0 -0.053,0.017 -0.07,0.049Z" style="fill:#787878;fill-rule:nonzero;"/></g></g><g transform="matrix(0.582429,-0.812882,0.812882,0.582429,145.68,1207.13)"><g transform="matrix(91,0,0,91,1247.79,461.768)"><path d="M0.408,-0.106l0.058,-0c0.042,-0 0.062,0.014 0.062,0.043c0,0.02 -0.007,0.035 -0.022,0.046c-0.014,0.011 -0.034,0.017 -0.06,0.017l-0.102,-0c-0.02,-0 -0.037,-0.006 -0.05,-0.018c-0.014,-0.012 -0.021,-0.027 -0.021,-0.045c0,-0.012 0.005,-0.028 0.014,-0.05l0.043,-0.107c0.005,-0.011 0.007,-0.02 0.007,-0.027c0.001,-0.007 -0.002,-0.014 -0.009,-0.02c-0.007,-0.005 -0.015,-0.008 -0.026,-0.008c-0.033,0 -0.06,0.025 -0.081,0.076l-0.057,0.141c-0.018,0.043 -0.043,0.065 -0.078,0.065c-0.014,-0 -0.025,-0.004 -0.035,-0.013c-0.01,-0.008 -0.015,-0.019 -0.015,-0.031c0,-0.009 0.003,-0.02 0.008,-0.033l0.005,-0.013l0.099,-0.243c0.013,-0.032 0.034,-0.048 0.065,-0.048c0.025,0 0.043,0.012 0.054,0.034c0.034,-0.027 0.068,-0.04 0.099,-0.04c0.031,-0 0.056,0.008 0.076,0.026c0.02,0.018 0.03,0.04 0.03,0.067c-0,0.015 -0.004,0.031 -0.011,0.049l-0.053,0.132Z" style="fill:#787878;fill-rule:nonzero;"/></g></g><g transform="matrix(0.511276,-0.859417,0.859417,0.511276,257.783,1302.74)"><g transform="matrix(91,0,0,91,1274.32,424.715)"><path d="M0.29,-0.374l0.015,0c0.042,0 0.062,0.015 0.062,0.044c0,0.02 -0.007,0.035 -0.022,0.046c-0.014,0.011 -0.035,0.017 -0.06,0.017l-0.036,-0l-0.065,0.161l0.054,-0c0.042,-0 0.062,0.014 0.062,0.043c0,0.02 -0.007,0.035 -0.021,0.046c-0.015,0.011 -0.035,0.017 -0.061,0.017l-0.088,-0c-0.024,-0 -0.044,-0.006 -0.058,-0.017c-0.015,-0.011 -0.022,-0.027 -0.022,-0.046c-0,-0.013 0.003,-0.026 0.009,-0.041l0.009,-0.021l0.057,-0.142l-0.007,-0c-0.036,-0 -0.055,-0.014 -0.055,-0.043c0,-0.02 0.008,-0.035 0.022,-0.047c0.015,-0.011 0.035,-0.017 0.061,-0.017l0.022,0l0.026,-0.064l0.006,-0.013c0.015,-0.036 0.039,-0.054 0.072,-0.054c0.013,0 0.025,0.005 0.034,0.014c0.01,0.008 0.015,0.019 0.015,0.032c-0,0.012 -0.004,0.028 -0.013,0.047l-0.018,0.038Z" style="fill:#787878;fill-rule:nonzero;"/></g></g></g><circle cx="2283.51" cy="1161.15" r="1130.95" style="fill:#d5d5d5;stroke:#3e3e3e;stroke-width:20.83px;"/><path d="M2697.17,1501.14l195.63,-0c111.903,-0 167.855,38.24 167.855,114.721c0,54.744 -19.523,97.412 -58.568,128.005c-39.046,30.592 -93.991,45.888 -164.836,45.888l-229.443,0c-83.726,0 -148.333,-17.51 -193.819,-52.53c-45.486,-35.02 -68.229,-85.135 -68.229,-150.345c0,-41.864 16.907,-103.048 50.719,-183.554l310.352,-726.971l-233.066,249.972c-55.549,60.379 -108.281,90.569 -158.194,90.569c-65.21,0 -107.476,-44.681 -126.798,-134.043l-33.812,-149.741l-294.653,726.97c-101.438,249.57 -178.723,419.236 -231.858,509.001c-53.134,89.764 -121.966,167.654 -206.498,233.669c-122.369,94.997 -262.853,142.496 -421.45,142.496c-169.063,-0 -306.326,-53.336 -411.789,-160.006c-105.463,-106.671 -158.194,-245.745 -158.194,-417.223c-0,-224.613 82.921,-422.255 248.764,-592.928c89.362,-90.972 200.863,-164.434 334.503,-220.386c133.64,-55.952 265.268,-83.928 394.883,-83.928c66.015,0 118.746,14.089 158.194,42.266c39.448,28.177 59.172,65.613 59.172,112.306c0,49.109 -20.931,88.959 -62.795,119.552c-24.151,17.711 -70.845,29.787 -140.08,36.228c-160.208,14.491 -289.42,51.121 -387.637,109.891c-81.312,49.108 -145.918,113.111 -193.819,192.007c-47.901,78.896 -71.852,161.415 -71.852,247.556c0,91.777 23.347,164.031 70.041,216.763c46.693,52.732 110.696,79.097 192.007,79.097c97.412,0 182.145,-41.662 254.198,-124.985c72.053,-83.324 151.15,-230.449 237.292,-441.376l479.414,-1179.82c41.863,-103.853 98.218,-155.78 169.063,-155.78c45.084,0 80.707,14.491 106.872,43.474c26.164,28.982 48.907,79.701 68.229,152.156l73.663,277.746l362.278,-356.239c79.701,-78.091 154.169,-117.137 223.404,-117.137c48.304,0 89.161,14.693 122.571,44.077c33.41,29.385 50.115,65.009 50.115,106.872c0,26.567 -6.44,55.549 -19.321,86.947l-27.775,67.625l-434.733,1071.13Z" style="fill:#787878;fill-rule:nonzero;"/><path d="M1741.89,1325.35l124.913,-302.388c13.604,-33.393 27.209,-54.624 40.813,-63.694c13.604,-9.069 38.958,-13.604 76.061,-13.604l319.084,-0c56.891,-0 85.337,19.376 85.337,58.128c-0,25.559 -9.379,46.894 -28.137,64.002c-18.757,17.109 -41.947,25.663 -69.568,25.663l-280.126,-0l-93.994,231.893l93.376,-0c46.172,-0 69.258,19.994 69.258,59.982c0,24.323 -9.481,45.039 -28.445,62.148c-18.964,17.108 -42.05,25.662 -69.259,25.662l-124.913,0l-137.28,337.636l443.379,0c46.172,0 69.258,19.376 69.258,58.128c0,25.56 -9.378,46.894 -28.136,64.002c-18.758,17.109 -41.947,25.663 -69.568,25.663l-474.916,0l-8.039,17.315c-28.858,64.311 -51.429,109.453 -67.713,135.425c-16.284,25.972 -37.618,51.119 -64.002,75.442c-68.846,63.075 -147.999,94.613 -237.458,94.613c-72.969,-0 -133.055,-21.644 -180.258,-64.93c-47.203,-43.287 -70.804,-98.323 -70.804,-165.108c-0,-41.637 10.1,-80.595 30.3,-116.874c20.201,-36.278 47.616,-64.517 82.245,-84.718c44.935,-25.972 105.743,-38.958 182.422,-38.958l218.907,0l137.28,-337.636l-20.406,0c-46.173,0 -69.259,-20.2 -69.259,-60.601c-0,-24.323 9.482,-44.935 28.445,-61.838c18.964,-16.902 42.05,-25.353 69.259,-25.353l51.944,-0Zm-257.246,633.221l-163.253,0c-80.801,0 -121.202,28.652 -121.202,85.955c-0,23.498 8.966,43.183 26.899,59.055c17.933,15.872 40.092,23.808 66.476,23.808c37.103,-0 72.66,-15.047 106.671,-45.142c34.011,-30.094 62.147,-71.32 84.409,-123.676Z" style="fill:#860303;fill-rule:nonzero;"/><path d="M2632.98,1654.95l70.496,0c52.356,0 78.534,18.346 78.534,55.036c-0,25.148 -9.276,44.73 -27.827,58.746c-18.552,14.017 -44.111,21.025 -76.679,21.025l-83.482,0c-32.156,0 -55.654,-13.192 -70.495,-39.576c-26.384,26.384 -54.624,39.576 -84.718,39.576l-78.535,0c-45.76,0 -82.347,-15.665 -109.762,-46.997c-27.415,-31.331 -41.122,-72.969 -41.122,-124.913c-0,-79.564 27.105,-151.09 81.317,-214.578c54.211,-63.487 115.121,-95.23 182.731,-95.23c49.883,-0 89.665,17.933 119.347,53.799l137.899,-338.254c23.499,-57.716 56.273,-86.573 98.323,-86.573c17.727,-0 32.774,5.668 45.142,17.005c12.367,11.337 18.551,25.251 18.551,41.741c-0,12.78 -3.092,27.209 -9.276,43.286l-7.42,16.697l-243.024,599.21Zm-226.327,3.092l23.498,0c28.446,0 47.203,-11.337 56.273,-34.011l46.379,-114.4c5.771,-14.017 8.657,-24.735 8.657,-32.156c-0,-12.367 -5.256,-22.88 -15.769,-31.537c-10.512,-8.658 -23.601,-12.986 -39.267,-12.986c-32.156,-0 -62.147,17.933 -89.974,53.799c-27.827,35.866 -41.741,74.618 -41.741,116.255c0,36.691 17.315,55.036 51.944,55.036Z" style="fill:#860303;fill-rule:nonzero;"/></svg>