<?xml version="1.0" encoding="UTF-8" standalone="no"?><!DOCTYPE svg PUBLIC "-//W3C//DTD SVG 1.1//EN" "http://www.w3.org/Graphics/SVG/1.1/DTD/svg11.dtd"><svg width="100%" height="100%" viewBox="0 0 6000 3750" version="1.1" xmlns="http://www.w3.org/2000/svg" xmlns:xlink="http://www.w3.org/1999/xlink" xml:space="preserve" xmlns:serif="http://www.serif.com/" style="fill-rule:evenodd;clip-rule:evenodd;stroke-linecap:round;stroke-linejoin:round;stroke-miterlimit:1.5;"><g transform="matrix(4.16667,0,0,4.16667,-395.289,58.6147)"><g transform="matrix(0.955802,0.294012,-0.294012,0.955802,208.802,-63.0033)"><text x="313.954px" y="662.987px" style="font-family:'HarlowSolid', 'Harlow Solid Italic', fantasy;font-style:italic;font-stretch:semi-expanded;font-size:91px;fill:#787878;">P</text></g><g transform="matrix(0.972433,0.233184,-0.233184,0.972433,170.236,-70.8678)"><text x="384.842px" y="684.551px" style="font-family:'HarlowSolid', 'Harlow Solid Italic', fantasy;font-style:italic;font-stretch:semi-expanded;font-size:91px;fill:#787878;">a</text></g><g transform="matrix(0.980799,0.195019,-0.195019,0.980799,143.618,-69.7826)"><text x="426.198px" y="694.467px" style="font-family:'HarlowSolid', 'Harlow Solid Italic', fantasy;font-style:italic;font-stretch:semi-expanded;font-size:91px;fill:#787878;">s</text></g><g transform="matrix(0.986846,0.161661,-0.161661,0.986846,119.297,-64.7191)"><text x="457.353px" y="700.733px" style="font-family:'HarlowSolid', 'Harlow Solid Italic', fantasy;font-style:italic;font-stretch:semi-expanded;font-size:91px;fill:#787878;">s</text></g><g transform="matrix(0.99146,0.130414,-0.130414,0.99146,96.2326,-57.6971)"><text x="488.641px" y="705.9px" style="font-family:'HarlowSolid', 'Harlow Solid Italic', fantasy;font-style:italic;font-stretch:semi-expanded;font-size:91px;fill:#787878;">i</text></g><g transform="matrix(0.995044,0.099435,-0.099435,0.995044,73.0738,-47.4975)"><text x="513.027px" y="709.321px" style="font-family:'HarlowSolid', 'Harlow Solid Italic', fantasy;font-style:italic;font-stretch:semi-expanded;font-size:91px;fill:#787878;">o</text></g><g transform="matrix(0.99836,0.0572494,-0.0572494,0.99836,41.7375,-30.3476)"><text x="550.528px" y="713.275px" style="font-family:'HarlowSolid', 'Harlow Solid Italic', fantasy;font-style:italic;font-stretch:semi-expanded;font-size:91px;fill:#787878;">n</text></g><g transform="matrix(0.99992,0.0126169,-0.0126169,0.99992,9.08099,-7.46289)"><text x="596.016px" y="715.987px" style="font-family:'HarlowSolid', 'Harlow Solid Italic', fantasy;font-style:italic;font-stretch:semi-expanded;font-size:91px;fill:#787878;">a</text></g><g transform="matrix(0.99971,-0.0240975,0.0240975,0.99971,-17.0815,15.5953)"><text x="638.539px" y="716.544px" style="font-family:'HarlowSolid', 'Harlow Solid Italic', fantasy;font-style:italic;font-stretch:semi-expanded;font-size:91px;fill:#787878;">t</text></g><g transform="matrix(0.998534,-0.0541335,0.0541335,0.998534,-37.7873,37.1018)"><text x="665.979px" y="716.078px" style="font-family:'HarlowSolid', 'Harlow Solid Italic', fantasy;font-style:italic;font-stretch:semi-expanded;font-size:91px;fill:#787878;">e</text></g><g transform="matrix(0.99663,-0.0820274,0.0820274,0.99663,-56.21,59.9919)"><text x="702.027px" y="714.099px" style="font-family:'HarlowSolid', 'Harlow Solid Italic', fantasy;font-style:italic;font-stretch:semi-expanded;font-size:91px;fill:#787878;">.</text></g><g transform="matrix(0.987077,-0.160248,0.160248,0.987077,-105.118,125.414)"><text x="725.012px" y="714.441px" style="font-family:'HarlowSolid', 'Harlow Solid Italic', fantasy;font-style:italic;font-stretch:semi-expanded;font-size:91px;fill:#787878;">W</text></g><g transform="matrix(0.974166,-0.225833,0.225833,0.974166,-135.891,205.503)"><text x="830.278px" y="696.711px" style="font-family:'HarlowSolid', 'Harlow Solid Italic', fantasy;font-style:italic;font-stretch:semi-expanded;font-size:91px;fill:#787878;">e</text></g><g transform="matrix(0.964053,-0.265709,0.265709,0.964053,-151.877,254.748)"><text x="865.578px" y="688.691px" style="font-family:'HarlowSolid', 'Harlow Solid Italic', fantasy;font-style:italic;font-stretch:semi-expanded;font-size:91px;fill:#787878;">b</text></g><g transform="matrix(0.954396,-0.298543,0.298543,0.954396,-161.231,300.719)"><text x="903.707px" y="678.106px" style="font-family:'HarlowSolid', 'Harlow Solid Italic', fantasy;font-style:italic;font-stretch:semi-expanded;font-size:91px;fill:#787878;">.</text></g><g transform="matrix(0.935845,-0.352411,0.352411,0.935845,-177.473,369.333)"><text x="925.662px" y="672.108px" style="font-family:'HarlowSolid', 'Harlow Solid Italic', fantasy;font-style:italic;font-stretch:semi-expanded;font-size:91px;fill:#787878;">D</text></g><g transform="matrix(0.904006,-0.427519,0.427519,0.904006,-178.185,490.444)"><text x="1003.03px" y="642.007px" style="font-family:'HarlowSolid', 'Harlow Solid Italic', fantasy;font-style:italic;font-stretch:semi-expanded;font-size:91px;fill:#787878;">e</text></g><g transform="matrix(0.88309,-0.469204,0.469204,0.88309,-172.943,559.266)"><text x="1035.8px" y="626.674px" style="font-family:'HarlowSolid', 'Harlow Solid Italic', fantasy;font-style:italic;font-stretch:semi-expanded;font-size:91px;fill:#787878;">v</text></g><g transform="matrix(0.862297,-0.506402,0.506402,0.862297,-163.846,622.599)"><text x="1062.88px" y="612.572px" style="font-family:'HarlowSolid', 'Harlow Solid Italic', fantasy;font-style:italic;font-stretch:semi-expanded;font-size:91px;fill:#787878;">e</text></g><g transform="matrix(0.836697,-0.547666,0.547666,0.836697,-146.801,696.306)"><text x="1094.19px" y="594.314px" style="font-family:'HarlowSolid', 'Harlow Solid Italic', fantasy;font-style:italic;font-stretch:semi-expanded;font-size:91px;fill:#787878;">l</text></g><g transform="matrix(0.813966,-0.580913,0.580913,0.813966,-130.352,755.655)"><text x="1114.63px" y="581.346px" style="font-family:'HarlowSolid', 'Harlow Solid Italic', fantasy;font-style:italic;font-stretch:semi-expanded;font-size:91px;fill:#787878;">o</text></g><g transform="matrix(0.783831,-0.620974,0.620974,0.783831,-99.8403,832.148)"><text x="1145.31px" y="559.476px" style="font-family:'HarlowSolid', 'Harlow Solid Italic', fantasy;font-style:italic;font-stretch:semi-expanded;font-size:91px;fill:#787878;">p</text></g><g transform="matrix(0.717617,-0.696438,0.696438,0.717617,-40.4927,970.787)"><text x="1176.87px" y="535.327px" style="font-family:'HarlowSolid', 'Harlow Solid Italic', fantasy;font-style:italic;font-stretch:semi-expanded;font-size:91px;fill:#787878;">m</text></g><g transform="matrix(0.647266,-0.762264,0.762264,0.647266,58.9498,1105.52)"><text x="1224px" y="489.064px" style="font-family:'HarlowSolid', 'Harlow Solid Italic', fantasy;font-style:italic;font-stretch:semi-expanded;font-size:91px;fill:#787878;">e</text></g><g transform="matrix(0.582429,-0.812882,0.812882,0.582429,145.68,1207.13)"><text x="1247.79px" y="461.768px" style="font-family:'HarlowSolid', 'Harlow Solid Italic', fantasy;font-style:italic;font-stretch:semi-expanded;font-size:91px;fill:#787878;">n</text></g><g transform="matrix(0.511276,-0.859417,0.859417,0.511276,257.783,1302.74)"><text x="1274.32px" y="424.715px" style="font-family:'HarlowSolid', 'Harlow Solid Italic', fantasy;font-style:italic;font-stretch:semi-expanded;font-size:91px;fill:#787878;">t</text></g></g><circle cx="2283.51" cy="1161.15" r="1130.95" style="fill:#d5d5d5;stroke:#3e3e3e;stroke-width:20.83px;"/><text x="447.428px" y="1789.76px" style="font-family:'HarlowSolid', 'Harlow Solid Italic', fantasy;font-style:italic;font-stretch:semi-expanded;font-size:2473.15px;fill:#787878;">M</text><text x="1157.52px" y="1789.76px" style="font-family:'HarlowSolid', 'Harlow Solid Italic', fantasy;font-style:italic;font-stretch:semi-expanded;font-size:1266.44px;fill:#860303;">Ed</text></svg>