<?xml version="1.0" encoding="UTF-8" standalone="no"?><!DOCTYPE svg PUBLIC "-//W3C//DTD SVG 1.1//EN" "http://www.w3.org/Graphics/SVG/1.1/DTD/svg11.dtd"><svg width="100%" height="100%" viewBox="0 0 1250 938" version="1.1" xmlns="http://www.w3.org/2000/svg" xmlns:xlink="http://www.w3.org/1999/xlink" xml:space="preserve" xmlns:serif="http://www.serif.com/" style="fill-rule:evenodd;clip-rule:evenodd;stroke-linejoin:round;stroke-miterlimit:2;"><circle id="OuterCircle" cx="654.986" cy="449.172" r="366.525" style="fill:#b6b6b6;"/><path id="WelcomeAll" d="M295.567,518.368l-7.105,-55.61l2.621,-57.029l11.827,-58.07l16.868,-46.033l110.929,50.284l-14.513,43.642l-2.137,53.62l5.961,67.687l22.063,64.533l37.667,40.404l-84.989,86.522l-45.135,-56.194l-28.249,-51.316l-18.544,-50.872l-7.264,-31.568Z" style="fill:#9f9d9d;"/><g transform="matrix(1.99391,8.67362e-17,6.07153e-16,1.99391,3.84366,-163.231)"><g transform="matrix(-0.564286,-0.825579,0.825579,-0.564286,7.73876,836.882)"><g transform="matrix(45.3333,0,0,45.3333,224.709,416.399)"><path d="M1.21,-0.55l-0.301,0.517c-0.022,0.039 -0.049,0.058 -0.081,0.058c-0.025,-0 -0.044,-0.008 -0.057,-0.023c-0.013,-0.015 -0.02,-0.037 -0.02,-0.064l0.013,-0.351l-0.178,0.38c-0.018,0.039 -0.044,0.058 -0.078,0.058c-0.024,-0 -0.043,-0.008 -0.057,-0.023c-0.014,-0.016 -0.021,-0.037 -0.021,-0.064l-0.01,-0.338c-0,-0.059 -0.005,-0.1 -0.015,-0.12c-0.011,-0.021 -0.031,-0.031 -0.06,-0.031c-0.027,-0 -0.053,0.014 -0.079,0.041c-0.026,0.028 -0.039,0.056 -0.039,0.085c0,0.023 0.007,0.043 0.022,0.057c0.015,0.015 0.034,0.022 0.058,0.022c0.006,0 0.013,0 0.019,-0c0.006,-0.001 0.01,-0.001 0.012,-0.001c0.04,0 0.059,0.017 0.059,0.05c0,0.021 -0.011,0.04 -0.033,0.054c-0.023,0.015 -0.051,0.022 -0.085,0.022c-0.053,-0 -0.097,-0.018 -0.131,-0.054c-0.035,-0.037 -0.052,-0.082 -0.052,-0.138c0,-0.067 0.028,-0.127 0.082,-0.181c0.055,-0.053 0.117,-0.079 0.187,-0.079c0.063,-0 0.109,0.018 0.138,0.056c0.028,0.037 0.042,0.096 0.042,0.179l0.001,0.038l0.003,0.17l0.174,-0.378c0.02,-0.044 0.049,-0.065 0.089,-0.065c0.023,-0 0.042,0.006 0.056,0.02c0.014,0.013 0.021,0.031 0.021,0.054l-0.001,0.005l-0.009,0.372l0.22,-0.379l0.01,-0.019c0.018,-0.031 0.046,-0.047 0.083,-0.047l0.095,0c0.045,0 0.068,0.016 0.068,0.048c-0,0.022 -0.008,0.039 -0.024,0.051c-0.016,0.012 -0.038,0.018 -0.066,0.018l-0.055,0Z" style="fill-rule:nonzero;"/></g></g><g transform="matrix(-0.377048,-0.926194,0.926194,-0.377048,-75.1916,693.22)"><g transform="matrix(45.3333,0,0,45.3333,195.532,371.897)"><path d="M0.163,-0.143c0,0.024 0.018,0.037 0.055,0.037l0.145,-0c0.041,-0 0.062,0.014 0.062,0.043c-0,0.02 -0.007,0.035 -0.022,0.046c-0.014,0.011 -0.035,0.017 -0.061,0.017l-0.138,-0c-0.051,-0 -0.09,-0.013 -0.117,-0.038c-0.027,-0.025 -0.041,-0.063 -0.041,-0.111c0,-0.063 0.022,-0.117 0.064,-0.163c0.043,-0.046 0.093,-0.068 0.152,-0.068c0.042,-0 0.077,0.011 0.103,0.033c0.025,0.022 0.038,0.052 0.038,0.088c0,0.044 -0.018,0.077 -0.053,0.098c-0.02,0.012 -0.05,0.018 -0.089,0.018l-0.098,-0Zm0.024,-0.089l0.053,0c0.035,0 0.052,-0.008 0.051,-0.023c-0.001,-0.017 -0.012,-0.026 -0.034,-0.026c-0.03,0 -0.053,0.017 -0.07,0.049Z" style="fill-rule:nonzero;"/></g></g><g transform="matrix(-0.266331,-0.963882,0.963882,-0.266331,-103.536,631.57)"><g transform="matrix(45.3333,0,0,45.3333,188.595,355.189)"><path d="M0.177,-0.106l0.051,-0c0.041,-0 0.062,0.014 0.062,0.043c0,0.02 -0.007,0.035 -0.022,0.046c-0.014,0.011 -0.034,0.017 -0.06,0.017l-0.088,-0c-0.024,-0 -0.044,-0.006 -0.057,-0.017c-0.014,-0.011 -0.021,-0.027 -0.021,-0.046c-0,-0.01 0.004,-0.027 0.014,-0.05l0.197,-0.486l0.005,-0.013c0.015,-0.036 0.039,-0.055 0.072,-0.055c0.014,0 0.025,0.005 0.035,0.014c0.01,0.009 0.014,0.02 0.014,0.033c0,0.01 -0.002,0.021 -0.007,0.033l-0.005,0.013l-0.19,0.468Z" style="fill-rule:nonzero;"/></g></g><g transform="matrix(-0.179899,-0.983685,0.983685,-0.179899,-119.683,587.461)"><g transform="matrix(45.3333,0,0,45.3333,185.042,343.621)"><path d="M0.326,-0l-0.142,-0c-0.041,-0 -0.074,-0.014 -0.099,-0.043c-0.026,-0.029 -0.039,-0.066 -0.039,-0.111c0,-0.061 0.021,-0.114 0.063,-0.159c0.042,-0.045 0.092,-0.067 0.148,-0.067c0.039,-0 0.07,0.01 0.094,0.032c0.024,0.021 0.036,0.049 0.036,0.084c0,0.024 -0.006,0.044 -0.018,0.059c-0.012,0.016 -0.027,0.023 -0.046,0.023c-0.03,0 -0.045,-0.014 -0.045,-0.042l-0,-0.01c0,-0.004 0,-0.007 0,-0.011c0,-0.022 -0.011,-0.034 -0.033,-0.034c-0.022,0 -0.041,0.011 -0.058,0.034c-0.018,0.022 -0.026,0.047 -0.026,0.075c-0,0.023 0.007,0.04 0.021,0.049c0.014,0.01 0.038,0.015 0.072,0.015l0.092,-0c0.042,-0 0.062,0.014 0.062,0.043c0,0.02 -0.007,0.035 -0.022,0.046c-0.015,0.011 -0.035,0.017 -0.06,0.017Z" style="fill-rule:nonzero;"/></g></g><g transform="matrix(-0.0586012,-0.998281,0.998281,-0.0586012,-133.768,527.211)"><g transform="matrix(45.3333,0,0,45.3333,181.701,326.679)"><path d="M0.272,-0.38c0.047,-0 0.086,0.015 0.116,0.045c0.031,0.029 0.046,0.068 0.046,0.114c0,0.035 -0.008,0.069 -0.024,0.104c-0.016,0.034 -0.036,0.061 -0.062,0.082c-0.017,0.013 -0.034,0.022 -0.052,0.027c-0.018,0.005 -0.044,0.008 -0.076,0.008c-0.053,0 -0.089,-0.006 -0.108,-0.019c-0.043,-0.03 -0.065,-0.074 -0.065,-0.133c-0,-0.062 0.022,-0.115 0.067,-0.16c0.044,-0.046 0.097,-0.068 0.158,-0.068Zm-0.012,0.104c-0.024,-0 -0.046,0.012 -0.066,0.035c-0.02,0.024 -0.029,0.05 -0.029,0.079c-0,0.038 0.021,0.057 0.063,0.057c0.025,-0 0.044,-0.008 0.057,-0.023c0.022,-0.025 0.033,-0.054 0.033,-0.086c0,-0.019 -0.005,-0.034 -0.016,-0.045c-0.01,-0.012 -0.024,-0.017 -0.042,-0.017Z" style="fill-rule:nonzero;"/></g></g><g transform="matrix(0.116076,-0.99324,0.99324,0.116076,-146.889,450.608)"><g transform="matrix(45.3333,0,0,45.3333,179.724,307.832)"><path d="M0.633,-0.106l0.058,-0c0.041,-0 0.062,0.014 0.062,0.043c-0,0.02 -0.007,0.035 -0.022,0.046c-0.014,0.011 -0.034,0.017 -0.06,0.017l-0.099,-0c-0.022,-0 -0.039,-0.006 -0.052,-0.017c-0.014,-0.011 -0.02,-0.026 -0.02,-0.045c-0,-0.013 0.004,-0.03 0.013,-0.052l0.046,-0.112c0.002,-0.006 0.003,-0.012 0.003,-0.018c0,-0.021 -0.01,-0.031 -0.032,-0.031c-0.016,-0 -0.033,0.007 -0.049,0.022c-0.016,0.015 -0.029,0.035 -0.039,0.06l-0.055,0.134c-0.018,0.044 -0.044,0.066 -0.078,0.066c-0.013,-0 -0.025,-0.005 -0.034,-0.013c-0.01,-0.009 -0.014,-0.02 -0.014,-0.032c-0,-0.009 0.002,-0.02 0.007,-0.033l0.005,-0.013l0.056,-0.136c0.004,-0.012 0.007,-0.022 0.007,-0.029c-0,-0.007 -0.003,-0.013 -0.01,-0.018c-0.006,-0.006 -0.014,-0.008 -0.023,-0.008c-0.035,-0 -0.063,0.025 -0.083,0.076l-0.057,0.14c-0.018,0.044 -0.044,0.066 -0.078,0.066c-0.013,-0 -0.025,-0.004 -0.034,-0.013c-0.01,-0.009 -0.015,-0.019 -0.015,-0.032c0,-0.009 0.003,-0.02 0.007,-0.033l0.006,-0.013l0.097,-0.239c0.014,-0.034 0.034,-0.051 0.062,-0.051c0.028,0 0.045,0.014 0.052,0.041c0.022,-0.019 0.04,-0.032 0.054,-0.038c0.014,-0.006 0.031,-0.009 0.051,-0.009c0.044,-0 0.077,0.019 0.098,0.057c0.037,-0.038 0.078,-0.057 0.123,-0.057c0.032,-0 0.058,0.009 0.079,0.027c0.021,0.018 0.031,0.04 0.031,0.066c0,0.017 -0.003,0.034 -0.01,0.052l-0.053,0.129Z" style="fill-rule:nonzero;"/></g></g><g transform="matrix(0.289089,-0.957302,0.957302,0.289089,-132.716,371.719)"><g transform="matrix(45.3333,0,0,45.3333,183.918,275.216)"><path d="M0.163,-0.143c0,0.024 0.018,0.037 0.055,0.037l0.145,-0c0.041,-0 0.062,0.014 0.062,0.043c-0,0.02 -0.007,0.035 -0.022,0.046c-0.014,0.011 -0.035,0.017 -0.061,0.017l-0.138,-0c-0.051,-0 -0.09,-0.013 -0.117,-0.038c-0.027,-0.025 -0.041,-0.063 -0.041,-0.111c0,-0.063 0.022,-0.117 0.064,-0.163c0.043,-0.046 0.093,-0.068 0.152,-0.068c0.042,-0 0.077,0.011 0.103,0.033c0.025,0.022 0.038,0.052 0.038,0.088c0,0.044 -0.018,0.077 -0.053,0.098c-0.02,0.012 -0.05,0.018 -0.089,0.018l-0.098,-0Zm0.024,-0.089l0.053,0c0.035,0 0.052,-0.008 0.051,-0.023c-0.001,-0.017 -0.012,-0.026 -0.034,-0.026c-0.03,0 -0.053,0.017 -0.07,0.049Z" style="fill-rule:nonzero;"/></g></g><g transform="matrix(0.64687,-0.762601,0.762601,0.64687,-101.219,235.32)"><g transform="matrix(45.3333,0,0,45.3333,203.482,226.954)"><path d="M0.474,-0.333l0.045,0.056l0.026,0.031c0.05,0.062 0.075,0.128 0.075,0.197c0,0.067 -0.022,0.125 -0.066,0.176c-0.061,0.069 -0.14,0.104 -0.238,0.104c-0.076,-0 -0.138,-0.023 -0.187,-0.07c-0.048,-0.047 -0.072,-0.107 -0.072,-0.18c-0,-0.089 0.037,-0.163 0.113,-0.223c0.04,-0.031 0.077,-0.047 0.111,-0.047c0.017,-0 0.032,0.005 0.043,0.015c0.011,0.01 0.016,0.023 0.016,0.039c0,0.022 -0.012,0.04 -0.038,0.056l-0.039,0.024c-0.022,0.014 -0.041,0.033 -0.056,0.058c-0.015,0.025 -0.022,0.05 -0.022,0.075c-0,0.038 0.013,0.07 0.039,0.095c0.026,0.026 0.059,0.038 0.1,0.038c0.044,0 0.083,-0.016 0.116,-0.05c0.033,-0.033 0.049,-0.072 0.049,-0.118c0,-0.028 -0.006,-0.054 -0.02,-0.078c-0.013,-0.023 -0.042,-0.059 -0.086,-0.109c-0.031,-0.034 -0.053,-0.064 -0.067,-0.089l-0.131,-0c-0.045,-0 -0.068,-0.016 -0.068,-0.047c0,-0.022 0.008,-0.04 0.024,-0.052c0.016,-0.012 0.038,-0.018 0.067,-0.018l0.083,-0c0.007,-0.065 0.036,-0.118 0.088,-0.16c0.053,-0.042 0.116,-0.063 0.189,-0.063c0.055,-0 0.1,0.015 0.134,0.045c0.035,0.03 0.052,0.07 0.052,0.118c0,0.064 -0.027,0.113 -0.082,0.147c-0.031,0.02 -0.081,0.03 -0.149,0.03l-0.049,-0Zm-0.058,-0.117l0.117,-0c0.066,-0 0.099,-0.019 0.099,-0.058c-0,-0.015 -0.007,-0.027 -0.02,-0.036c-0.014,-0.009 -0.032,-0.014 -0.054,-0.014c-0.036,0 -0.068,0.011 -0.096,0.033c-0.029,0.022 -0.045,0.047 -0.046,0.075Z" style="fill-rule:nonzero;"/></g></g><g transform="matrix(0.758972,-0.651123,0.651123,0.758972,-78.9533,194.425)"><g transform="matrix(45.3333,0,0,45.3333,223.138,203.857)"><path d="M0.344,-0.207l0.075,0.119c0.01,0.015 0.015,0.027 0.015,0.036c-0,0.015 -0.007,0.029 -0.019,0.041c-0.013,0.012 -0.027,0.018 -0.042,0.018c-0.014,-0 -0.026,-0.007 -0.036,-0.022l-0.006,-0.009l-0.113,-0.169l-0.055,0.135c-0.017,0.043 -0.043,0.065 -0.077,0.065c-0.014,-0 -0.026,-0.004 -0.035,-0.013c-0.01,-0.009 -0.015,-0.019 -0.015,-0.032c0,-0.009 0.003,-0.02 0.008,-0.032l0.005,-0.013l0.209,-0.516l0.006,-0.013c0.015,-0.036 0.039,-0.055 0.071,-0.055c0.014,0 0.026,0.005 0.036,0.014c0.009,0.009 0.014,0.02 0.014,0.033c0,0.01 -0.002,0.021 -0.008,0.034l-0.005,0.013l-0.124,0.306l0.109,-0.081c0.023,-0.017 0.043,-0.026 0.059,-0.026c0.014,0 0.025,0.005 0.034,0.014c0.009,0.008 0.014,0.019 0.014,0.032c-0,0.022 -0.012,0.042 -0.036,0.06l-0.011,0.008l-0.073,0.053Z" style="fill-rule:nonzero;"/></g></g><g transform="matrix(0.826847,-0.562427,0.562427,0.826847,-66.2833,166.944)"><g transform="matrix(45.3333,0,0,45.3333,237.988,191.121)"><path d="M0.182,-0.106l0.055,-0c0.041,-0 0.061,0.014 0.061,0.043c0,0.02 -0.007,0.035 -0.021,0.046c-0.015,0.011 -0.035,0.017 -0.061,0.017l-0.078,-0c-0.028,-0 -0.051,-0.006 -0.067,-0.018c-0.017,-0.011 -0.025,-0.027 -0.025,-0.047c-0,-0.011 0.003,-0.025 0.01,-0.041l0.081,-0.199l0.005,-0.013c0.015,-0.037 0.039,-0.056 0.072,-0.056c0.014,0 0.026,0.005 0.036,0.014c0.01,0.009 0.015,0.02 0.015,0.033c-0,0.01 -0.005,0.026 -0.014,0.048l-0.069,0.173Zm0.064,-0.423c0.019,-0 0.035,0.006 0.048,0.019c0.013,0.014 0.02,0.03 0.02,0.049c-0,0.018 -0.007,0.034 -0.02,0.048c-0.013,0.013 -0.029,0.019 -0.048,0.019c-0.019,0 -0.035,-0.006 -0.048,-0.019c-0.013,-0.014 -0.02,-0.03 -0.02,-0.048c0,-0.019 0.007,-0.035 0.02,-0.049c0.013,-0.013 0.029,-0.019 0.048,-0.019Z" style="fill-rule:nonzero;"/></g></g><g transform="matrix(0.8757,-0.482855,0.482855,0.8757,-58.0269,142.614)"><g transform="matrix(45.3333,0,0,45.3333,247.986,184.013)"><path d="M0.177,-0.106l0.051,-0c0.041,-0 0.062,0.014 0.062,0.043c0,0.02 -0.007,0.035 -0.022,0.046c-0.014,0.011 -0.034,0.017 -0.06,0.017l-0.088,-0c-0.024,-0 -0.044,-0.006 -0.057,-0.017c-0.014,-0.011 -0.021,-0.027 -0.021,-0.046c-0,-0.01 0.004,-0.027 0.014,-0.05l0.197,-0.486l0.005,-0.013c0.015,-0.036 0.039,-0.055 0.072,-0.055c0.014,0 0.025,0.005 0.035,0.014c0.01,0.009 0.014,0.02 0.014,0.033c0,0.01 -0.002,0.021 -0.007,0.033l-0.005,0.013l-0.19,0.468Z" style="fill-rule:nonzero;"/></g></g><g transform="matrix(0.91266,-0.40872,0.40872,0.91266,-50.1571,121.155)"><g transform="matrix(45.3333,0,0,45.3333,258.403,177.936)"><path d="M0.177,-0.106l0.051,-0c0.041,-0 0.062,0.014 0.062,0.043c0,0.02 -0.007,0.035 -0.022,0.046c-0.014,0.011 -0.034,0.017 -0.06,0.017l-0.088,-0c-0.024,-0 -0.044,-0.006 -0.057,-0.017c-0.014,-0.011 -0.021,-0.027 -0.021,-0.046c-0,-0.01 0.004,-0.027 0.014,-0.05l0.197,-0.486l0.005,-0.013c0.015,-0.036 0.039,-0.055 0.072,-0.055c0.014,0 0.025,0.005 0.035,0.014c0.01,0.009 0.014,0.02 0.014,0.033c0,0.01 -0.002,0.021 -0.007,0.033l-0.005,0.013l-0.19,0.468Z" style="fill-rule:nonzero;"/></g></g><g transform="matrix(0.942086,-0.335373,0.335373,0.942086,-42.3511,100.317)"><g transform="matrix(45.3333,0,0,45.3333,269.284,172.783)"><path d="M0.208,-0.24l-0.009,0.022c-0.014,0.032 -0.034,0.049 -0.061,0.049c-0.013,-0 -0.025,-0.005 -0.036,-0.014c-0.01,-0.01 -0.016,-0.02 -0.016,-0.032c0,-0.012 0.005,-0.027 0.015,-0.046l0.065,-0.132c0.015,-0.031 0.035,-0.047 0.059,-0.047c0.013,0 0.024,0.004 0.033,0.013c0.009,0.008 0.013,0.018 0.013,0.029c0,0.003 -0,0.009 -0.002,0.019c-0.002,0.007 -0.002,0.014 -0.002,0.019c-0,0.021 0.007,0.042 0.023,0.063l0.027,0.039c0.029,0.039 0.043,0.077 0.043,0.114c-0,0.041 -0.015,0.075 -0.046,0.103c-0.031,0.027 -0.069,0.041 -0.114,0.041l-0.102,-0c-0.042,-0 -0.062,-0.014 -0.062,-0.043c-0,-0.02 0.007,-0.035 0.022,-0.047c0.014,-0.011 0.034,-0.016 0.06,-0.016l0.057,-0c0.045,-0 0.068,-0.017 0.068,-0.05c-0,-0.012 -0.005,-0.026 -0.013,-0.042l-0.022,-0.042Z" style="fill-rule:nonzero;"/></g></g><g transform="matrix(0.987029,0.160544,-0.160544,0.987029,29.9369,-50.7769)"><g transform="matrix(45.3333,0,0,45.3333,329.197,159.873)"><path d="M0.65,-0.333l-0.081,0.2c-0.041,0.099 -0.072,0.167 -0.094,0.204c-0.022,0.038 -0.049,0.07 -0.083,0.096c-0.049,0.038 -0.105,0.058 -0.17,0.058c-0.068,-0 -0.123,-0.022 -0.165,-0.065c-0.043,-0.043 -0.064,-0.099 -0.064,-0.167c0,-0.092 0.034,-0.172 0.101,-0.241c0.036,-0.037 0.081,-0.067 0.135,-0.09c0.055,-0.022 0.109,-0.034 0.162,-0.034c0.026,0 0.046,0.006 0.062,0.018c0.016,0.011 0.024,0.027 0.024,0.045c-0,0.02 -0.009,0.036 -0.026,0.048c-0.01,0.007 -0.028,0.012 -0.056,0.015c-0.064,0.006 -0.117,0.021 -0.157,0.044c-0.033,0.02 -0.059,0.046 -0.078,0.078c-0.02,0.032 -0.029,0.066 -0.029,0.102c-0,0.036 0.009,0.064 0.028,0.086c0.019,0.021 0.044,0.032 0.075,0.032c0.04,-0 0.074,-0.017 0.103,-0.051c0.029,-0.033 0.061,-0.093 0.096,-0.178l0.17,-0.417l-0.054,0c-0.045,0 -0.067,-0.015 -0.067,-0.047c-0,-0.022 0.008,-0.039 0.024,-0.051c0.015,-0.012 0.038,-0.019 0.066,-0.019l0.186,0c0.063,0 0.109,0.012 0.139,0.036c0.03,0.023 0.044,0.06 0.044,0.109c0,0.06 -0.023,0.109 -0.069,0.147c-0.033,0.028 -0.085,0.042 -0.155,0.042l-0.067,-0Zm0.047,-0.117l0.04,-0c0.052,-0 0.078,-0.021 0.078,-0.064c-0,-0.024 -0.015,-0.036 -0.044,-0.036l-0.033,0l-0.041,0.1Z" style="fill-rule:nonzero;"/></g></g><g transform="matrix(0.941307,0.337551,-0.337551,0.941307,77.5797,-113.651)"><g transform="matrix(45.3333,0,0,45.3333,365.602,166.261)"><path d="M0.168,-0.267l-0.017,0.041c-0.015,0.037 -0.034,0.055 -0.058,0.055c-0.015,0 -0.027,-0.004 -0.037,-0.013c-0.01,-0.009 -0.014,-0.02 -0.014,-0.033c-0,-0.007 0.003,-0.02 0.01,-0.038l0.055,-0.136c0.014,-0.033 0.033,-0.049 0.057,-0.049c0.024,-0 0.039,0.011 0.044,0.034l0.004,0.015c0.002,0.008 0.005,0.013 0.009,0.015c0.004,0.001 0.014,0.002 0.029,0.002l0.114,0c0.043,0 0.064,0.015 0.064,0.045c0,0.042 -0.027,0.062 -0.081,0.062l-0.005,0.005c-0.052,0.05 -0.078,0.088 -0.078,0.115c0,0.027 0.015,0.041 0.045,0.041l0.062,-0c0.041,-0 0.062,0.014 0.062,0.043c-0,0.02 -0.008,0.035 -0.022,0.046c-0.015,0.011 -0.035,0.017 -0.061,0.017l-0.096,-0c-0.032,-0 -0.059,-0.011 -0.079,-0.034c-0.021,-0.022 -0.031,-0.051 -0.031,-0.087c-0,-0.023 0.005,-0.045 0.016,-0.066c0.011,-0.022 0.031,-0.048 0.059,-0.08l-0.051,0Z" style="fill-rule:nonzero;"/></g></g><g transform="matrix(0.890281,0.455412,-0.455412,0.890281,120.51,-155.559)"><g transform="matrix(45.3333,0,0,45.3333,383.095,172.321)"><path d="M0.272,-0.38c0.047,-0 0.086,0.015 0.116,0.045c0.031,0.029 0.046,0.068 0.046,0.114c0,0.035 -0.008,0.069 -0.024,0.104c-0.016,0.034 -0.036,0.061 -0.062,0.082c-0.017,0.013 -0.034,0.022 -0.052,0.027c-0.018,0.005 -0.044,0.008 -0.076,0.008c-0.053,0 -0.089,-0.006 -0.108,-0.019c-0.043,-0.03 -0.065,-0.074 -0.065,-0.133c-0,-0.062 0.022,-0.115 0.067,-0.16c0.044,-0.046 0.097,-0.068 0.158,-0.068Zm-0.012,0.104c-0.024,-0 -0.046,0.012 -0.066,0.035c-0.02,0.024 -0.029,0.05 -0.029,0.079c-0,0.038 0.021,0.057 0.063,0.057c0.025,-0 0.044,-0.008 0.057,-0.023c0.022,-0.025 0.033,-0.054 0.033,-0.086c0,-0.019 -0.005,-0.034 -0.016,-0.045c-0.01,-0.012 -0.024,-0.017 -0.042,-0.017Z" style="fill-rule:nonzero;"/></g></g><g transform="matrix(0.856068,0.516863,-0.516863,0.856068,151.093,-180.53)"><g transform="matrix(45.3333,0,0,45.3333,399.691,181.025)"><path d="M0.19,0.02l0.054,0c0.041,0 0.062,0.015 0.062,0.043c-0,0.02 -0.008,0.035 -0.022,0.047c-0.015,0.011 -0.035,0.016 -0.061,0.016l-0.076,0l-0.035,0.07l-0.014,0.029c-0.045,0.09 -0.109,0.135 -0.193,0.135c-0.051,-0 -0.093,-0.016 -0.127,-0.046c-0.034,-0.031 -0.051,-0.069 -0.051,-0.115c-0,-0.027 0.006,-0.054 0.02,-0.08c0.013,-0.025 0.031,-0.046 0.052,-0.061c0.036,-0.025 0.091,-0.038 0.165,-0.038l0.101,0l0.111,-0.273l-0.052,-0c-0.042,-0 -0.062,-0.015 -0.062,-0.044c-0,-0.02 0.007,-0.035 0.021,-0.046c0.015,-0.011 0.035,-0.017 0.062,-0.017l0.116,0c0.04,0 0.059,0.017 0.059,0.049c0,0.013 -0.003,0.028 -0.01,0.044l-0.12,0.287Zm-0.168,0.106l-0.068,0c-0.075,0 -0.112,0.025 -0.112,0.073c-0,0.015 0.005,0.028 0.015,0.038c0.011,0.01 0.024,0.015 0.041,0.015c0.024,-0 0.045,-0.009 0.063,-0.028c0.019,-0.018 0.039,-0.051 0.061,-0.098Zm0.29,-0.655c0.018,-0 0.034,0.006 0.048,0.019c0.013,0.014 0.019,0.03 0.019,0.049c0,0.018 -0.006,0.034 -0.019,0.048c-0.014,0.013 -0.03,0.019 -0.048,0.019c-0.019,0 -0.035,-0.006 -0.049,-0.019c-0.013,-0.014 -0.019,-0.03 -0.019,-0.048c-0,-0.019 0.006,-0.035 0.019,-0.049c0.014,-0.013 0.03,-0.019 0.049,-0.019Z" style="fill-rule:nonzero;"/></g></g><g transform="matrix(0.77074,0.63715,-0.63715,0.77074,214.001,-218.851)"><g transform="matrix(45.3333,0,0,45.3333,411.112,187.946)"><path d="M0.163,-0.143c0,0.024 0.018,0.037 0.055,0.037l0.145,-0c0.041,-0 0.062,0.014 0.062,0.043c-0,0.02 -0.007,0.035 -0.022,0.046c-0.014,0.011 -0.035,0.017 -0.061,0.017l-0.138,-0c-0.051,-0 -0.09,-0.013 -0.117,-0.038c-0.027,-0.025 -0.041,-0.063 -0.041,-0.111c0,-0.063 0.022,-0.117 0.064,-0.163c0.043,-0.046 0.093,-0.068 0.152,-0.068c0.042,-0 0.077,0.011 0.103,0.033c0.025,0.022 0.038,0.052 0.038,0.088c0,0.044 -0.018,0.077 -0.053,0.098c-0.02,0.012 -0.05,0.018 -0.089,0.018l-0.098,-0Zm0.024,-0.089l0.053,0c0.035,0 0.052,-0.008 0.051,-0.023c-0.001,-0.017 -0.012,-0.026 -0.034,-0.026c-0.03,0 -0.053,0.017 -0.07,0.049Z" style="fill-rule:nonzero;"/></g></g><g transform="matrix(0.688715,0.725032,-0.725032,0.688715,276.857,-246.2)"><g transform="matrix(45.3333,0,0,45.3333,425.148,199.321)"><path d="M0.326,-0l-0.142,-0c-0.041,-0 -0.074,-0.014 -0.099,-0.043c-0.026,-0.029 -0.039,-0.066 -0.039,-0.111c0,-0.061 0.021,-0.114 0.063,-0.159c0.042,-0.045 0.092,-0.067 0.148,-0.067c0.039,-0 0.07,0.01 0.094,0.032c0.024,0.021 0.036,0.049 0.036,0.084c0,0.024 -0.006,0.044 -0.018,0.059c-0.012,0.016 -0.027,0.023 -0.046,0.023c-0.03,0 -0.045,-0.014 -0.045,-0.042l-0,-0.01c0,-0.004 0,-0.007 0,-0.011c0,-0.022 -0.011,-0.034 -0.033,-0.034c-0.022,0 -0.041,0.011 -0.058,0.034c-0.018,0.022 -0.026,0.047 -0.026,0.075c-0,0.023 0.007,0.04 0.021,0.049c0.014,0.01 0.038,0.015 0.072,0.015l0.092,-0c0.042,-0 0.062,0.014 0.062,0.043c0,0.02 -0.007,0.035 -0.022,0.046c-0.015,0.011 -0.035,0.017 -0.06,0.017Z" style="fill-rule:nonzero;"/></g></g><g transform="matrix(0.603781,0.797151,-0.797151,0.603781,341.965,-264.562)"><g transform="matrix(45.3333,0,0,45.3333,437.117,211.717)"><path d="M0.29,-0.374l0.015,0c0.042,0 0.062,0.015 0.062,0.044c0,0.02 -0.007,0.035 -0.022,0.046c-0.014,0.011 -0.035,0.017 -0.06,0.017l-0.036,-0l-0.065,0.161l0.054,-0c0.042,-0 0.062,0.014 0.062,0.043c0,0.02 -0.007,0.035 -0.021,0.046c-0.015,0.011 -0.035,0.017 -0.061,0.017l-0.088,-0c-0.024,-0 -0.044,-0.006 -0.058,-0.017c-0.015,-0.011 -0.022,-0.027 -0.022,-0.046c-0,-0.013 0.003,-0.026 0.009,-0.041l0.009,-0.021l0.057,-0.142l-0.007,-0c-0.036,-0 -0.055,-0.014 -0.055,-0.043c0,-0.02 0.008,-0.035 0.022,-0.047c0.015,-0.011 0.035,-0.017 0.061,-0.017l0.022,0l0.026,-0.064l0.006,-0.013c0.015,-0.036 0.039,-0.054 0.072,-0.054c0.013,0 0.025,0.005 0.034,0.014c0.01,0.008 0.015,0.019 0.015,0.032c-0,0.012 -0.004,0.028 -0.013,0.047l-0.018,0.038Z" style="fill-rule:nonzero;"/></g></g><g transform="matrix(0.529699,0.848186,-0.848186,0.529699,398.241,-273.267)"><g transform="matrix(45.3333,0,0,45.3333,445.538,222.48)"><path d="M0.208,-0.24l-0.009,0.022c-0.014,0.032 -0.034,0.049 -0.061,0.049c-0.013,-0 -0.025,-0.005 -0.036,-0.014c-0.01,-0.01 -0.016,-0.02 -0.016,-0.032c0,-0.012 0.005,-0.027 0.015,-0.046l0.065,-0.132c0.015,-0.031 0.035,-0.047 0.059,-0.047c0.013,0 0.024,0.004 0.033,0.013c0.009,0.008 0.013,0.018 0.013,0.029c0,0.003 -0,0.009 -0.002,0.019c-0.002,0.007 -0.002,0.014 -0.002,0.019c-0,0.021 0.007,0.042 0.023,0.063l0.027,0.039c0.029,0.039 0.043,0.077 0.043,0.114c-0,0.041 -0.015,0.075 -0.046,0.103c-0.031,0.027 -0.069,0.041 -0.114,0.041l-0.102,-0c-0.042,-0 -0.062,-0.014 -0.062,-0.043c-0,-0.02 0.007,-0.035 0.022,-0.047c0.014,-0.011 0.034,-0.016 0.06,-0.016l0.057,-0c0.045,-0 0.068,-0.017 0.068,-0.05c-0,-0.012 -0.005,-0.026 -0.013,-0.042l-0.022,-0.042Z" style="fill-rule:nonzero;"/></g></g><g transform="matrix(0.0755762,0.99714,-0.99714,0.0755762,712.417,-212.018)"><g transform="matrix(45.3333,0,0,45.3333,470.556,278.219)"><path d="M0.596,-0.343l-0.146,0.36l0.338,-0c0.045,-0 0.068,0.015 0.068,0.046c-0,0.023 -0.008,0.04 -0.024,0.052c-0.016,0.012 -0.038,0.018 -0.066,0.018l-0.364,0l-0.006,0.014c-0.022,0.051 -0.04,0.086 -0.053,0.107c-0.013,0.02 -0.03,0.04 -0.051,0.059c-0.054,0.05 -0.117,0.075 -0.188,0.075c-0.057,0 -0.104,-0.017 -0.141,-0.051c-0.038,-0.034 -0.056,-0.078 -0.056,-0.13c-0,-0.033 0.008,-0.064 0.024,-0.093c0.016,-0.028 0.037,-0.051 0.065,-0.067c0.035,-0.02 0.083,-0.03 0.144,-0.03l0.172,-0l0.146,-0.36l-0.071,-0c-0.037,-0 -0.055,-0.016 -0.055,-0.049c0,-0.021 0.008,-0.037 0.024,-0.05c0.016,-0.012 0.038,-0.018 0.066,-0.018l0.084,0l0.022,-0.055c0.043,-0.106 0.108,-0.158 0.196,-0.158c0.044,-0 0.081,0.014 0.111,0.042c0.03,0.028 0.044,0.063 0.044,0.106c0,0.054 -0.021,0.098 -0.064,0.131c-0.043,0.034 -0.099,0.051 -0.168,0.051l-0.051,-0Zm0.048,-0.117l0.022,0c0.024,0 0.045,-0.006 0.063,-0.018c0.017,-0.012 0.026,-0.027 0.026,-0.045c-0,-0.026 -0.012,-0.039 -0.037,-0.039c-0.022,-0 -0.042,0.023 -0.061,0.068l-0.013,0.034Zm-0.379,0.593l-0.129,0c-0.064,0 -0.095,0.023 -0.095,0.068c-0,0.019 0.007,0.034 0.021,0.047c0.014,0.012 0.031,0.019 0.052,0.019c0.029,-0 0.057,-0.012 0.084,-0.036c0.027,-0.024 0.049,-0.057 0.067,-0.098Z" style="fill-rule:nonzero;"/></g></g><g transform="matrix(-0.107448,0.994211,-0.994211,-0.107448,833.926,-123.996)"><g transform="matrix(45.3333,0,0,45.3333,472.622,312.33)"><path d="M0.163,-0.143c0,0.024 0.018,0.037 0.055,0.037l0.145,-0c0.041,-0 0.062,0.014 0.062,0.043c-0,0.02 -0.007,0.035 -0.022,0.046c-0.014,0.011 -0.035,0.017 -0.061,0.017l-0.138,-0c-0.051,-0 -0.09,-0.013 -0.117,-0.038c-0.027,-0.025 -0.041,-0.063 -0.041,-0.111c0,-0.063 0.022,-0.117 0.064,-0.163c0.043,-0.046 0.093,-0.068 0.152,-0.068c0.042,-0 0.077,0.011 0.103,0.033c0.025,0.022 0.038,0.052 0.038,0.088c0,0.044 -0.018,0.077 -0.053,0.098c-0.02,0.012 -0.05,0.018 -0.089,0.018l-0.098,-0Zm0.024,-0.089l0.053,0c0.035,0 0.052,-0.008 0.051,-0.023c-0.001,-0.017 -0.012,-0.026 -0.034,-0.026c-0.03,0 -0.053,0.017 -0.07,0.049Z" style="fill-rule:nonzero;"/></g></g><g transform="matrix(-0.240335,0.97069,-0.97069,-0.240335,904.859,-47.4838)"><g transform="matrix(45.3333,0,0,45.3333,471.01,330.331)"><path d="M0.379,-0.106l0.054,-0c0.041,-0 0.062,0.014 0.062,0.043c-0,0.019 -0.008,0.035 -0.022,0.046c-0.015,0.011 -0.035,0.017 -0.061,0.017l-0.062,-0c-0.028,-0 -0.047,-0.011 -0.058,-0.033c-0.024,0.022 -0.048,0.033 -0.07,0.033l-0.056,-0c-0.036,-0 -0.065,-0.013 -0.087,-0.038c-0.022,-0.026 -0.033,-0.059 -0.033,-0.101c0,-0.062 0.022,-0.118 0.065,-0.167c0.043,-0.05 0.092,-0.074 0.146,-0.074c0.042,-0 0.072,0.014 0.092,0.043c0.016,-0.024 0.037,-0.037 0.064,-0.037c0.014,0 0.026,0.005 0.035,0.014c0.01,0.009 0.015,0.02 0.015,0.034c-0,0.009 -0.003,0.02 -0.008,0.033l-0.005,0.013l-0.071,0.174Zm-0.177,0.002l0.012,-0c0.027,-0 0.045,-0.011 0.054,-0.033l0.034,-0.084c0.004,-0.011 0.007,-0.021 0.007,-0.028c-0,-0.009 -0.005,-0.016 -0.013,-0.023c-0.009,-0.006 -0.019,-0.01 -0.031,-0.01c-0.024,0 -0.047,0.014 -0.07,0.042c-0.022,0.027 -0.033,0.056 -0.033,0.086c-0,0.033 0.013,0.05 0.04,0.05Z" style="fill-rule:nonzero;"/></g></g><g transform="matrix(-0.369573,0.929202,-0.929202,-0.369573,964.36,47.5927)"><g transform="matrix(45.3333,0,0,45.3333,466.035,350.936)"><path d="M0.168,-0.267l-0.017,0.041c-0.015,0.037 -0.034,0.055 -0.058,0.055c-0.015,0 -0.027,-0.004 -0.037,-0.013c-0.01,-0.009 -0.014,-0.02 -0.014,-0.033c-0,-0.007 0.003,-0.02 0.01,-0.038l0.055,-0.136c0.014,-0.033 0.033,-0.049 0.057,-0.049c0.024,-0 0.039,0.011 0.044,0.034l0.004,0.015c0.002,0.008 0.005,0.013 0.009,0.015c0.004,0.001 0.014,0.002 0.029,0.002l0.114,0c0.043,0 0.064,0.015 0.064,0.045c0,0.042 -0.027,0.062 -0.081,0.062l-0.005,0.005c-0.052,0.05 -0.078,0.088 -0.078,0.115c0,0.027 0.015,0.041 0.045,0.041l0.062,-0c0.041,-0 0.062,0.014 0.062,0.043c-0,0.02 -0.008,0.035 -0.022,0.046c-0.015,0.011 -0.035,0.017 -0.061,0.017l-0.096,-0c-0.032,-0 -0.059,-0.011 -0.079,-0.034c-0.021,-0.022 -0.031,-0.051 -0.031,-0.087c-0,-0.023 0.005,-0.045 0.016,-0.066c0.011,-0.022 0.031,-0.048 0.059,-0.08l-0.051,0Z" style="fill-rule:nonzero;"/></g></g><g transform="matrix(-0.496698,0.867924,-0.867924,-0.496698,1007.4,152.367)"><g transform="matrix(45.3333,0,0,45.3333,459.52,368.274)"><path d="M0.408,-0.106l0.058,-0c0.042,-0 0.062,0.014 0.062,0.043c0,0.02 -0.007,0.035 -0.022,0.046c-0.014,0.011 -0.034,0.017 -0.06,0.017l-0.102,-0c-0.02,-0 -0.037,-0.006 -0.05,-0.018c-0.014,-0.012 -0.021,-0.027 -0.021,-0.045c0,-0.012 0.005,-0.028 0.014,-0.05l0.043,-0.107c0.005,-0.011 0.007,-0.02 0.007,-0.027c0.001,-0.007 -0.002,-0.014 -0.009,-0.02c-0.007,-0.005 -0.015,-0.008 -0.026,-0.008c-0.033,0 -0.06,0.025 -0.081,0.076l-0.057,0.141c-0.018,0.043 -0.043,0.065 -0.078,0.065c-0.014,-0 -0.025,-0.004 -0.035,-0.013c-0.01,-0.008 -0.015,-0.019 -0.015,-0.031c0,-0.009 0.003,-0.02 0.008,-0.033l0.005,-0.013l0.099,-0.243c0.013,-0.032 0.034,-0.048 0.065,-0.048c0.025,0 0.043,0.012 0.054,0.034c0.034,-0.027 0.068,-0.04 0.099,-0.04c0.031,-0 0.056,0.008 0.076,0.026c0.02,0.018 0.03,0.04 0.03,0.067c-0,0.015 -0.004,0.031 -0.011,0.049l-0.053,0.132Z" style="fill-rule:nonzero;"/></g></g><g transform="matrix(-0.600199,0.799851,-0.799851,-0.600199,1027.39,262.41)"><g transform="matrix(45.3333,0,0,45.3333,448.115,387.974)"><path d="M0.182,-0.106l0.055,-0c0.041,-0 0.061,0.014 0.061,0.043c0,0.02 -0.007,0.035 -0.021,0.046c-0.015,0.011 -0.035,0.017 -0.061,0.017l-0.078,-0c-0.028,-0 -0.051,-0.006 -0.067,-0.018c-0.017,-0.011 -0.025,-0.027 -0.025,-0.047c-0,-0.011 0.003,-0.025 0.01,-0.041l0.081,-0.199l0.005,-0.013c0.015,-0.037 0.039,-0.056 0.072,-0.056c0.014,0 0.026,0.005 0.036,0.014c0.01,0.009 0.015,0.02 0.015,0.033c-0,0.01 -0.005,0.026 -0.014,0.048l-0.069,0.173Zm0.064,-0.423c0.019,-0 0.035,0.006 0.048,0.019c0.013,0.014 0.02,0.03 0.02,0.049c-0,0.018 -0.007,0.034 -0.02,0.048c-0.013,0.013 -0.029,0.019 -0.048,0.019c-0.019,0 -0.035,-0.006 -0.048,-0.019c-0.013,-0.014 -0.02,-0.03 -0.02,-0.048c0,-0.019 0.007,-0.035 0.02,-0.049c0.013,-0.013 0.029,-0.019 0.048,-0.019Z" style="fill-rule:nonzero;"/></g></g><g transform="matrix(-0.688175,0.725545,-0.725545,-0.688175,1033.55,352.041)"><g transform="matrix(45.3333,0,0,45.3333,441.124,398.12)"><path d="M0.408,-0.106l0.058,-0c0.042,-0 0.062,0.014 0.062,0.043c0,0.02 -0.007,0.035 -0.022,0.046c-0.014,0.011 -0.034,0.017 -0.06,0.017l-0.102,-0c-0.02,-0 -0.037,-0.006 -0.05,-0.018c-0.014,-0.012 -0.021,-0.027 -0.021,-0.045c0,-0.012 0.005,-0.028 0.014,-0.05l0.043,-0.107c0.005,-0.011 0.007,-0.02 0.007,-0.027c0.001,-0.007 -0.002,-0.014 -0.009,-0.02c-0.007,-0.005 -0.015,-0.008 -0.026,-0.008c-0.033,0 -0.06,0.025 -0.081,0.076l-0.057,0.141c-0.018,0.043 -0.043,0.065 -0.078,0.065c-0.014,-0 -0.025,-0.004 -0.035,-0.013c-0.01,-0.008 -0.015,-0.019 -0.015,-0.031c0,-0.009 0.003,-0.02 0.008,-0.033l0.005,-0.013l0.099,-0.243c0.013,-0.032 0.034,-0.048 0.065,-0.048c0.025,0 0.043,0.012 0.054,0.034c0.034,-0.027 0.068,-0.04 0.099,-0.04c0.031,-0 0.056,0.008 0.076,0.026c0.02,0.018 0.03,0.04 0.03,0.067c-0,0.015 -0.004,0.031 -0.011,0.049l-0.053,0.132Z" style="fill-rule:nonzero;"/></g></g><g transform="matrix(-0.770502,0.637438,-0.637438,-0.770502,1017.42,462.699)"><g transform="matrix(45.3333,0,0,45.3333,425.415,414.501)"><path d="M0.333,0.014l0.059,-0c0.041,-0 0.062,0.014 0.062,0.043c0,0.019 -0.007,0.035 -0.022,0.046c-0.015,0.012 -0.035,0.017 -0.06,0.017l-0.081,0l-0.021,0.05c-0.05,0.122 -0.123,0.184 -0.218,0.184c-0.05,-0 -0.092,-0.016 -0.125,-0.047c-0.034,-0.031 -0.051,-0.07 -0.051,-0.116c0,-0.03 0.009,-0.059 0.025,-0.085c0.016,-0.027 0.038,-0.048 0.066,-0.064c0.034,-0.019 0.081,-0.028 0.139,-0.028l0.105,-0l0.015,-0.038c-0.02,0.012 -0.04,0.018 -0.058,0.018c-0.035,0 -0.063,-0.012 -0.085,-0.036c-0.021,-0.024 -0.032,-0.055 -0.032,-0.094c-0,-0.063 0.022,-0.119 0.066,-0.169c0.044,-0.05 0.093,-0.075 0.148,-0.075c0.04,-0 0.07,0.013 0.089,0.039c0.016,-0.026 0.037,-0.039 0.065,-0.039c0.014,-0 0.026,0.004 0.035,0.013c0.01,0.009 0.015,0.02 0.015,0.033c-0,0.01 -0.004,0.025 -0.013,0.046l-0.123,0.302Zm-0.063,-0.147l0.04,-0.096c0.003,-0.009 0.004,-0.015 0.004,-0.021c0,-0.009 -0.004,-0.017 -0.012,-0.024c-0.009,-0.006 -0.02,-0.01 -0.033,-0.01c-0.023,0 -0.046,0.014 -0.067,0.041c-0.021,0.026 -0.032,0.055 -0.032,0.085c-0,0.034 0.016,0.051 0.048,0.051c0.027,0 0.045,-0.009 0.052,-0.026Zm-0.103,0.253l-0.084,0c-0.029,0 -0.052,0.006 -0.068,0.019c-0.016,0.012 -0.024,0.029 -0.024,0.052c-0,0.015 0.005,0.028 0.016,0.039c0.011,0.011 0.025,0.016 0.041,0.016c0.024,0 0.044,-0.009 0.062,-0.028c0.017,-0.018 0.037,-0.051 0.057,-0.098Z" style="fill-rule:nonzero;"/></g></g><g transform="matrix(-0.967617,0.252423,-0.252423,-0.967617,860.265,777.216)"><g transform="matrix(45.3333,0,0,45.3333,380.279,443.789)"><path d="M0.294,-0.333c-0.044,0.078 -0.066,0.15 -0.066,0.217c0,0.047 0.011,0.081 0.032,0.102c0.022,0.02 0.058,0.031 0.109,0.031l0.271,-0c0.045,-0 0.068,0.015 0.068,0.046c-0,0.022 -0.008,0.039 -0.024,0.052c-0.016,0.012 -0.038,0.018 -0.067,0.018l-0.283,0c-0.047,0 -0.085,-0.006 -0.113,-0.019c-0.04,-0.018 -0.071,-0.047 -0.093,-0.084c-0.023,-0.038 -0.034,-0.082 -0.034,-0.13c0,-0.065 0.02,-0.143 0.06,-0.233l-0.04,-0c-0.037,-0 -0.055,-0.016 -0.055,-0.047c0,-0.02 0.008,-0.036 0.023,-0.05c0.015,-0.013 0.033,-0.02 0.054,-0.02l0.084,-0c0.03,-0.049 0.069,-0.096 0.118,-0.141c0.064,-0.057 0.132,-0.086 0.205,-0.086c0.048,0 0.088,0.015 0.12,0.045c0.031,0.029 0.047,0.067 0.047,0.113c-0,0.065 -0.03,0.116 -0.091,0.15c-0.042,0.024 -0.107,0.036 -0.198,0.036l-0.127,-0Zm0.073,-0.117l0.094,-0c0.081,-0 0.122,-0.022 0.122,-0.065c0,-0.014 -0.005,-0.025 -0.016,-0.034c-0.01,-0.008 -0.024,-0.013 -0.04,-0.013c-0.025,0 -0.052,0.011 -0.081,0.031c-0.029,0.02 -0.056,0.047 -0.079,0.081Z" style="fill-rule:nonzero;"/></g></g><g transform="matrix(-0.992775,0.119994,-0.119994,-0.992775,761.556,855.199)"><g transform="matrix(45.3333,0,0,45.3333,355.03,450.528)"><path d="M0.272,-0.38c0.047,-0 0.086,0.015 0.116,0.045c0.031,0.029 0.046,0.068 0.046,0.114c0,0.035 -0.008,0.069 -0.024,0.104c-0.016,0.034 -0.036,0.061 -0.062,0.082c-0.017,0.013 -0.034,0.022 -0.052,0.027c-0.018,0.005 -0.044,0.008 -0.076,0.008c-0.053,0 -0.089,-0.006 -0.108,-0.019c-0.043,-0.03 -0.065,-0.074 -0.065,-0.133c-0,-0.062 0.022,-0.115 0.067,-0.16c0.044,-0.046 0.097,-0.068 0.158,-0.068Zm-0.012,0.104c-0.024,-0 -0.046,0.012 -0.066,0.035c-0.02,0.024 -0.029,0.05 -0.029,0.079c-0,0.038 0.021,0.057 0.063,0.057c0.025,-0 0.044,-0.008 0.057,-0.023c0.022,-0.025 0.033,-0.054 0.033,-0.086c0,-0.019 -0.005,-0.034 -0.016,-0.045c-0.01,-0.012 -0.024,-0.017 -0.042,-0.017Z" style="fill-rule:nonzero;"/></g></g><g transform="matrix(-0.999804,-0.0198172,0.0198172,-0.999804,663.792,912.816)"><g transform="matrix(45.3333,0,0,45.3333,336.419,453.119)"><path d="M0.408,-0.106l0.058,-0c0.042,-0 0.062,0.014 0.062,0.043c0,0.02 -0.007,0.035 -0.022,0.046c-0.014,0.011 -0.034,0.017 -0.06,0.017l-0.102,-0c-0.02,-0 -0.037,-0.006 -0.05,-0.018c-0.014,-0.012 -0.021,-0.027 -0.021,-0.045c0,-0.012 0.005,-0.028 0.014,-0.05l0.043,-0.107c0.005,-0.011 0.007,-0.02 0.007,-0.027c0.001,-0.007 -0.002,-0.014 -0.009,-0.02c-0.007,-0.005 -0.015,-0.008 -0.026,-0.008c-0.033,0 -0.06,0.025 -0.081,0.076l-0.057,0.141c-0.018,0.043 -0.043,0.065 -0.078,0.065c-0.014,-0 -0.025,-0.004 -0.035,-0.013c-0.01,-0.008 -0.015,-0.019 -0.015,-0.031c0,-0.009 0.003,-0.02 0.008,-0.033l0.005,-0.013l0.099,-0.243c0.013,-0.032 0.034,-0.048 0.065,-0.048c0.025,0 0.043,0.012 0.054,0.034c0.034,-0.027 0.068,-0.04 0.099,-0.04c0.031,-0 0.056,0.008 0.076,0.026c0.02,0.018 0.03,0.04 0.03,0.067c-0,0.015 -0.004,0.031 -0.011,0.049l-0.053,0.132Z" style="fill-rule:nonzero;"/></g></g><g transform="matrix(-0.9885,-0.15122,0.15122,-0.9885,555.392,947.522)"><g transform="matrix(45.3333,0,0,45.3333,313.724,452.643)"><path d="M0.29,-0.374l0.015,0c0.042,0 0.062,0.015 0.062,0.044c0,0.02 -0.007,0.035 -0.022,0.046c-0.014,0.011 -0.035,0.017 -0.06,0.017l-0.036,-0l-0.065,0.161l0.054,-0c0.042,-0 0.062,0.014 0.062,0.043c0,0.02 -0.007,0.035 -0.021,0.046c-0.015,0.011 -0.035,0.017 -0.061,0.017l-0.088,-0c-0.024,-0 -0.044,-0.006 -0.058,-0.017c-0.015,-0.011 -0.022,-0.027 -0.022,-0.046c-0,-0.013 0.003,-0.026 0.009,-0.041l0.009,-0.021l0.057,-0.142l-0.007,-0c-0.036,-0 -0.055,-0.014 -0.055,-0.043c0,-0.02 0.008,-0.035 0.022,-0.047c0.015,-0.011 0.035,-0.017 0.061,-0.017l0.022,0l0.026,-0.064l0.006,-0.013c0.015,-0.036 0.039,-0.054 0.072,-0.054c0.013,0 0.025,0.005 0.034,0.014c0.01,0.008 0.015,0.019 0.015,0.032c-0,0.012 -0.004,0.028 -0.013,0.047l-0.018,0.038Z" style="fill-rule:nonzero;"/></g></g><g transform="matrix(-0.96491,-0.26258,0.26258,-0.96491,471.213,965.006)"><g transform="matrix(45.3333,0,0,45.3333,300.085,451.018)"><path d="M0.379,-0.106l0.054,-0c0.041,-0 0.062,0.014 0.062,0.043c-0,0.019 -0.008,0.035 -0.022,0.046c-0.015,0.011 -0.035,0.017 -0.061,0.017l-0.062,-0c-0.028,-0 -0.047,-0.011 -0.058,-0.033c-0.024,0.022 -0.048,0.033 -0.07,0.033l-0.056,-0c-0.036,-0 -0.065,-0.013 -0.087,-0.038c-0.022,-0.026 -0.033,-0.059 -0.033,-0.101c0,-0.062 0.022,-0.118 0.065,-0.167c0.043,-0.05 0.092,-0.074 0.146,-0.074c0.042,-0 0.072,0.014 0.092,0.043c0.016,-0.024 0.037,-0.037 0.064,-0.037c0.014,0 0.026,0.005 0.035,0.014c0.01,0.009 0.015,0.02 0.015,0.034c-0,0.009 -0.003,0.02 -0.008,0.033l-0.005,0.013l-0.071,0.174Zm-0.177,0.002l0.012,-0c0.027,-0 0.045,-0.011 0.054,-0.033l0.034,-0.084c0.004,-0.011 0.007,-0.021 0.007,-0.028c-0,-0.009 -0.005,-0.016 -0.013,-0.023c-0.009,-0.006 -0.019,-0.01 -0.031,-0.01c-0.024,0 -0.047,0.014 -0.07,0.042c-0.022,0.027 -0.033,0.056 -0.033,0.086c-0,0.033 0.013,0.05 0.04,0.05Z" style="fill-rule:nonzero;"/></g></g><g transform="matrix(-0.921649,-0.388025,0.388025,-0.921649,364.424,964.663)"><g transform="matrix(45.3333,0,0,45.3333,279.606,445.539)"><path d="M0.326,-0l-0.142,-0c-0.041,-0 -0.074,-0.014 -0.099,-0.043c-0.026,-0.029 -0.039,-0.066 -0.039,-0.111c0,-0.061 0.021,-0.114 0.063,-0.159c0.042,-0.045 0.092,-0.067 0.148,-0.067c0.039,-0 0.07,0.01 0.094,0.032c0.024,0.021 0.036,0.049 0.036,0.084c0,0.024 -0.006,0.044 -0.018,0.059c-0.012,0.016 -0.027,0.023 -0.046,0.023c-0.03,0 -0.045,-0.014 -0.045,-0.042l-0,-0.01c0,-0.004 0,-0.007 0,-0.011c0,-0.022 -0.011,-0.034 -0.033,-0.034c-0.022,0 -0.041,0.011 -0.058,0.034c-0.018,0.022 -0.026,0.047 -0.026,0.075c-0,0.023 0.007,0.04 0.021,0.049c0.014,0.01 0.038,0.015 0.072,0.015l0.092,-0c0.042,-0 0.062,0.014 0.062,0.043c0,0.02 -0.007,0.035 -0.022,0.046c-0.015,0.011 -0.035,0.017 -0.06,0.017Z" style="fill-rule:nonzero;"/></g></g><g transform="matrix(-0.872023,-0.489465,0.489465,-0.872023,278.648,950.775)"><g transform="matrix(45.3333,0,0,45.3333,263.62,438.959)"><path d="M0.29,-0.374l0.015,0c0.042,0 0.062,0.015 0.062,0.044c0,0.02 -0.007,0.035 -0.022,0.046c-0.014,0.011 -0.035,0.017 -0.06,0.017l-0.036,-0l-0.065,0.161l0.054,-0c0.042,-0 0.062,0.014 0.062,0.043c0,0.02 -0.007,0.035 -0.021,0.046c-0.015,0.011 -0.035,0.017 -0.061,0.017l-0.088,-0c-0.024,-0 -0.044,-0.006 -0.058,-0.017c-0.015,-0.011 -0.022,-0.027 -0.022,-0.046c-0,-0.013 0.003,-0.026 0.009,-0.041l0.009,-0.021l0.057,-0.142l-0.007,-0c-0.036,-0 -0.055,-0.014 -0.055,-0.043c0,-0.02 0.008,-0.035 0.022,-0.047c0.015,-0.011 0.035,-0.017 0.061,-0.017l0.022,0l0.026,-0.064l0.006,-0.013c0.015,-0.036 0.039,-0.054 0.072,-0.054c0.013,0 0.025,0.005 0.034,0.014c0.01,0.008 0.015,0.019 0.015,0.032c-0,0.012 -0.004,0.028 -0.013,0.047l-0.018,0.038Z" style="fill-rule:nonzero;"/></g></g></g><circle id="InnerCircle" cx="654.986" cy="449.172" r="234.968" style="fill:#860303;"/><path id="NavTop" d="M801.199,335.716l-69.489,171.313l-3.268,8.085c-4.93,11.122 -13.014,16.684 -24.252,16.684c-8.944,-0 -15.308,-2.466 -19.092,-7.396c-3.784,-4.931 -6.192,-13.932 -7.224,-27.005l-7.912,-103.717l-35.949,88.753c-14.448,35.547 -25.427,59.713 -32.938,72.499c-7.511,12.785 -17.286,23.88 -29.326,33.282c-17.43,13.531 -37.439,20.296 -60.029,20.296c-24.08,0 -43.602,-7.568 -58.566,-22.704c-14.965,-15.136 -22.447,-34.801 -22.447,-58.996c0,-32.337 11.811,-60.602 35.433,-84.797c12.613,-12.958 28.466,-23.45 47.558,-31.476c19.092,-8.027 37.755,-12.041 55.987,-12.041c9.632,0 17.257,1.978 22.876,5.934c5.619,3.956 8.428,9.317 8.428,16.083c0,6.88 -2.236,12.04 -6.708,15.48c-4.472,3.44 -11.868,5.618 -22.188,6.536c-22.819,2.179 -41.223,7.453 -55.213,15.824c-11.581,6.995 -20.783,16.111 -27.606,27.348c-6.823,11.238 -10.234,22.991 -10.234,35.261c-0,13.072 3.354,23.363 10.062,30.874c6.708,7.511 15.967,11.266 27.778,11.266c13.646,0 25.657,-5.963 36.035,-17.888c10.377,-11.926 21.643,-32.852 33.798,-62.781l68.113,-167.701c6.077,-15.022 15.308,-22.533 27.692,-22.533c14.333,0 22.131,8.543 23.392,25.629l8.944,114.553l46.613,-114.553l2.752,-6.88c4.472,-10.779 12.326,-16.169 23.564,-16.169l7.052,-0.172l35.26,0c15.939,0 23.909,5.39 23.909,16.169c-0,7.912 -2.81,14.046 -8.429,18.404c-5.618,4.357 -13.416,6.536 -23.392,6.536l-20.984,-0Z" style="fill-rule:nonzero;"/></svg>