<svg style={{transform: `rotate(${rot}deg)`}} width="100%" height="100%" viewBox="0 0 938 938" version="1.1">
    <circle id="OuterCircle" cx="468.75" cy="468.75" r="468.75" style={{fill:'#b6b6b6'}}/>

    <g onClick={() => this.onSkills()}  class="skills" id="SkillsTxt" transform="matrix(1.27693,2.20727,-2.20727,1.27693,729.681,-644.318)">
        <g transform="matrix(-0.642881,-0.765966,0.765966,-0.642881,54.6879,855.169)">
            <g transform="matrix(45.3333,0,0,45.3333,226.698,414.836)">
                <path d="M0.474,-0.333l0.045,0.056l0.026,0.031c0.05,0.062 0.075,0.128 0.075,0.197c0,0.067 -0.022,0.125 -0.066,0.176c-0.061,0.069 -0.14,0.104 -0.238,0.104c-0.076,-0 -0.138,-0.023 -0.187,-0.07c-0.048,-0.047 -0.072,-0.107 -0.072,-0.18c-0,-0.089 0.037,-0.163 0.113,-0.223c0.04,-0.031 0.077,-0.047 0.111,-0.047c0.017,-0 0.032,0.005 0.043,0.015c0.011,0.01 0.016,0.023 0.016,0.039c0,0.022 -0.012,0.04 -0.038,0.056l-0.039,0.024c-0.022,0.014 -0.041,0.033 -0.056,0.058c-0.015,0.025 -0.022,0.05 -0.022,0.075c-0,0.038 0.013,0.07 0.039,0.095c0.026,0.026 0.059,0.038 0.1,0.038c0.044,0 0.083,-0.016 0.116,-0.05c0.033,-0.033 0.049,-0.072 0.049,-0.118c0,-0.028 -0.006,-0.054 -0.02,-0.078c-0.013,-0.023 -0.042,-0.059 -0.086,-0.109c-0.031,-0.034 -0.053,-0.064 -0.067,-0.089l-0.131,-0c-0.045,-0 -0.068,-0.016 -0.068,-0.047c0,-0.022 0.008,-0.04 0.024,-0.052c0.016,-0.012 0.038,-0.018 0.067,-0.018l0.083,-0c0.007,-0.065 0.036,-0.118 0.088,-0.16c0.053,-0.042 0.116,-0.063 0.189,-0.063c0.055,-0 0.1,0.015 0.134,0.045c0.035,0.03 0.052,0.07 0.052,0.118c0,0.064 -0.027,0.113 -0.082,0.147c-0.031,0.02 -0.081,0.03 -0.149,0.03l-0.049,-0Zm-0.058,-0.117l0.117,-0c0.066,-0 0.099,-0.019 0.099,-0.058c-0,-0.015 -0.007,-0.027 -0.02,-0.036c-0.014,-0.009 -0.032,-0.014 -0.054,-0.014c-0.036,0 -0.068,0.011 -0.096,0.033c-0.029,0.022 -0.045,0.047 -0.046,0.075Z" /></g></g>
        <g transform="matrix(-0.513956,-0.857817,0.857817,-0.513956,-22.1441,770.684)">
            <g transform="matrix(45.3333,0,0,45.3333,207.265,391.616)">
                <path d="M0.344,-0.207l0.075,0.119c0.01,0.015 0.015,0.027 0.015,0.036c-0,0.015 -0.007,0.029 -0.019,0.041c-0.013,0.012 -0.027,0.018 -0.042,0.018c-0.014,-0 -0.026,-0.007 -0.036,-0.022l-0.006,-0.009l-0.113,-0.169l-0.055,0.135c-0.017,0.043 -0.043,0.065 -0.077,0.065c-0.014,-0 -0.026,-0.004 -0.035,-0.013c-0.01,-0.009 -0.015,-0.019 -0.015,-0.032c0,-0.009 0.003,-0.02 0.008,-0.032l0.005,-0.013l0.209,-0.516l0.006,-0.013c0.015,-0.036 0.039,-0.055 0.071,-0.055c0.014,0 0.026,0.005 0.036,0.014c0.009,0.009 0.014,0.02 0.014,0.033c0,0.01 -0.002,0.021 -0.008,0.034l-0.005,0.013l-0.124,0.306l0.109,-0.081c0.023,-0.017 0.043,-0.026 0.059,-0.026c0.014,0 0.025,0.005 0.034,0.014c0.009,0.008 0.014,0.019 0.014,0.032c-0,0.022 -0.012,0.042 -0.036,0.06l-0.011,0.008l-0.073,0.053Z" /></g></g>
        <g transform="matrix(-0.414634,-0.909988,0.909988,-0.414634,-62.115,709.791)">
            <g transform="matrix(45.3333,0,0,45.3333,197.235,374.874)">
                <path d="M0.182,-0.106l0.055,-0c0.041,-0 0.061,0.014 0.061,0.043c0,0.02 -0.007,0.035 -0.021,0.046c-0.015,0.011 -0.035,0.017 -0.061,0.017l-0.078,-0c-0.028,-0 -0.051,-0.006 -0.067,-0.018c-0.017,-0.011 -0.025,-0.027 -0.025,-0.047c-0,-0.011 0.003,-0.025 0.01,-0.041l0.081,-0.199l0.005,-0.013c0.015,-0.037 0.039,-0.056 0.072,-0.056c0.014,0 0.026,0.005 0.036,0.014c0.01,0.009 0.015,0.02 0.015,0.033c-0,0.01 -0.005,0.026 -0.014,0.048l-0.069,0.173Zm0.064,-0.423c0.019,-0 0.035,0.006 0.048,0.019c0.013,0.014 0.02,0.03 0.02,0.049c-0,0.018 -0.007,0.034 -0.02,0.048c-0.013,0.013 -0.029,0.019 -0.048,0.019c-0.019,0 -0.035,-0.006 -0.048,-0.019c-0.013,-0.014 -0.02,-0.03 -0.02,-0.048c0,-0.019 0.007,-0.035 0.02,-0.049c0.013,-0.013 0.029,-0.019 0.048,-0.019Z" /></g></g>
        <g transform="matrix(-0.327,-0.945024,0.945024,-0.327,-89.1289,664.084)">
            <g transform="matrix(45.3333,0,0,45.3333,191.9,363.779)">
                <path d="M0.177,-0.106l0.051,-0c0.041,-0 0.062,0.014 0.062,0.043c0,0.02 -0.007,0.035 -0.022,0.046c-0.014,0.011 -0.034,0.017 -0.06,0.017l-0.088,-0c-0.024,-0 -0.044,-0.006 -0.057,-0.017c-0.014,-0.011 -0.021,-0.027 -0.021,-0.046c-0,-0.01 0.004,-0.027 0.014,-0.05l0.197,-0.486l0.005,-0.013c0.015,-0.036 0.039,-0.055 0.072,-0.055c0.014,0 0.025,0.005 0.035,0.014c0.01,0.009 0.014,0.02 0.014,0.033c0,0.01 -0.002,0.021 -0.007,0.033l-0.005,0.013l-0.19,0.468Z" /></g></g>
        <g transform="matrix(-0.247141,-0.968979,0.968979,-0.247141,-107.472,621.425)">
            <g transform="matrix(45.3333,0,0,45.3333,187.675,352.463)">
                <path d="M0.177,-0.106l0.051,-0c0.041,-0 0.062,0.014 0.062,0.043c0,0.02 -0.007,0.035 -0.022,0.046c-0.014,0.011 -0.034,0.017 -0.06,0.017l-0.088,-0c-0.024,-0 -0.044,-0.006 -0.057,-0.017c-0.014,-0.011 -0.021,-0.027 -0.021,-0.046c-0,-0.01 0.004,-0.027 0.014,-0.05l0.197,-0.486l0.005,-0.013c0.015,-0.036 0.039,-0.055 0.072,-0.055c0.014,0 0.025,0.005 0.035,0.014c0.01,0.009 0.014,0.02 0.014,0.033c0,0.01 -0.002,0.021 -0.007,0.033l-0.005,0.013l-0.19,0.468Z" /></g></g>
        <g transform="matrix(-0.169847,-0.98547,0.98547,-0.169847,-120.128,580.528)">
            <g transform="matrix(45.3333,0,0,45.3333,184.452,340.861)">
                <path d="M0.208,-0.24l-0.009,0.022c-0.014,0.032 -0.034,0.049 -0.061,0.049c-0.013,-0 -0.025,-0.005 -0.036,-0.014c-0.01,-0.01 -0.016,-0.02 -0.016,-0.032c0,-0.012 0.005,-0.027 0.015,-0.046l0.065,-0.132c0.015,-0.031 0.035,-0.047 0.059,-0.047c0.013,0 0.024,0.004 0.033,0.013c0.009,0.008 0.013,0.018 0.013,0.029c0,0.003 -0,0.009 -0.002,0.019c-0.002,0.007 -0.002,0.014 -0.002,0.019c-0,0.021 0.007,0.042 0.023,0.063l0.027,0.039c0.029,0.039 0.043,0.077 0.043,0.114c-0,0.041 -0.015,0.075 -0.046,0.103c-0.031,0.027 -0.069,0.041 -0.114,0.041l-0.102,-0c-0.042,-0 -0.062,-0.014 -0.062,-0.043c-0,-0.02 0.007,-0.035 0.022,-0.047c0.014,-0.011 0.034,-0.016 0.06,-0.016l0.057,-0c0.045,-0 0.068,-0.017 0.068,-0.05c-0,-0.012 -0.005,-0.026 -0.013,-0.042l-0.022,-0.042Z" /></g></g></g>
    <path onClick={() => this.onSkills()} onMouseOver={() => this.onHover('skills')} onMouseOut={() => this.onHoverOut('skills')} id="SkillsAll" d="M349.818,250.753l14.778,-21.546l18.494,-23.187l22.95,-22.664l18.268,-16.374l24.305,-18.122l69.504,110.315l-10.983,8.575l-7.999,6.369l-16.075,16.691l-12.807,14.447l-9.948,14.031l-6.043,9.841l-3.977,6.923l-3.176,5.765l-6.967,15.542l-8.419,23.374l-6.636,25.035l-127.139,-26.24l4.628,-22.429l8.858,-29.495l9.631,-23.904l12.18,-25.326l16.573,-27.621Z" style={{fill:'#ab9797',fillOpacity:'0'}}/>

    <g onClick={() => this.onWelcome()} class="welcome" id="WelcomeTxt" transform="matrix(2.39267,-0.88187,0.88187,2.39267,-583.472,21.8599)">
        <g transform="matrix(-0.564286,-0.825579,0.825579,-0.564286,7.73876,836.882)">
            <g transform="matrix(45.3333,0,0,45.3333,224.709,416.399)">
                <path d="M1.21,-0.55l-0.301,0.517c-0.022,0.039 -0.049,0.058 -0.081,0.058c-0.025,-0 -0.044,-0.008 -0.057,-0.023c-0.013,-0.015 -0.02,-0.037 -0.02,-0.064l0.013,-0.351l-0.178,0.38c-0.018,0.039 -0.044,0.058 -0.078,0.058c-0.024,-0 -0.043,-0.008 -0.057,-0.023c-0.014,-0.016 -0.021,-0.037 -0.021,-0.064l-0.01,-0.338c-0,-0.059 -0.005,-0.1 -0.015,-0.12c-0.011,-0.021 -0.031,-0.031 -0.06,-0.031c-0.027,-0 -0.053,0.014 -0.079,0.041c-0.026,0.028 -0.039,0.056 -0.039,0.085c0,0.023 0.007,0.043 0.022,0.057c0.015,0.015 0.034,0.022 0.058,0.022c0.006,0 0.013,0 0.019,-0c0.006,-0.001 0.01,-0.001 0.012,-0.001c0.04,0 0.059,0.017 0.059,0.05c0,0.021 -0.011,0.04 -0.033,0.054c-0.023,0.015 -0.051,0.022 -0.085,0.022c-0.053,-0 -0.097,-0.018 -0.131,-0.054c-0.035,-0.037 -0.052,-0.082 -0.052,-0.138c0,-0.067 0.028,-0.127 0.082,-0.181c0.055,-0.053 0.117,-0.079 0.187,-0.079c0.063,-0 0.109,0.018 0.138,0.056c0.028,0.037 0.042,0.096 0.042,0.179l0.001,0.038l0.003,0.17l0.174,-0.378c0.02,-0.044 0.049,-0.065 0.089,-0.065c0.023,-0 0.042,0.006 0.056,0.02c0.014,0.013 0.021,0.031 0.021,0.054l-0.001,0.005l-0.009,0.372l0.22,-0.379l0.01,-0.019c0.018,-0.031 0.046,-0.047 0.083,-0.047l0.095,0c0.045,0 0.068,0.016 0.068,0.048c-0,0.022 -0.008,0.039 -0.024,0.051c-0.016,0.012 -0.038,0.018 -0.066,0.018l-0.055,0Z" /></g></g>
        <g transform="matrix(-0.377048,-0.926194,0.926194,-0.377048,-75.1916,693.22)">
            <g transform="matrix(45.3333,0,0,45.3333,195.532,371.897)">
                <path d="M0.163,-0.143c0,0.024 0.018,0.037 0.055,0.037l0.145,-0c0.041,-0 0.062,0.014 0.062,0.043c-0,0.02 -0.007,0.035 -0.022,0.046c-0.014,0.011 -0.035,0.017 -0.061,0.017l-0.138,-0c-0.051,-0 -0.09,-0.013 -0.117,-0.038c-0.027,-0.025 -0.041,-0.063 -0.041,-0.111c0,-0.063 0.022,-0.117 0.064,-0.163c0.043,-0.046 0.093,-0.068 0.152,-0.068c0.042,-0 0.077,0.011 0.103,0.033c0.025,0.022 0.038,0.052 0.038,0.088c0,0.044 -0.018,0.077 -0.053,0.098c-0.02,0.012 -0.05,0.018 -0.089,0.018l-0.098,-0Zm0.024,-0.089l0.053,0c0.035,0 0.052,-0.008 0.051,-0.023c-0.001,-0.017 -0.012,-0.026 -0.034,-0.026c-0.03,0 -0.053,0.017 -0.07,0.049Z" /></g></g>
        <g transform="matrix(-0.266331,-0.963882,0.963882,-0.266331,-103.536,631.57)">
            <g transform="matrix(45.3333,0,0,45.3333,188.595,355.189)">
                <path d="M0.177,-0.106l0.051,-0c0.041,-0 0.062,0.014 0.062,0.043c0,0.02 -0.007,0.035 -0.022,0.046c-0.014,0.011 -0.034,0.017 -0.06,0.017l-0.088,-0c-0.024,-0 -0.044,-0.006 -0.057,-0.017c-0.014,-0.011 -0.021,-0.027 -0.021,-0.046c-0,-0.01 0.004,-0.027 0.014,-0.05l0.197,-0.486l0.005,-0.013c0.015,-0.036 0.039,-0.055 0.072,-0.055c0.014,0 0.025,0.005 0.035,0.014c0.01,0.009 0.014,0.02 0.014,0.033c0,0.01 -0.002,0.021 -0.007,0.033l-0.005,0.013l-0.19,0.468Z" /></g></g>
        <g transform="matrix(-0.179899,-0.983685,0.983685,-0.179899,-119.683,587.461)">
            <g transform="matrix(45.3333,0,0,45.3333,185.042,343.621)">
                <path d="M0.326,-0l-0.142,-0c-0.041,-0 -0.074,-0.014 -0.099,-0.043c-0.026,-0.029 -0.039,-0.066 -0.039,-0.111c0,-0.061 0.021,-0.114 0.063,-0.159c0.042,-0.045 0.092,-0.067 0.148,-0.067c0.039,-0 0.07,0.01 0.094,0.032c0.024,0.021 0.036,0.049 0.036,0.084c0,0.024 -0.006,0.044 -0.018,0.059c-0.012,0.016 -0.027,0.023 -0.046,0.023c-0.03,0 -0.045,-0.014 -0.045,-0.042l-0,-0.01c0,-0.004 0,-0.007 0,-0.011c0,-0.022 -0.011,-0.034 -0.033,-0.034c-0.022,0 -0.041,0.011 -0.058,0.034c-0.018,0.022 -0.026,0.047 -0.026,0.075c-0,0.023 0.007,0.04 0.021,0.049c0.014,0.01 0.038,0.015 0.072,0.015l0.092,-0c0.042,-0 0.062,0.014 0.062,0.043c0,0.02 -0.007,0.035 -0.022,0.046c-0.015,0.011 -0.035,0.017 -0.06,0.017Z" /></g></g>
        <g transform="matrix(-0.0586012,-0.998281,0.998281,-0.0586012,-133.768,527.211)">
            <g transform="matrix(45.3333,0,0,45.3333,181.701,326.679)">
                <path d="M0.272,-0.38c0.047,-0 0.086,0.015 0.116,0.045c0.031,0.029 0.046,0.068 0.046,0.114c0,0.035 -0.008,0.069 -0.024,0.104c-0.016,0.034 -0.036,0.061 -0.062,0.082c-0.017,0.013 -0.034,0.022 -0.052,0.027c-0.018,0.005 -0.044,0.008 -0.076,0.008c-0.053,0 -0.089,-0.006 -0.108,-0.019c-0.043,-0.03 -0.065,-0.074 -0.065,-0.133c-0,-0.062 0.022,-0.115 0.067,-0.16c0.044,-0.046 0.097,-0.068 0.158,-0.068Zm-0.012,0.104c-0.024,-0 -0.046,0.012 -0.066,0.035c-0.02,0.024 -0.029,0.05 -0.029,0.079c-0,0.038 0.021,0.057 0.063,0.057c0.025,-0 0.044,-0.008 0.057,-0.023c0.022,-0.025 0.033,-0.054 0.033,-0.086c0,-0.019 -0.005,-0.034 -0.016,-0.045c-0.01,-0.012 -0.024,-0.017 -0.042,-0.017Z" /></g></g>
        <g transform="matrix(0.116076,-0.99324,0.99324,0.116076,-146.889,450.608)">
            <g transform="matrix(45.3333,0,0,45.3333,179.724,307.832)">
                <path d="M0.633,-0.106l0.058,-0c0.041,-0 0.062,0.014 0.062,0.043c-0,0.02 -0.007,0.035 -0.022,0.046c-0.014,0.011 -0.034,0.017 -0.06,0.017l-0.099,-0c-0.022,-0 -0.039,-0.006 -0.052,-0.017c-0.014,-0.011 -0.02,-0.026 -0.02,-0.045c-0,-0.013 0.004,-0.03 0.013,-0.052l0.046,-0.112c0.002,-0.006 0.003,-0.012 0.003,-0.018c0,-0.021 -0.01,-0.031 -0.032,-0.031c-0.016,-0 -0.033,0.007 -0.049,0.022c-0.016,0.015 -0.029,0.035 -0.039,0.06l-0.055,0.134c-0.018,0.044 -0.044,0.066 -0.078,0.066c-0.013,-0 -0.025,-0.005 -0.034,-0.013c-0.01,-0.009 -0.014,-0.02 -0.014,-0.032c-0,-0.009 0.002,-0.02 0.007,-0.033l0.005,-0.013l0.056,-0.136c0.004,-0.012 0.007,-0.022 0.007,-0.029c-0,-0.007 -0.003,-0.013 -0.01,-0.018c-0.006,-0.006 -0.014,-0.008 -0.023,-0.008c-0.035,-0 -0.063,0.025 -0.083,0.076l-0.057,0.14c-0.018,0.044 -0.044,0.066 -0.078,0.066c-0.013,-0 -0.025,-0.004 -0.034,-0.013c-0.01,-0.009 -0.015,-0.019 -0.015,-0.032c0,-0.009 0.003,-0.02 0.007,-0.033l0.006,-0.013l0.097,-0.239c0.014,-0.034 0.034,-0.051 0.062,-0.051c0.028,0 0.045,0.014 0.052,0.041c0.022,-0.019 0.04,-0.032 0.054,-0.038c0.014,-0.006 0.031,-0.009 0.051,-0.009c0.044,-0 0.077,0.019 0.098,0.057c0.037,-0.038 0.078,-0.057 0.123,-0.057c0.032,-0 0.058,0.009 0.079,0.027c0.021,0.018 0.031,0.04 0.031,0.066c0,0.017 -0.003,0.034 -0.01,0.052l-0.053,0.129Z" /></g></g>
        <g transform="matrix(0.289089,-0.957302,0.957302,0.289089,-132.716,371.719)">
            <g transform="matrix(45.3333,0,0,45.3333,183.918,275.216)">
                <path d="M0.163,-0.143c0,0.024 0.018,0.037 0.055,0.037l0.145,-0c0.041,-0 0.062,0.014 0.062,0.043c-0,0.02 -0.007,0.035 -0.022,0.046c-0.014,0.011 -0.035,0.017 -0.061,0.017l-0.138,-0c-0.051,-0 -0.09,-0.013 -0.117,-0.038c-0.027,-0.025 -0.041,-0.063 -0.041,-0.111c0,-0.063 0.022,-0.117 0.064,-0.163c0.043,-0.046 0.093,-0.068 0.152,-0.068c0.042,-0 0.077,0.011 0.103,0.033c0.025,0.022 0.038,0.052 0.038,0.088c0,0.044 -0.018,0.077 -0.053,0.098c-0.02,0.012 -0.05,0.018 -0.089,0.018l-0.098,-0Zm0.024,-0.089l0.053,0c0.035,0 0.052,-0.008 0.051,-0.023c-0.001,-0.017 -0.012,-0.026 -0.034,-0.026c-0.03,0 -0.053,0.017 -0.07,0.049Z" /></g></g></g>
    <path onClick={() => this.onWelcome()} onMouseOver={() => this.onHover('welcome')} onMouseOut={() => this.onHoverOut('welcome')} id="WelcomeAll" d="M353.245,655.23l-14.115,-21.46l-14.227,-25.453l-12.095,-29.312l-8.11,-22.714l-7.457,-28.857l-4.929,-27.741l-2.215,-23.533l-0.905,-24.295l128.002,1.484l0.774,17.307l1.827,14.305l1.552,9.668l2.134,10.561l3.72,13.184l2.823,9.647l9.214,20.836l8.387,17.028l9.072,14.269l6.709,9.159l4.823,6.193l4.065,5.034l11.555,12.119l58.819,43.486l20.57,9.152l-46.106,119.543l-18.096,-7.868l-16.57,-7.959l-28.001,-15.565l-21.997,-15.685l-23.551,-19.028l-18.174,-17.652l-18.521,-20.5l-18.977,-25.353Z" style={{fill:'#9f9d9d',fillOpacity:'0'}} />

    <g id="ProjectsTxt" transform="matrix(-1.11044,2.29554,-2.29554,-1.11044,1536.43,60.1632)">
        <g transform="matrix(-0.628485,-0.777822,0.777822,-0.628485,45.8884,852.159)">
            <g transform="matrix(45.3333,0,0,45.3333,226.455,415.121)">
                <path d="M0.65,-0.333l-0.081,0.2c-0.041,0.099 -0.072,0.167 -0.094,0.204c-0.022,0.038 -0.049,0.07 -0.083,0.096c-0.049,0.038 -0.105,0.058 -0.17,0.058c-0.068,-0 -0.123,-0.022 -0.165,-0.065c-0.043,-0.043 -0.064,-0.099 -0.064,-0.167c0,-0.092 0.034,-0.172 0.101,-0.241c0.036,-0.037 0.081,-0.067 0.135,-0.09c0.055,-0.022 0.109,-0.034 0.162,-0.034c0.026,0 0.046,0.006 0.062,0.018c0.016,0.011 0.024,0.027 0.024,0.045c-0,0.02 -0.009,0.036 -0.026,0.048c-0.01,0.007 -0.028,0.012 -0.056,0.015c-0.064,0.006 -0.117,0.021 -0.157,0.044c-0.033,0.02 -0.059,0.046 -0.078,0.078c-0.02,0.032 -0.029,0.066 -0.029,0.102c-0,0.036 0.009,0.064 0.028,0.086c0.019,0.021 0.044,0.032 0.075,0.032c0.04,-0 0.074,-0.017 0.103,-0.051c0.029,-0.033 0.061,-0.093 0.096,-0.178l0.17,-0.417l-0.054,0c-0.045,0 -0.067,-0.015 -0.067,-0.047c-0,-0.022 0.008,-0.039 0.024,-0.051c0.015,-0.012 0.038,-0.019 0.066,-0.019l0.186,0c0.063,0 0.109,0.012 0.139,0.036c0.03,0.023 0.044,0.06 0.044,0.109c0,0.06 -0.023,0.109 -0.069,0.147c-0.033,0.028 -0.085,0.042 -0.155,0.042l-0.067,-0Zm0.047,-0.117l0.04,-0c0.052,-0 0.078,-0.021 0.078,-0.064c-0,-0.024 -0.015,-0.036 -0.044,-0.036l-0.033,0l-0.041,0.1Z" /></g></g>
        <g transform="matrix(-0.477543,-0.878608,0.878608,-0.477543,-38.4261,749.214)">
            <g transform="matrix(45.3333,0,0,45.3333,203.544,386.032)">
                <path d="M0.168,-0.267l-0.017,0.041c-0.015,0.037 -0.034,0.055 -0.058,0.055c-0.015,0 -0.027,-0.004 -0.037,-0.013c-0.01,-0.009 -0.014,-0.02 -0.014,-0.033c-0,-0.007 0.003,-0.02 0.01,-0.038l0.055,-0.136c0.014,-0.033 0.033,-0.049 0.057,-0.049c0.024,-0 0.039,0.011 0.044,0.034l0.004,0.015c0.002,0.008 0.005,0.013 0.009,0.015c0.004,0.001 0.014,0.002 0.029,0.002l0.114,0c0.043,0 0.064,0.015 0.064,0.045c0,0.042 -0.027,0.062 -0.081,0.062l-0.005,0.005c-0.052,0.05 -0.078,0.088 -0.078,0.115c0,0.027 0.015,0.041 0.045,0.041l0.062,-0c0.041,-0 0.062,0.014 0.062,0.043c-0,0.02 -0.008,0.035 -0.022,0.046c-0.015,0.011 -0.035,0.017 -0.061,0.017l-0.096,-0c-0.032,-0 -0.059,-0.011 -0.079,-0.034c-0.021,-0.022 -0.031,-0.051 -0.031,-0.087c-0,-0.023 0.005,-0.045 0.016,-0.066c0.011,-0.022 0.031,-0.048 0.059,-0.08l-0.051,0Z" /></g></g>
        <g transform="matrix(-0.361351,-0.93243,0.93243,-0.361351,-80.0643,684.956)">
            <g transform="matrix(45.3333,0,0,45.3333,194.541,369.897)">
                <path d="M0.272,-0.38c0.047,-0 0.086,0.015 0.116,0.045c0.031,0.029 0.046,0.068 0.046,0.114c0,0.035 -0.008,0.069 -0.024,0.104c-0.016,0.034 -0.036,0.061 -0.062,0.082c-0.017,0.013 -0.034,0.022 -0.052,0.027c-0.018,0.005 -0.044,0.008 -0.076,0.008c-0.053,0 -0.089,-0.006 -0.108,-0.019c-0.043,-0.03 -0.065,-0.074 -0.065,-0.133c-0,-0.062 0.022,-0.115 0.067,-0.16c0.044,-0.046 0.097,-0.068 0.158,-0.068Zm-0.012,0.104c-0.024,-0 -0.046,0.012 -0.066,0.035c-0.02,0.024 -0.029,0.05 -0.029,0.079c-0,0.038 0.021,0.057 0.063,0.057c0.025,-0 0.044,-0.008 0.057,-0.023c0.022,-0.025 0.033,-0.054 0.033,-0.086c0,-0.019 -0.005,-0.034 -0.016,-0.045c-0.01,-0.012 -0.024,-0.017 -0.042,-0.017Z" /></g></g>
        <g transform="matrix(-0.294281,-0.955719,0.955719,-0.294281,-93.4788,635.63)">
            <g transform="matrix(45.3333,0,0,45.3333,187.941,352.328)">
                <path d="M0.19,0.02l0.054,0c0.041,0 0.062,0.015 0.062,0.043c-0,0.02 -0.008,0.035 -0.022,0.047c-0.015,0.011 -0.035,0.016 -0.061,0.016l-0.076,0l-0.035,0.07l-0.014,0.029c-0.045,0.09 -0.109,0.135 -0.193,0.135c-0.051,-0 -0.093,-0.016 -0.127,-0.046c-0.034,-0.031 -0.051,-0.069 -0.051,-0.115c-0,-0.027 0.006,-0.054 0.02,-0.08c0.013,-0.025 0.031,-0.046 0.052,-0.061c0.036,-0.025 0.091,-0.038 0.165,-0.038l0.101,0l0.111,-0.273l-0.052,-0c-0.042,-0 -0.062,-0.015 -0.062,-0.044c-0,-0.02 0.007,-0.035 0.021,-0.046c0.015,-0.011 0.035,-0.017 0.062,-0.017l0.116,0c0.04,0 0.059,0.017 0.059,0.049c0,0.013 -0.003,0.028 -0.01,0.044l-0.12,0.287Zm-0.168,0.106l-0.068,0c-0.075,0 -0.112,0.025 -0.112,0.073c-0,0.015 0.005,0.028 0.015,0.038c0.011,0.01 0.024,0.015 0.041,0.015c0.024,-0 0.045,-0.009 0.063,-0.028c0.019,-0.018 0.039,-0.051 0.061,-0.098Zm0.29,-0.655c0.018,-0 0.034,0.006 0.048,0.019c0.013,0.014 0.019,0.03 0.019,0.049c0,0.018 -0.006,0.034 -0.019,0.048c-0.014,0.013 -0.03,0.019 -0.048,0.019c-0.019,0 -0.035,-0.006 -0.049,-0.019c-0.013,-0.014 -0.019,-0.03 -0.019,-0.048c-0,-0.019 0.006,-0.035 0.019,-0.049c0.014,-0.013 0.03,-0.019 0.049,-0.019Z" /></g></g>
        <g transform="matrix(-0.148885,-0.988854,0.988854,-0.148885,-124.332,572.074)">
            <g transform="matrix(45.3333,0,0,45.3333,184.028,339.544)">
                <path d="M0.163,-0.143c0,0.024 0.018,0.037 0.055,0.037l0.145,-0c0.041,-0 0.062,0.014 0.062,0.043c-0,0.02 -0.007,0.035 -0.022,0.046c-0.014,0.011 -0.035,0.017 -0.061,0.017l-0.138,-0c-0.051,-0 -0.09,-0.013 -0.117,-0.038c-0.027,-0.025 -0.041,-0.063 -0.041,-0.111c0,-0.063 0.022,-0.117 0.064,-0.163c0.043,-0.046 0.093,-0.068 0.152,-0.068c0.042,-0 0.077,0.011 0.103,0.033c0.025,0.022 0.038,0.052 0.038,0.088c0,0.044 -0.018,0.077 -0.053,0.098c-0.02,0.012 -0.05,0.018 -0.089,0.018l-0.098,-0Zm0.024,-0.089l0.053,0c0.035,0 0.052,-0.008 0.051,-0.023c-0.001,-0.017 -0.012,-0.026 -0.034,-0.026c-0.03,0 -0.053,0.017 -0.07,0.049Z" /></g></g>
        <g transform="matrix(-0.0289284,-0.999581,0.999581,-0.0289284,-135.179,512.123)">
            <g transform="matrix(45.3333,0,0,45.3333,181.169,321.723)">
                <path d="M0.326,-0l-0.142,-0c-0.041,-0 -0.074,-0.014 -0.099,-0.043c-0.026,-0.029 -0.039,-0.066 -0.039,-0.111c0,-0.061 0.021,-0.114 0.063,-0.159c0.042,-0.045 0.092,-0.067 0.148,-0.067c0.039,-0 0.07,0.01 0.094,0.032c0.024,0.021 0.036,0.049 0.036,0.084c0,0.024 -0.006,0.044 -0.018,0.059c-0.012,0.016 -0.027,0.023 -0.046,0.023c-0.03,0 -0.045,-0.014 -0.045,-0.042l-0,-0.01c0,-0.004 0,-0.007 0,-0.011c0,-0.022 -0.011,-0.034 -0.033,-0.034c-0.022,0 -0.041,0.011 -0.058,0.034c-0.018,0.022 -0.026,0.047 -0.026,0.075c-0,0.023 0.007,0.04 0.021,0.049c0.014,0.01 0.038,0.015 0.072,0.015l0.092,-0c0.042,-0 0.062,0.014 0.062,0.043c0,0.02 -0.007,0.035 -0.022,0.046c-0.015,0.011 -0.035,0.017 -0.06,0.017Z" /></g></g>
        <g transform="matrix(0.0822777,-0.996609,0.996609,0.0822777,-137.717,459.296)">
            <g transform="matrix(45.3333,0,0,45.3333,180.53,304.425)">
                <path d="M0.29,-0.374l0.015,0c0.042,0 0.062,0.015 0.062,0.044c0,0.02 -0.007,0.035 -0.022,0.046c-0.014,0.011 -0.035,0.017 -0.06,0.017l-0.036,-0l-0.065,0.161l0.054,-0c0.042,-0 0.062,0.014 0.062,0.043c0,0.02 -0.007,0.035 -0.021,0.046c-0.015,0.011 -0.035,0.017 -0.061,0.017l-0.088,-0c-0.024,-0 -0.044,-0.006 -0.058,-0.017c-0.015,-0.011 -0.022,-0.027 -0.022,-0.046c-0,-0.013 0.003,-0.026 0.009,-0.041l0.009,-0.021l0.057,-0.142l-0.007,-0c-0.036,-0 -0.055,-0.014 -0.055,-0.043c0,-0.02 0.008,-0.035 0.022,-0.047c0.015,-0.011 0.035,-0.017 0.061,-0.017l0.022,0l0.026,-0.064l0.006,-0.013c0.015,-0.036 0.039,-0.054 0.072,-0.054c0.013,0 0.025,0.005 0.034,0.014c0.01,0.008 0.015,0.019 0.015,0.032c-0,0.012 -0.004,0.028 -0.013,0.047l-0.018,0.038Z" /></g></g>
        <g transform="matrix(0.171395,-0.985202,0.985202,0.171395,-136.216,419.751)">
            <g transform="matrix(45.3333,0,0,45.3333,181.432,290.855)">
                <path d="M0.208,-0.24l-0.009,0.022c-0.014,0.032 -0.034,0.049 -0.061,0.049c-0.013,-0 -0.025,-0.005 -0.036,-0.014c-0.01,-0.01 -0.016,-0.02 -0.016,-0.032c0,-0.012 0.005,-0.027 0.015,-0.046l0.065,-0.132c0.015,-0.031 0.035,-0.047 0.059,-0.047c0.013,0 0.024,0.004 0.033,0.013c0.009,0.008 0.013,0.018 0.013,0.029c0,0.003 -0,0.009 -0.002,0.019c-0.002,0.007 -0.002,0.014 -0.002,0.019c-0,0.021 0.007,0.042 0.023,0.063l0.027,0.039c0.029,0.039 0.043,0.077 0.043,0.114c-0,0.041 -0.015,0.075 -0.046,0.103c-0.031,0.027 -0.069,0.041 -0.114,0.041l-0.102,-0c-0.042,-0 -0.062,-0.014 -0.062,-0.043c-0,-0.02 0.007,-0.035 0.022,-0.047c0.014,-0.011 0.034,-0.016 0.06,-0.016l0.057,-0c0.045,-0 0.068,-0.017 0.068,-0.05c-0,-0.012 -0.005,-0.026 -0.013,-0.042l-0.022,-0.042Z" /></g></g></g>
    <path id="ProjectsAll" d="M691.018,85.513l26.026,3.235l29.206,5.791l30.795,10.005l23.028,8.733l27.369,13.309l24.829,14.533l19.761,13.86l19.486,15.38l-85.9,98.15l-11.711,-9.354l-12.581,-8.551l-9.796,-5.695l-10.375,-5.71l-10.082,-4.624l-11.999,-5.155l-21.207,-7.08l-19.88,-4.304l-17.099,-2.396l-11.562,-0.848l-6.595,-0.588l-7.745,-0.245l-14.938,0.245l-17.624,1.896l-22.937,3.983l-34.297,10.923l-45.503,-122.282l27.962,-9.55l26.757,-6.716l30.384,-5.711l25.755,-2.442l28.199,-0.825l32.274,2.033Z" style="fill:#9d9f9e;fill-opacity:0;"/>

    <g id="LearningTxt" transform="matrix(-2.46233,-0.66294,0.66294,-2.46233,1069.25,1441.52)">
        <g transform="matrix(-0.646016,-0.763324,0.763324,-0.646016,56.6428,855.901)">
            <g transform="matrix(45.3333,0,0,45.3333,226.779,414.817)">
                <path d="M0.596,-0.343l-0.146,0.36l0.338,-0c0.045,-0 0.068,0.015 0.068,0.046c-0,0.023 -0.008,0.04 -0.024,0.052c-0.016,0.012 -0.038,0.018 -0.066,0.018l-0.364,0l-0.006,0.014c-0.022,0.051 -0.04,0.086 -0.053,0.107c-0.013,0.02 -0.03,0.04 -0.051,0.059c-0.054,0.05 -0.117,0.075 -0.188,0.075c-0.057,0 -0.104,-0.017 -0.141,-0.051c-0.038,-0.034 -0.056,-0.078 -0.056,-0.13c-0,-0.033 0.008,-0.064 0.024,-0.093c0.016,-0.028 0.037,-0.051 0.065,-0.067c0.035,-0.02 0.083,-0.03 0.144,-0.03l0.172,-0l0.146,-0.36l-0.071,-0c-0.037,-0 -0.055,-0.016 -0.055,-0.049c0,-0.021 0.008,-0.037 0.024,-0.05c0.016,-0.012 0.038,-0.018 0.066,-0.018l0.084,0l0.022,-0.055c0.043,-0.106 0.108,-0.158 0.196,-0.158c0.044,-0 0.081,0.014 0.111,0.042c0.03,0.028 0.044,0.063 0.044,0.106c0,0.054 -0.021,0.098 -0.064,0.131c-0.043,0.034 -0.099,0.051 -0.168,0.051l-0.051,-0Zm0.048,-0.117l0.022,0c0.024,0 0.045,-0.006 0.063,-0.018c0.017,-0.012 0.026,-0.027 0.026,-0.045c-0,-0.026 -0.012,-0.039 -0.037,-0.039c-0.022,-0 -0.042,0.023 -0.061,0.068l-0.013,0.034Zm-0.379,0.593l-0.129,0c-0.064,0 -0.095,0.023 -0.095,0.068c-0,0.019 0.007,0.034 0.021,0.047c0.014,0.012 0.031,0.019 0.052,0.019c0.029,-0 0.057,-0.012 0.084,-0.036c0.027,-0.024 0.049,-0.057 0.067,-0.098Z" /></g></g>
        <g transform="matrix(-0.495057,-0.86886,0.86886,-0.495057,-30.8184,758.929)">
            <g transform="matrix(45.3333,0,0,45.3333,205.118,388.419)">
                <path d="M0.163,-0.143c0,0.024 0.018,0.037 0.055,0.037l0.145,-0c0.041,-0 0.062,0.014 0.062,0.043c-0,0.02 -0.007,0.035 -0.022,0.046c-0.014,0.011 -0.035,0.017 -0.061,0.017l-0.138,-0c-0.051,-0 -0.09,-0.013 -0.117,-0.038c-0.027,-0.025 -0.041,-0.063 -0.041,-0.111c0,-0.063 0.022,-0.117 0.064,-0.163c0.043,-0.046 0.093,-0.068 0.152,-0.068c0.042,-0 0.077,0.011 0.103,0.033c0.025,0.022 0.038,0.052 0.038,0.088c0,0.044 -0.018,0.077 -0.053,0.098c-0.02,0.012 -0.05,0.018 -0.089,0.018l-0.098,-0Zm0.024,-0.089l0.053,0c0.035,0 0.052,-0.008 0.051,-0.023c-0.001,-0.017 -0.012,-0.026 -0.034,-0.026c-0.03,0 -0.053,0.017 -0.07,0.049Z" /></g></g>
        <g transform="matrix(-0.373493,-0.927633,0.927633,-0.373493,-76.8473,693.829)">
            <g transform="matrix(45.3333,0,0,45.3333,195.876,372.865)">
                <path d="M0.379,-0.106l0.054,-0c0.041,-0 0.062,0.014 0.062,0.043c-0,0.019 -0.008,0.035 -0.022,0.046c-0.015,0.011 -0.035,0.017 -0.061,0.017l-0.062,-0c-0.028,-0 -0.047,-0.011 -0.058,-0.033c-0.024,0.022 -0.048,0.033 -0.07,0.033l-0.056,-0c-0.036,-0 -0.065,-0.013 -0.087,-0.038c-0.022,-0.026 -0.033,-0.059 -0.033,-0.101c0,-0.062 0.022,-0.118 0.065,-0.167c0.043,-0.05 0.092,-0.074 0.146,-0.074c0.042,-0 0.072,0.014 0.092,0.043c0.016,-0.024 0.037,-0.037 0.064,-0.037c0.014,0 0.026,0.005 0.035,0.014c0.01,0.009 0.015,0.02 0.015,0.034c-0,0.009 -0.003,0.02 -0.008,0.033l-0.005,0.013l-0.071,0.174Zm-0.177,0.002l0.012,-0c0.027,-0 0.045,-0.011 0.054,-0.033l0.034,-0.084c0.004,-0.011 0.007,-0.021 0.007,-0.028c-0,-0.009 -0.005,-0.016 -0.013,-0.023c-0.009,-0.006 -0.019,-0.01 -0.031,-0.01c-0.024,0 -0.047,0.014 -0.07,0.042c-0.022,0.027 -0.033,0.056 -0.033,0.086c-0,0.033 0.013,0.05 0.04,0.05Z" /></g></g>
        <g transform="matrix(-0.244118,-0.969745,0.969745,-0.244118,-108.835,621.574)">
            <g transform="matrix(45.3333,0,0,45.3333,187.83,353.203)">
                <path d="M0.168,-0.267l-0.017,0.041c-0.015,0.037 -0.034,0.055 -0.058,0.055c-0.015,0 -0.027,-0.004 -0.037,-0.013c-0.01,-0.009 -0.014,-0.02 -0.014,-0.033c-0,-0.007 0.003,-0.02 0.01,-0.038l0.055,-0.136c0.014,-0.033 0.033,-0.049 0.057,-0.049c0.024,-0 0.039,0.011 0.044,0.034l0.004,0.015c0.002,0.008 0.005,0.013 0.009,0.015c0.004,0.001 0.014,0.002 0.029,0.002l0.114,0c0.043,0 0.064,0.015 0.064,0.045c0,0.042 -0.027,0.062 -0.081,0.062l-0.005,0.005c-0.052,0.05 -0.078,0.088 -0.078,0.115c0,0.027 0.015,0.041 0.045,0.041l0.062,-0c0.041,-0 0.062,0.014 0.062,0.043c-0,0.02 -0.008,0.035 -0.022,0.046c-0.015,0.011 -0.035,0.017 -0.061,0.017l-0.096,-0c-0.032,-0 -0.059,-0.011 -0.079,-0.034c-0.021,-0.022 -0.031,-0.051 -0.031,-0.087c-0,-0.023 0.005,-0.045 0.016,-0.066c0.011,-0.022 0.031,-0.048 0.059,-0.08l-0.051,0Z" /></g></g>
        <g transform="matrix(-0.105093,-0.994462,0.994462,-0.105093,-131.277,552.522)">
            <g transform="matrix(45.3333,0,0,45.3333,182.966,335.328)">
                <path d="M0.408,-0.106l0.058,-0c0.042,-0 0.062,0.014 0.062,0.043c0,0.02 -0.007,0.035 -0.022,0.046c-0.014,0.011 -0.034,0.017 -0.06,0.017l-0.102,-0c-0.02,-0 -0.037,-0.006 -0.05,-0.018c-0.014,-0.012 -0.021,-0.027 -0.021,-0.045c0,-0.012 0.005,-0.028 0.014,-0.05l0.043,-0.107c0.005,-0.011 0.007,-0.02 0.007,-0.027c0.001,-0.007 -0.002,-0.014 -0.009,-0.02c-0.007,-0.005 -0.015,-0.008 -0.026,-0.008c-0.033,0 -0.06,0.025 -0.081,0.076l-0.057,0.141c-0.018,0.043 -0.043,0.065 -0.078,0.065c-0.014,-0 -0.025,-0.004 -0.035,-0.013c-0.01,-0.008 -0.015,-0.019 -0.015,-0.031c0,-0.009 0.003,-0.02 0.008,-0.033l0.005,-0.013l0.099,-0.243c0.013,-0.032 0.034,-0.048 0.065,-0.048c0.025,0 0.043,0.012 0.054,0.034c0.034,-0.027 0.068,-0.04 0.099,-0.04c0.031,-0 0.056,0.008 0.076,0.026c0.02,0.018 0.03,0.04 0.03,0.067c-0,0.015 -0.004,0.031 -0.011,0.049l-0.053,0.132Z" /></g></g>
        <g transform="matrix(0.0174397,-0.999848,0.999848,0.0174397,-135.12,487.914)">
            <g transform="matrix(45.3333,0,0,45.3333,180.689,312.706)">
                <path d="M0.182,-0.106l0.055,-0c0.041,-0 0.061,0.014 0.061,0.043c0,0.02 -0.007,0.035 -0.021,0.046c-0.015,0.011 -0.035,0.017 -0.061,0.017l-0.078,-0c-0.028,-0 -0.051,-0.006 -0.067,-0.018c-0.017,-0.011 -0.025,-0.027 -0.025,-0.047c-0,-0.011 0.003,-0.025 0.01,-0.041l0.081,-0.199l0.005,-0.013c0.015,-0.037 0.039,-0.056 0.072,-0.056c0.014,0 0.026,0.005 0.036,0.014c0.01,0.009 0.015,0.02 0.015,0.033c-0,0.01 -0.005,0.026 -0.014,0.048l-0.069,0.173Zm0.064,-0.423c0.019,-0 0.035,0.006 0.048,0.019c0.013,0.014 0.02,0.03 0.02,0.049c-0,0.018 -0.007,0.034 -0.02,0.048c-0.013,0.013 -0.029,0.019 -0.048,0.019c-0.019,0 -0.035,-0.006 -0.048,-0.019c-0.013,-0.014 -0.02,-0.03 -0.02,-0.048c0,-0.019 0.007,-0.035 0.02,-0.049c0.013,-0.013 0.029,-0.019 0.048,-0.019Z" /></g></g>
        <g transform="matrix(0.132509,-0.991182,0.991182,0.132509,-141.207,439.368)">
            <g transform="matrix(45.3333,0,0,45.3333,180.404,300.355)">
                <path d="M0.408,-0.106l0.058,-0c0.042,-0 0.062,0.014 0.062,0.043c0,0.02 -0.007,0.035 -0.022,0.046c-0.014,0.011 -0.034,0.017 -0.06,0.017l-0.102,-0c-0.02,-0 -0.037,-0.006 -0.05,-0.018c-0.014,-0.012 -0.021,-0.027 -0.021,-0.045c0,-0.012 0.005,-0.028 0.014,-0.05l0.043,-0.107c0.005,-0.011 0.007,-0.02 0.007,-0.027c0.001,-0.007 -0.002,-0.014 -0.009,-0.02c-0.007,-0.005 -0.015,-0.008 -0.026,-0.008c-0.033,0 -0.06,0.025 -0.081,0.076l-0.057,0.141c-0.018,0.043 -0.043,0.065 -0.078,0.065c-0.014,-0 -0.025,-0.004 -0.035,-0.013c-0.01,-0.008 -0.015,-0.019 -0.015,-0.031c0,-0.009 0.003,-0.02 0.008,-0.033l0.005,-0.013l0.099,-0.243c0.013,-0.032 0.034,-0.048 0.065,-0.048c0.025,0 0.043,0.012 0.054,0.034c0.034,-0.027 0.068,-0.04 0.099,-0.04c0.031,-0 0.056,0.008 0.076,0.026c0.02,0.018 0.03,0.04 0.03,0.067c-0,0.015 -0.004,0.031 -0.011,0.049l-0.053,0.132Z" /></g></g>
        <g transform="matrix(0.252423,-0.967617,0.967617,0.252423,-131.656,385.32)">
            <g transform="matrix(45.3333,0,0,45.3333,183.539,277.863)">
                <path d="M0.333,0.014l0.059,-0c0.041,-0 0.062,0.014 0.062,0.043c0,0.019 -0.007,0.035 -0.022,0.046c-0.015,0.012 -0.035,0.017 -0.06,0.017l-0.081,0l-0.021,0.05c-0.05,0.122 -0.123,0.184 -0.218,0.184c-0.05,-0 -0.092,-0.016 -0.125,-0.047c-0.034,-0.031 -0.051,-0.07 -0.051,-0.116c0,-0.03 0.009,-0.059 0.025,-0.085c0.016,-0.027 0.038,-0.048 0.066,-0.064c0.034,-0.019 0.081,-0.028 0.139,-0.028l0.105,-0l0.015,-0.038c-0.02,0.012 -0.04,0.018 -0.058,0.018c-0.035,0 -0.063,-0.012 -0.085,-0.036c-0.021,-0.024 -0.032,-0.055 -0.032,-0.094c-0,-0.063 0.022,-0.119 0.066,-0.169c0.044,-0.05 0.093,-0.075 0.148,-0.075c0.04,-0 0.07,0.013 0.089,0.039c0.016,-0.026 0.037,-0.039 0.065,-0.039c0.014,-0 0.026,0.004 0.035,0.013c0.01,0.009 0.015,0.02 0.015,0.033c-0,0.01 -0.004,0.025 -0.013,0.046l-0.123,0.302Zm-0.063,-0.147l0.04,-0.096c0.003,-0.009 0.004,-0.015 0.004,-0.021c0,-0.009 -0.004,-0.017 -0.012,-0.024c-0.009,-0.006 -0.02,-0.01 -0.033,-0.01c-0.023,0 -0.046,0.014 -0.067,0.041c-0.021,0.026 -0.032,0.055 -0.032,0.085c-0,0.034 0.016,0.051 0.048,0.051c0.027,0 0.045,-0.009 0.052,-0.026Zm-0.103,0.253l-0.084,0c-0.029,0 -0.052,0.006 -0.068,0.019c-0.016,0.012 -0.024,0.029 -0.024,0.052c-0,0.015 0.005,0.028 0.016,0.039c0.011,0.011 0.025,0.016 0.041,0.016c0.024,0 0.044,-0.009 0.062,-0.028c0.017,-0.018 0.037,-0.051 0.057,-0.098Z" /></g></g></g>
    <path id="LearningAll" d="M1019.09,407.197l2.012,25.951l0.044,29.792l-2.569,32.48l-4.063,23.87l-7.109,30.114l-8.973,27.455l-8.997,22.416l-8.4,16.85l-10.823,19.862l-10.312,16.794l-18.799,25.389l-101.972,-81.879l10.766,-14.517l9.1,-14.472l5.922,-11.047l5.553,-11.371l5.87,-13.929l3.836,-10.963l3.393,-11.395l2.39,-10.877l2.503,-12.87l2.431,-22.315l-0.01,-20.422l-1.29,-17.287l-1.63,-11.524l-0.828,-6.596l-1.408,-7.651l-3.422,-14.604l-5.612,-16.889l-8.792,-21.656l-20.923,-35.635l101.308,-79.673l26.391,39.197l12.625,24.431l11.961,28.835l8.105,24.598l6.776,27.353l4.946,32.185Z" style="fill:#9592a8;fill-opacity:0;"/>

    <g id="ContactTxt" transform="matrix(0.206947,-2.5416,2.5416,0.206947,-379.453,1235.19)">
        <g transform="matrix(-0.648006,-0.761635,0.761635,-0.648006,57.8726,856.313)">
            <g transform="matrix(45.3333,0,0,45.3333,226.811,414.783)">
                <path d="M0.294,-0.333c-0.044,0.078 -0.066,0.15 -0.066,0.217c0,0.047 0.011,0.081 0.032,0.102c0.022,0.02 0.058,0.031 0.109,0.031l0.271,-0c0.045,-0 0.068,0.015 0.068,0.046c-0,0.022 -0.008,0.039 -0.024,0.052c-0.016,0.012 -0.038,0.018 -0.067,0.018l-0.283,0c-0.047,0 -0.085,-0.006 -0.113,-0.019c-0.04,-0.018 -0.071,-0.047 -0.093,-0.084c-0.023,-0.038 -0.034,-0.082 -0.034,-0.13c0,-0.065 0.02,-0.143 0.06,-0.233l-0.04,-0c-0.037,-0 -0.055,-0.016 -0.055,-0.047c0,-0.02 0.008,-0.036 0.023,-0.05c0.015,-0.013 0.033,-0.02 0.054,-0.02l0.084,-0c0.03,-0.049 0.069,-0.096 0.118,-0.141c0.064,-0.057 0.132,-0.086 0.205,-0.086c0.048,0 0.088,0.015 0.12,0.045c0.031,0.029 0.047,0.067 0.047,0.113c-0,0.065 -0.03,0.116 -0.091,0.15c-0.042,0.024 -0.107,0.036 -0.198,0.036l-0.127,-0Zm0.073,-0.117l0.094,-0c0.081,-0 0.122,-0.022 0.122,-0.065c0,-0.014 -0.005,-0.025 -0.016,-0.034c-0.01,-0.008 -0.024,-0.013 -0.04,-0.013c-0.025,0 -0.052,0.011 -0.081,0.031c-0.029,0.02 -0.056,0.047 -0.079,0.081Z" /></g></g>
        <g transform="matrix(-0.540502,-0.841343,0.841343,-0.540502,-9.17956,784.866)">
            <g transform="matrix(45.3333,0,0,45.3333,209.737,394.94)">
                <path d="M0.272,-0.38c0.047,-0 0.086,0.015 0.116,0.045c0.031,0.029 0.046,0.068 0.046,0.114c0,0.035 -0.008,0.069 -0.024,0.104c-0.016,0.034 -0.036,0.061 -0.062,0.082c-0.017,0.013 -0.034,0.022 -0.052,0.027c-0.018,0.005 -0.044,0.008 -0.076,0.008c-0.053,0 -0.089,-0.006 -0.108,-0.019c-0.043,-0.03 -0.065,-0.074 -0.065,-0.133c-0,-0.062 0.022,-0.115 0.067,-0.16c0.044,-0.046 0.097,-0.068 0.158,-0.068Zm-0.012,0.104c-0.024,-0 -0.046,0.012 -0.066,0.035c-0.02,0.024 -0.029,0.05 -0.029,0.079c-0,0.038 0.021,0.057 0.063,0.057c0.025,-0 0.044,-0.008 0.057,-0.023c0.022,-0.025 0.033,-0.054 0.033,-0.086c0,-0.019 -0.005,-0.034 -0.016,-0.045c-0.01,-0.012 -0.024,-0.017 -0.042,-0.017Z" /></g></g>
        <g transform="matrix(-0.41637,-0.909195,0.909195,-0.41637,-62.6142,718.478)">
            <g transform="matrix(45.3333,0,0,45.3333,199.295,379.336)">
                <path d="M0.408,-0.106l0.058,-0c0.042,-0 0.062,0.014 0.062,0.043c0,0.02 -0.007,0.035 -0.022,0.046c-0.014,0.011 -0.034,0.017 -0.06,0.017l-0.102,-0c-0.02,-0 -0.037,-0.006 -0.05,-0.018c-0.014,-0.012 -0.021,-0.027 -0.021,-0.045c0,-0.012 0.005,-0.028 0.014,-0.05l0.043,-0.107c0.005,-0.011 0.007,-0.02 0.007,-0.027c0.001,-0.007 -0.002,-0.014 -0.009,-0.02c-0.007,-0.005 -0.015,-0.008 -0.026,-0.008c-0.033,0 -0.06,0.025 -0.081,0.076l-0.057,0.141c-0.018,0.043 -0.043,0.065 -0.078,0.065c-0.014,-0 -0.025,-0.004 -0.035,-0.013c-0.01,-0.008 -0.015,-0.019 -0.015,-0.031c0,-0.009 0.003,-0.02 0.008,-0.033l0.005,-0.013l0.099,-0.243c0.013,-0.032 0.034,-0.048 0.065,-0.048c0.025,0 0.043,0.012 0.054,0.034c0.034,-0.027 0.068,-0.04 0.099,-0.04c0.031,-0 0.056,0.008 0.076,0.026c0.02,0.018 0.03,0.04 0.03,0.067c-0,0.015 -0.004,0.031 -0.011,0.049l-0.053,0.132Z" /></g></g>
        <g transform="matrix(-0.291315,-0.956627,0.956627,-0.291315,-97.9265,644.747)">
            <g transform="matrix(45.3333,0,0,45.3333,189.856,358.646)">
                <path d="M0.29,-0.374l0.015,0c0.042,0 0.062,0.015 0.062,0.044c0,0.02 -0.007,0.035 -0.022,0.046c-0.014,0.011 -0.035,0.017 -0.06,0.017l-0.036,-0l-0.065,0.161l0.054,-0c0.042,-0 0.062,0.014 0.062,0.043c0,0.02 -0.007,0.035 -0.021,0.046c-0.015,0.011 -0.035,0.017 -0.061,0.017l-0.088,-0c-0.024,-0 -0.044,-0.006 -0.058,-0.017c-0.015,-0.011 -0.022,-0.027 -0.022,-0.046c-0,-0.013 0.003,-0.026 0.009,-0.041l0.009,-0.021l0.057,-0.142l-0.007,-0c-0.036,-0 -0.055,-0.014 -0.055,-0.043c0,-0.02 0.008,-0.035 0.022,-0.047c0.015,-0.011 0.035,-0.017 0.061,-0.017l0.022,0l0.026,-0.064l0.006,-0.013c0.015,-0.036 0.039,-0.054 0.072,-0.054c0.013,0 0.025,0.005 0.034,0.014c0.01,0.008 0.015,0.019 0.015,0.032c-0,0.012 -0.004,0.028 -0.013,0.047l-0.018,0.038Z" /></g></g>
        <g transform="matrix(-0.180672,-0.983543,0.983543,-0.180672,-121.044,590.482)">
            <g transform="matrix(45.3333,0,0,45.3333,185.425,345.658)">
                <path d="M0.379,-0.106l0.054,-0c0.041,-0 0.062,0.014 0.062,0.043c-0,0.019 -0.008,0.035 -0.022,0.046c-0.015,0.011 -0.035,0.017 -0.061,0.017l-0.062,-0c-0.028,-0 -0.047,-0.011 -0.058,-0.033c-0.024,0.022 -0.048,0.033 -0.07,0.033l-0.056,-0c-0.036,-0 -0.065,-0.013 -0.087,-0.038c-0.022,-0.026 -0.033,-0.059 -0.033,-0.101c0,-0.062 0.022,-0.118 0.065,-0.167c0.043,-0.05 0.092,-0.074 0.146,-0.074c0.042,-0 0.072,0.014 0.092,0.043c0.016,-0.024 0.037,-0.037 0.064,-0.037c0.014,0 0.026,0.005 0.035,0.014c0.01,0.009 0.015,0.02 0.015,0.034c-0,0.009 -0.003,0.02 -0.008,0.033l-0.005,0.013l-0.071,0.174Zm-0.177,0.002l0.012,-0c0.027,-0 0.045,-0.011 0.054,-0.033l0.034,-0.084c0.004,-0.011 0.007,-0.021 0.007,-0.028c-0,-0.009 -0.005,-0.016 -0.013,-0.023c-0.009,-0.006 -0.019,-0.01 -0.031,-0.01c-0.024,0 -0.047,0.014 -0.07,0.042c-0.022,0.027 -0.033,0.056 -0.033,0.086c-0,0.033 0.013,0.05 0.04,0.05Z" /></g></g>
        <g transform="matrix(-0.0499045,-0.998754,0.998754,-0.0499045,-133.838,522.298)">
            <g transform="matrix(45.3333,0,0,45.3333,181.507,324.808)">
                <path d="M0.326,-0l-0.142,-0c-0.041,-0 -0.074,-0.014 -0.099,-0.043c-0.026,-0.029 -0.039,-0.066 -0.039,-0.111c0,-0.061 0.021,-0.114 0.063,-0.159c0.042,-0.045 0.092,-0.067 0.148,-0.067c0.039,-0 0.07,0.01 0.094,0.032c0.024,0.021 0.036,0.049 0.036,0.084c0,0.024 -0.006,0.044 -0.018,0.059c-0.012,0.016 -0.027,0.023 -0.046,0.023c-0.03,0 -0.045,-0.014 -0.045,-0.042l-0,-0.01c0,-0.004 0,-0.007 0,-0.011c0,-0.022 -0.011,-0.034 -0.033,-0.034c-0.022,0 -0.041,0.011 -0.058,0.034c-0.018,0.022 -0.026,0.047 -0.026,0.075c-0,0.023 0.007,0.04 0.021,0.049c0.014,0.01 0.038,0.015 0.072,0.015l0.092,-0c0.042,-0 0.062,0.014 0.062,0.043c0,0.02 -0.007,0.035 -0.022,0.046c-0.015,0.011 -0.035,0.017 -0.06,0.017Z" /></g></g>
        <g transform="matrix(0.0609717,-0.998139,0.998139,0.0609717,-137.491,468.983)">
            <g transform="matrix(45.3333,0,0,45.3333,180.507,307.565)">
                <path d="M0.29,-0.374l0.015,0c0.042,0 0.062,0.015 0.062,0.044c0,0.02 -0.007,0.035 -0.022,0.046c-0.014,0.011 -0.035,0.017 -0.06,0.017l-0.036,-0l-0.065,0.161l0.054,-0c0.042,-0 0.062,0.014 0.062,0.043c0,0.02 -0.007,0.035 -0.021,0.046c-0.015,0.011 -0.035,0.017 -0.061,0.017l-0.088,-0c-0.024,-0 -0.044,-0.006 -0.058,-0.017c-0.015,-0.011 -0.022,-0.027 -0.022,-0.046c-0,-0.013 0.003,-0.026 0.009,-0.041l0.009,-0.021l0.057,-0.142l-0.007,-0c-0.036,-0 -0.055,-0.014 -0.055,-0.043c0,-0.02 0.008,-0.035 0.022,-0.047c0.015,-0.011 0.035,-0.017 0.061,-0.017l0.022,0l0.026,-0.064l0.006,-0.013c0.015,-0.036 0.039,-0.054 0.072,-0.054c0.013,0 0.025,0.005 0.034,0.014c0.01,0.008 0.015,0.019 0.015,0.032c-0,0.012 -0.004,0.028 -0.013,0.047l-0.018,0.038Z" /></g></g></g>
    <path id="ContactAll" d="M805.565,782.982l-24.121,9.728l-28.38,9.179l-31.399,7.378l-23.457,3.298l-31.958,2.398l-27.485,-0.626l-23.942,-1.289l-19.082,-2.57l-20.497,-3.963l-11.61,-3.444l40.751,-123.589l12.328,2.286l12.526,1.834l15.059,1.36l11.615,0.323l11.891,-0.231l11.093,-1.029l13.027,-1.528l22.006,-4.467l19.46,-6.218l16.083,-6.486l10.488,-5.056l6.034,-2.795l6.864,-3.668l12.878,-7.701l14.389,-10.483l17.966,-14.964l85.255,97.882l-24.046,19.865l-20.99,15.448l-24.009,14.71l-28.737,14.418Z" style={{fill:'#9592a8',fillOpacity:'0'}}/>

    <circle onClick={() => this.onStart()} id="InnerCircle" cx="468.75" cy="468.75" r="300.502" style={{fill:'#860303'}}/>
    <path onClick={() => this.onStart()} id="NavTop" d="M655.742,323.65l-88.869,219.094l-4.18,10.339c-6.305,14.225 -16.644,21.337 -31.016,21.337c-11.438,0 -19.578,-3.153 -24.417,-9.459c-4.839,-6.306 -7.919,-17.818 -9.239,-34.536l-10.119,-132.644l-45.974,113.507c-18.478,45.461 -32.52,76.367 -42.125,92.719c-9.606,16.351 -22.108,30.539 -37.506,42.564c-22.29,17.305 -47.881,25.957 -76.771,25.957c-30.796,0 -55.763,-9.678 -74.901,-29.036c-19.137,-19.358 -28.706,-44.508 -28.706,-75.451c-0,-41.355 15.105,-77.504 45.314,-108.447c16.132,-16.572 36.406,-29.99 60.823,-40.255c24.417,-10.266 48.284,-15.399 71.602,-15.399c12.318,0 22.07,2.53 29.256,7.589c7.186,5.06 10.779,11.916 10.779,20.568c-0,8.799 -2.86,15.398 -8.579,19.798c-5.719,4.399 -15.178,7.185 -28.377,8.359c-29.183,2.786 -52.72,9.532 -70.611,20.237c-14.812,8.946 -26.58,20.604 -35.306,34.976c-8.726,14.372 -13.089,29.403 -13.089,45.095c0,16.718 4.29,29.879 12.869,39.485c8.579,9.606 20.421,14.408 35.526,14.408c17.451,0 32.812,-7.625 46.084,-22.877c13.272,-15.252 27.68,-42.015 43.225,-80.29l87.11,-214.475c7.772,-19.211 19.577,-28.816 35.415,-28.816c18.332,-0 28.304,10.925 29.917,32.776l11.439,146.502l59.612,-146.502l3.52,-8.799c5.719,-13.785 15.765,-20.678 30.136,-20.678l9.019,-0.22l45.095,0c20.384,0 30.576,6.893 30.576,20.678c0,10.119 -3.593,17.964 -10.778,23.537c-7.186,5.573 -17.158,8.359 -29.917,8.359l-26.837,-0Z" />
</svg>