<?xml version="1.0" encoding="UTF-8" standalone="no"?><!DOCTYPE svg PUBLIC "-//W3C//DTD SVG 1.1//EN" "http://www.w3.org/Graphics/SVG/1.1/DTD/svg11.dtd"><svg width="100%" height="100%" viewBox="0 0 938 938" version="1.1" xmlns="http://www.w3.org/2000/svg" xmlns:xlink="http://www.w3.org/1999/xlink" xml:space="preserve" xmlns:serif="http://www.serif.com/" style="fill-rule:evenodd;clip-rule:evenodd;stroke-linejoin:round;stroke-miterlimit:2;"><circle id="OuterCircle" cx="468.75" cy="468.75" r="468.75" style="fill:#b6b6b6;"/>

<path id="SkillsAll" d="M81.45,223.114l19.941,-29.306l24.737,-31.691l30.339,-31.261l24.054,-22.683l31.787,-25.342l81.441,141.581l-14.387,11.961l-10.485,8.875l-21.299,22.974l-17.036,19.82l-13.396,19.104l-8.216,13.344l-5.431,9.373l-4.353,7.795l-9.715,20.926l-12.01,31.35l-9.851,33.438l-159.219,-27.222l7.161,-29.882l12.921,-39.456l13.572,-32.12l16.877,-34.145l22.568,-37.433Z" style="fill:#ab9797;fill-opacity:0;"/>

<g id="SkillsTxt" transform="matrix(1.27693,2.20727,-2.20727,1.27693,729.681,-644.318)"><g transform="matrix(-0.642881,-0.765966,0.765966,-0.642881,54.6879,855.169)"><g transform="matrix(45.3333,0,0,45.3333,226.698,414.836)"><path d="M0.474,-0.333l0.045,0.056l0.026,0.031c0.05,0.062 0.075,0.128 0.075,0.197c0,0.067 -0.022,0.125 -0.066,0.176c-0.061,0.069 -0.14,0.104 -0.238,0.104c-0.076,-0 -0.138,-0.023 -0.187,-0.07c-0.048,-0.047 -0.072,-0.107 -0.072,-0.18c-0,-0.089 0.037,-0.163 0.113,-0.223c0.04,-0.031 0.077,-0.047 0.111,-0.047c0.017,-0 0.032,0.005 0.043,0.015c0.011,0.01 0.016,0.023 0.016,0.039c0,0.022 -0.012,0.04 -0.038,0.056l-0.039,0.024c-0.022,0.014 -0.041,0.033 -0.056,0.058c-0.015,0.025 -0.022,0.05 -0.022,0.075c-0,0.038 0.013,0.07 0.039,0.095c0.026,0.026 0.059,0.038 0.1,0.038c0.044,0 0.083,-0.016 0.116,-0.05c0.033,-0.033 0.049,-0.072 0.049,-0.118c0,-0.028 -0.006,-0.054 -0.02,-0.078c-0.013,-0.023 -0.042,-0.059 -0.086,-0.109c-0.031,-0.034 -0.053,-0.064 -0.067,-0.089l-0.131,-0c-0.045,-0 -0.068,-0.016 -0.068,-0.047c0,-0.022 0.008,-0.04 0.024,-0.052c0.016,-0.012 0.038,-0.018 0.067,-0.018l0.083,-0c0.007,-0.065 0.036,-0.118 0.088,-0.16c0.053,-0.042 0.116,-0.063 0.189,-0.063c0.055,-0 0.1,0.015 0.134,0.045c0.035,0.03 0.052,0.07 0.052,0.118c0,0.064 -0.027,0.113 -0.082,0.147c-0.031,0.02 -0.081,0.03 -0.149,0.03l-0.049,-0Zm-0.058,-0.117l0.117,-0c0.066,-0 0.099,-0.019 0.099,-0.058c-0,-0.015 -0.007,-0.027 -0.02,-0.036c-0.014,-0.009 -0.032,-0.014 -0.054,-0.014c-0.036,0 -0.068,0.011 -0.096,0.033c-0.029,0.022 -0.045,0.047 -0.046,0.075Z" style="fill-rule:nonzero;"/></g></g><g transform="matrix(-0.513956,-0.857817,0.857817,-0.513956,-22.1441,770.684)"><g transform="matrix(45.3333,0,0,45.3333,207.265,391.616)"><path d="M0.344,-0.207l0.075,0.119c0.01,0.015 0.015,0.027 0.015,0.036c-0,0.015 -0.007,0.029 -0.019,0.041c-0.013,0.012 -0.027,0.018 -0.042,0.018c-0.014,-0 -0.026,-0.007 -0.036,-0.022l-0.006,-0.009l-0.113,-0.169l-0.055,0.135c-0.017,0.043 -0.043,0.065 -0.077,0.065c-0.014,-0 -0.026,-0.004 -0.035,-0.013c-0.01,-0.009 -0.015,-0.019 -0.015,-0.032c0,-0.009 0.003,-0.02 0.008,-0.032l0.005,-0.013l0.209,-0.516l0.006,-0.013c0.015,-0.036 0.039,-0.055 0.071,-0.055c0.014,0 0.026,0.005 0.036,0.014c0.009,0.009 0.014,0.02 0.014,0.033c0,0.01 -0.002,0.021 -0.008,0.034l-0.005,0.013l-0.124,0.306l0.109,-0.081c0.023,-0.017 0.043,-0.026 0.059,-0.026c0.014,0 0.025,0.005 0.034,0.014c0.009,0.008 0.014,0.019 0.014,0.032c-0,0.022 -0.012,0.042 -0.036,0.06l-0.011,0.008l-0.073,0.053Z" style="fill-rule:nonzero;"/></g></g><g transform="matrix(-0.414634,-0.909988,0.909988,-0.414634,-62.115,709.791)"><g transform="matrix(45.3333,0,0,45.3333,197.235,374.874)"><path d="M0.182,-0.106l0.055,-0c0.041,-0 0.061,0.014 0.061,0.043c0,0.02 -0.007,0.035 -0.021,0.046c-0.015,0.011 -0.035,0.017 -0.061,0.017l-0.078,-0c-0.028,-0 -0.051,-0.006 -0.067,-0.018c-0.017,-0.011 -0.025,-0.027 -0.025,-0.047c-0,-0.011 0.003,-0.025 0.01,-0.041l0.081,-0.199l0.005,-0.013c0.015,-0.037 0.039,-0.056 0.072,-0.056c0.014,0 0.026,0.005 0.036,0.014c0.01,0.009 0.015,0.02 0.015,0.033c-0,0.01 -0.005,0.026 -0.014,0.048l-0.069,0.173Zm0.064,-0.423c0.019,-0 0.035,0.006 0.048,0.019c0.013,0.014 0.02,0.03 0.02,0.049c-0,0.018 -0.007,0.034 -0.02,0.048c-0.013,0.013 -0.029,0.019 -0.048,0.019c-0.019,0 -0.035,-0.006 -0.048,-0.019c-0.013,-0.014 -0.02,-0.03 -0.02,-0.048c0,-0.019 0.007,-0.035 0.02,-0.049c0.013,-0.013 0.029,-0.019 0.048,-0.019Z" style="fill-rule:nonzero;"/></g></g><g transform="matrix(-0.327,-0.945024,0.945024,-0.327,-89.1289,664.084)"><g transform="matrix(45.3333,0,0,45.3333,191.9,363.779)"><path d="M0.177,-0.106l0.051,-0c0.041,-0 0.062,0.014 0.062,0.043c0,0.02 -0.007,0.035 -0.022,0.046c-0.014,0.011 -0.034,0.017 -0.06,0.017l-0.088,-0c-0.024,-0 -0.044,-0.006 -0.057,-0.017c-0.014,-0.011 -0.021,-0.027 -0.021,-0.046c-0,-0.01 0.004,-0.027 0.014,-0.05l0.197,-0.486l0.005,-0.013c0.015,-0.036 0.039,-0.055 0.072,-0.055c0.014,0 0.025,0.005 0.035,0.014c0.01,0.009 0.014,0.02 0.014,0.033c0,0.01 -0.002,0.021 -0.007,0.033l-0.005,0.013l-0.19,0.468Z" style="fill-rule:nonzero;"/></g></g><g transform="matrix(-0.247141,-0.968979,0.968979,-0.247141,-107.472,621.425)"><g transform="matrix(45.3333,0,0,45.3333,187.675,352.463)"><path d="M0.177,-0.106l0.051,-0c0.041,-0 0.062,0.014 0.062,0.043c0,0.02 -0.007,0.035 -0.022,0.046c-0.014,0.011 -0.034,0.017 -0.06,0.017l-0.088,-0c-0.024,-0 -0.044,-0.006 -0.057,-0.017c-0.014,-0.011 -0.021,-0.027 -0.021,-0.046c-0,-0.01 0.004,-0.027 0.014,-0.05l0.197,-0.486l0.005,-0.013c0.015,-0.036 0.039,-0.055 0.072,-0.055c0.014,0 0.025,0.005 0.035,0.014c0.01,0.009 0.014,0.02 0.014,0.033c0,0.01 -0.002,0.021 -0.007,0.033l-0.005,0.013l-0.19,0.468Z" style="fill-rule:nonzero;"/></g></g><g transform="matrix(-0.169847,-0.98547,0.98547,-0.169847,-120.128,580.528)"><g transform="matrix(45.3333,0,0,45.3333,184.452,340.861)"><path d="M0.208,-0.24l-0.009,0.022c-0.014,0.032 -0.034,0.049 -0.061,0.049c-0.013,-0 -0.025,-0.005 -0.036,-0.014c-0.01,-0.01 -0.016,-0.02 -0.016,-0.032c0,-0.012 0.005,-0.027 0.015,-0.046l0.065,-0.132c0.015,-0.031 0.035,-0.047 0.059,-0.047c0.013,0 0.024,0.004 0.033,0.013c0.009,0.008 0.013,0.018 0.013,0.029c0,0.003 -0,0.009 -0.002,0.019c-0.002,0.007 -0.002,0.014 -0.002,0.019c-0,0.021 0.007,0.042 0.023,0.063l0.027,0.039c0.029,0.039 0.043,0.077 0.043,0.114c-0,0.041 -0.015,0.075 -0.046,0.103c-0.031,0.027 -0.069,0.041 -0.114,0.041l-0.102,-0c-0.042,-0 -0.062,-0.014 -0.062,-0.043c-0,-0.02 0.007,-0.035 0.022,-0.047c0.014,-0.011 0.034,-0.016 0.06,-0.016l0.057,-0c0.045,-0 0.068,-0.017 0.068,-0.05c-0,-0.012 -0.005,-0.026 -0.013,-0.042l-0.022,-0.042Z" style="fill-rule:nonzero;"/></g></g></g>

<path id="WelcomeAll" d="M79.169,704.249l-17.783,-30.458l-17.948,-35.734l-15.307,-40.483l-10.284,-31.172l-9.505,-39.158l-6.339,-37.294l-2.918,-31.331l-1.287,-32.128l160.043,21.947l1.077,22.908l2.375,19.119l2.002,12.972l2.734,14.238l4.735,17.94l3.591,13.142l11.652,28.872l10.594,23.729l11.431,20.204l8.446,13.107l6.069,8.907l5.115,7.263l14.523,17.761l73.813,66.442l25.776,15.262l-56.886,150.192l-22.675,-13.186l-20.766,-13.067l-35.106,-24.868l-27.601,-24.087l-29.565,-28.73l-22.834,-26.08l-23.286,-29.884l-23.886,-36.345Z" style="fill:#9f9d9d;fill-opacity:0;"/>
<g id="WelcomeTxt" transform="matrix(2.39267,-0.88187,0.88187,2.39267,-583.472,21.8599)"><g transform="matrix(-0.564286,-0.825579,0.825579,-0.564286,7.73876,836.882)"><g transform="matrix(45.3333,0,0,45.3333,224.709,416.399)"><path d="M1.21,-0.55l-0.301,0.517c-0.022,0.039 -0.049,0.058 -0.081,0.058c-0.025,-0 -0.044,-0.008 -0.057,-0.023c-0.013,-0.015 -0.02,-0.037 -0.02,-0.064l0.013,-0.351l-0.178,0.38c-0.018,0.039 -0.044,0.058 -0.078,0.058c-0.024,-0 -0.043,-0.008 -0.057,-0.023c-0.014,-0.016 -0.021,-0.037 -0.021,-0.064l-0.01,-0.338c-0,-0.059 -0.005,-0.1 -0.015,-0.12c-0.011,-0.021 -0.031,-0.031 -0.06,-0.031c-0.027,-0 -0.053,0.014 -0.079,0.041c-0.026,0.028 -0.039,0.056 -0.039,0.085c0,0.023 0.007,0.043 0.022,0.057c0.015,0.015 0.034,0.022 0.058,0.022c0.006,0 0.013,0 0.019,-0c0.006,-0.001 0.01,-0.001 0.012,-0.001c0.04,0 0.059,0.017 0.059,0.05c0,0.021 -0.011,0.04 -0.033,0.054c-0.023,0.015 -0.051,0.022 -0.085,0.022c-0.053,-0 -0.097,-0.018 -0.131,-0.054c-0.035,-0.037 -0.052,-0.082 -0.052,-0.138c0,-0.067 0.028,-0.127 0.082,-0.181c0.055,-0.053 0.117,-0.079 0.187,-0.079c0.063,-0 0.109,0.018 0.138,0.056c0.028,0.037 0.042,0.096 0.042,0.179l0.001,0.038l0.003,0.17l0.174,-0.378c0.02,-0.044 0.049,-0.065 0.089,-0.065c0.023,-0 0.042,0.006 0.056,0.02c0.014,0.013 0.021,0.031 0.021,0.054l-0.001,0.005l-0.009,0.372l0.22,-0.379l0.01,-0.019c0.018,-0.031 0.046,-0.047 0.083,-0.047l0.095,0c0.045,0 0.068,0.016 0.068,0.048c-0,0.022 -0.008,0.039 -0.024,0.051c-0.016,0.012 -0.038,0.018 -0.066,0.018l-0.055,0Z" style="fill-rule:nonzero;"/></g></g><g transform="matrix(-0.377048,-0.926194,0.926194,-0.377048,-75.1916,693.22)"><g transform="matrix(45.3333,0,0,45.3333,195.532,371.897)"><path d="M0.163,-0.143c0,0.024 0.018,0.037 0.055,0.037l0.145,-0c0.041,-0 0.062,0.014 0.062,0.043c-0,0.02 -0.007,0.035 -0.022,0.046c-0.014,0.011 -0.035,0.017 -0.061,0.017l-0.138,-0c-0.051,-0 -0.09,-0.013 -0.117,-0.038c-0.027,-0.025 -0.041,-0.063 -0.041,-0.111c0,-0.063 0.022,-0.117 0.064,-0.163c0.043,-0.046 0.093,-0.068 0.152,-0.068c0.042,-0 0.077,0.011 0.103,0.033c0.025,0.022 0.038,0.052 0.038,0.088c0,0.044 -0.018,0.077 -0.053,0.098c-0.02,0.012 -0.05,0.018 -0.089,0.018l-0.098,-0Zm0.024,-0.089l0.053,0c0.035,0 0.052,-0.008 0.051,-0.023c-0.001,-0.017 -0.012,-0.026 -0.034,-0.026c-0.03,0 -0.053,0.017 -0.07,0.049Z" style="fill-rule:nonzero;"/></g></g><g transform="matrix(-0.266331,-0.963882,0.963882,-0.266331,-103.536,631.57)"><g transform="matrix(45.3333,0,0,45.3333,188.595,355.189)"><path d="M0.177,-0.106l0.051,-0c0.041,-0 0.062,0.014 0.062,0.043c0,0.02 -0.007,0.035 -0.022,0.046c-0.014,0.011 -0.034,0.017 -0.06,0.017l-0.088,-0c-0.024,-0 -0.044,-0.006 -0.057,-0.017c-0.014,-0.011 -0.021,-0.027 -0.021,-0.046c-0,-0.01 0.004,-0.027 0.014,-0.05l0.197,-0.486l0.005,-0.013c0.015,-0.036 0.039,-0.055 0.072,-0.055c0.014,0 0.025,0.005 0.035,0.014c0.01,0.009 0.014,0.02 0.014,0.033c0,0.01 -0.002,0.021 -0.007,0.033l-0.005,0.013l-0.19,0.468Z" style="fill-rule:nonzero;"/></g></g><g transform="matrix(-0.179899,-0.983685,0.983685,-0.179899,-119.683,587.461)"><g transform="matrix(45.3333,0,0,45.3333,185.042,343.621)"><path d="M0.326,-0l-0.142,-0c-0.041,-0 -0.074,-0.014 -0.099,-0.043c-0.026,-0.029 -0.039,-0.066 -0.039,-0.111c0,-0.061 0.021,-0.114 0.063,-0.159c0.042,-0.045 0.092,-0.067 0.148,-0.067c0.039,-0 0.07,0.01 0.094,0.032c0.024,0.021 0.036,0.049 0.036,0.084c0,0.024 -0.006,0.044 -0.018,0.059c-0.012,0.016 -0.027,0.023 -0.046,0.023c-0.03,0 -0.045,-0.014 -0.045,-0.042l-0,-0.01c0,-0.004 0,-0.007 0,-0.011c0,-0.022 -0.011,-0.034 -0.033,-0.034c-0.022,0 -0.041,0.011 -0.058,0.034c-0.018,0.022 -0.026,0.047 -0.026,0.075c-0,0.023 0.007,0.04 0.021,0.049c0.014,0.01 0.038,0.015 0.072,0.015l0.092,-0c0.042,-0 0.062,0.014 0.062,0.043c0,0.02 -0.007,0.035 -0.022,0.046c-0.015,0.011 -0.035,0.017 -0.06,0.017Z" style="fill-rule:nonzero;"/></g></g><g transform="matrix(-0.0586012,-0.998281,0.998281,-0.0586012,-133.768,527.211)"><g transform="matrix(45.3333,0,0,45.3333,181.701,326.679)"><path d="M0.272,-0.38c0.047,-0 0.086,0.015 0.116,0.045c0.031,0.029 0.046,0.068 0.046,0.114c0,0.035 -0.008,0.069 -0.024,0.104c-0.016,0.034 -0.036,0.061 -0.062,0.082c-0.017,0.013 -0.034,0.022 -0.052,0.027c-0.018,0.005 -0.044,0.008 -0.076,0.008c-0.053,0 -0.089,-0.006 -0.108,-0.019c-0.043,-0.03 -0.065,-0.074 -0.065,-0.133c-0,-0.062 0.022,-0.115 0.067,-0.16c0.044,-0.046 0.097,-0.068 0.158,-0.068Zm-0.012,0.104c-0.024,-0 -0.046,0.012 -0.066,0.035c-0.02,0.024 -0.029,0.05 -0.029,0.079c-0,0.038 0.021,0.057 0.063,0.057c0.025,-0 0.044,-0.008 0.057,-0.023c0.022,-0.025 0.033,-0.054 0.033,-0.086c0,-0.019 -0.005,-0.034 -0.016,-0.045c-0.01,-0.012 -0.024,-0.017 -0.042,-0.017Z" style="fill-rule:nonzero;"/></g></g><g transform="matrix(0.116076,-0.99324,0.99324,0.116076,-146.889,450.608)"><g transform="matrix(45.3333,0,0,45.3333,179.724,307.832)"><path d="M0.633,-0.106l0.058,-0c0.041,-0 0.062,0.014 0.062,0.043c-0,0.02 -0.007,0.035 -0.022,0.046c-0.014,0.011 -0.034,0.017 -0.06,0.017l-0.099,-0c-0.022,-0 -0.039,-0.006 -0.052,-0.017c-0.014,-0.011 -0.02,-0.026 -0.02,-0.045c-0,-0.013 0.004,-0.03 0.013,-0.052l0.046,-0.112c0.002,-0.006 0.003,-0.012 0.003,-0.018c0,-0.021 -0.01,-0.031 -0.032,-0.031c-0.016,-0 -0.033,0.007 -0.049,0.022c-0.016,0.015 -0.029,0.035 -0.039,0.06l-0.055,0.134c-0.018,0.044 -0.044,0.066 -0.078,0.066c-0.013,-0 -0.025,-0.005 -0.034,-0.013c-0.01,-0.009 -0.014,-0.02 -0.014,-0.032c-0,-0.009 0.002,-0.02 0.007,-0.033l0.005,-0.013l0.056,-0.136c0.004,-0.012 0.007,-0.022 0.007,-0.029c-0,-0.007 -0.003,-0.013 -0.01,-0.018c-0.006,-0.006 -0.014,-0.008 -0.023,-0.008c-0.035,-0 -0.063,0.025 -0.083,0.076l-0.057,0.14c-0.018,0.044 -0.044,0.066 -0.078,0.066c-0.013,-0 -0.025,-0.004 -0.034,-0.013c-0.01,-0.009 -0.015,-0.019 -0.015,-0.032c0,-0.009 0.003,-0.02 0.007,-0.033l0.006,-0.013l0.097,-0.239c0.014,-0.034 0.034,-0.051 0.062,-0.051c0.028,0 0.045,0.014 0.052,0.041c0.022,-0.019 0.04,-0.032 0.054,-0.038c0.014,-0.006 0.031,-0.009 0.051,-0.009c0.044,-0 0.077,0.019 0.098,0.057c0.037,-0.038 0.078,-0.057 0.123,-0.057c0.032,-0 0.058,0.009 0.079,0.027c0.021,0.018 0.031,0.04 0.031,0.066c0,0.017 -0.003,0.034 -0.01,0.052l-0.053,0.129Z" style="fill-rule:nonzero;"/></g></g><g transform="matrix(0.289089,-0.957302,0.957302,0.289089,-132.716,371.719)"><g transform="matrix(45.3333,0,0,45.3333,183.918,275.216)"><path d="M0.163,-0.143c0,0.024 0.018,0.037 0.055,0.037l0.145,-0c0.041,-0 0.062,0.014 0.062,0.043c-0,0.02 -0.007,0.035 -0.022,0.046c-0.014,0.011 -0.035,0.017 -0.061,0.017l-0.138,-0c-0.051,-0 -0.09,-0.013 -0.117,-0.038c-0.027,-0.025 -0.041,-0.063 -0.041,-0.111c0,-0.063 0.022,-0.117 0.064,-0.163c0.043,-0.046 0.093,-0.068 0.152,-0.068c0.042,-0 0.077,0.011 0.103,0.033c0.025,0.022 0.038,0.052 0.038,0.088c0,0.044 -0.018,0.077 -0.053,0.098c-0.02,0.012 -0.05,0.018 -0.089,0.018l-0.098,-0Zm0.024,-0.089l0.053,0c0.035,0 0.052,-0.008 0.051,-0.023c-0.001,-0.017 -0.012,-0.026 -0.034,-0.026c-0.03,0 -0.053,0.017 -0.07,0.049Z" style="fill-rule:nonzero;"/></g></g></g>

<path id="ProjectsAll" d="M498.869,3.802l37.805,4.496l42.46,7.759l44.834,13.073l33.547,11.349l39.921,17.164l36.257,18.66l28.894,17.729l28.521,19.634l-122.957,121.782l-17.144,-11.938l-18.39,-10.945l-14.305,-7.314l-15.143,-7.341l-14.701,-5.973l-17.49,-6.672l-30.88,-9.243l-28.907,-5.735l-24.842,-3.293l-16.784,-1.258l-9.576,-0.848l-11.238,-0.437l-21.663,0.059l-25.532,2.085l-33.203,4.618l-49.565,13.139l-68.044,-154.272l40.4,-11.522l38.698,-7.985l43.976,-6.662l37.317,-2.634l40.888,-0.566l46.846,3.091Z" style="fill:#9d9f9e;fill-opacity:0;"/>
<g id="ProjectsTxt" transform="matrix(-1.11044,2.29554,-2.29554,-1.11044,1536.43,60.1632)">
    <g transform="matrix(-0.628485,-0.777822,0.777822,-0.628485,45.8884,852.159)">
        <g transform="matrix(45.3333,0,0,45.3333,226.455,415.121)">
        <path d="M0.65,-0.333l-0.081,0.2c-0.041,0.099 -0.072,0.167 -0.094,0.204c-0.022,0.038 -0.049,0.07 -0.083,0.096c-0.049,0.038 -0.105,0.058 -0.17,0.058c-0.068,-0 -0.123,-0.022 -0.165,-0.065c-0.043,-0.043 -0.064,-0.099 -0.064,-0.167c0,-0.092 0.034,-0.172 0.101,-0.241c0.036,-0.037 0.081,-0.067 0.135,-0.09c0.055,-0.022 0.109,-0.034 0.162,-0.034c0.026,0 0.046,0.006 0.062,0.018c0.016,0.011 0.024,0.027 0.024,0.045c-0,0.02 -0.009,0.036 -0.026,0.048c-0.01,0.007 -0.028,0.012 -0.056,0.015c-0.064,0.006 -0.117,0.021 -0.157,0.044c-0.033,0.02 -0.059,0.046 -0.078,0.078c-0.02,0.032 -0.029,0.066 -0.029,0.102c-0,0.036 0.009,0.064 0.028,0.086c0.019,0.021 0.044,0.032 0.075,0.032c0.04,-0 0.074,-0.017 0.103,-0.051c0.029,-0.033 0.061,-0.093 0.096,-0.178l0.17,-0.417l-0.054,0c-0.045,0 -0.067,-0.015 -0.067,-0.047c-0,-0.022 0.008,-0.039 0.024,-0.051c0.015,-0.012 0.038,-0.019 0.066,-0.019l0.186,0c0.063,0 0.109,0.012 0.139,0.036c0.03,0.023 0.044,0.06 0.044,0.109c0,0.06 -0.023,0.109 -0.069,0.147c-0.033,0.028 -0.085,0.042 -0.155,0.042l-0.067,-0Zm0.047,-0.117l0.04,-0c0.052,-0 0.078,-0.021 0.078,-0.064c-0,-0.024 -0.015,-0.036 -0.044,-0.036l-0.033,0l-0.041,0.1Z" style="fill-rule:nonzero;"/></g></g>
    <g transform="matrix(-0.477543,-0.878608,0.878608,-0.477543,-38.4261,749.214)">
        <g transform="matrix(45.3333,0,0,45.3333,203.544,386.032)">
        <path d="M0.168,-0.267l-0.017,0.041c-0.015,0.037 -0.034,0.055 -0.058,0.055c-0.015,0 -0.027,-0.004 -0.037,-0.013c-0.01,-0.009 -0.014,-0.02 -0.014,-0.033c-0,-0.007 0.003,-0.02 0.01,-0.038l0.055,-0.136c0.014,-0.033 0.033,-0.049 0.057,-0.049c0.024,-0 0.039,0.011 0.044,0.034l0.004,0.015c0.002,0.008 0.005,0.013 0.009,0.015c0.004,0.001 0.014,0.002 0.029,0.002l0.114,0c0.043,0 0.064,0.015 0.064,0.045c0,0.042 -0.027,0.062 -0.081,0.062l-0.005,0.005c-0.052,0.05 -0.078,0.088 -0.078,0.115c0,0.027 0.015,0.041 0.045,0.041l0.062,-0c0.041,-0 0.062,0.014 0.062,0.043c-0,0.02 -0.008,0.035 -0.022,0.046c-0.015,0.011 -0.035,0.017 -0.061,0.017l-0.096,-0c-0.032,-0 -0.059,-0.011 -0.079,-0.034c-0.021,-0.022 -0.031,-0.051 -0.031,-0.087c-0,-0.023 0.005,-0.045 0.016,-0.066c0.011,-0.022 0.031,-0.048 0.059,-0.08l-0.051,0Z" style="fill-rule:nonzero;"/></g></g>
    <g transform="matrix(-0.361351,-0.93243,0.93243,-0.361351,-80.0643,684.956)">
        <g transform="matrix(45.3333,0,0,45.3333,194.541,369.897)">
        <path d="M0.272,-0.38c0.047,-0 0.086,0.015 0.116,0.045c0.031,0.029 0.046,0.068 0.046,0.114c0,0.035 -0.008,0.069 -0.024,0.104c-0.016,0.034 -0.036,0.061 -0.062,0.082c-0.017,0.013 -0.034,0.022 -0.052,0.027c-0.018,0.005 -0.044,0.008 -0.076,0.008c-0.053,0 -0.089,-0.006 -0.108,-0.019c-0.043,-0.03 -0.065,-0.074 -0.065,-0.133c-0,-0.062 0.022,-0.115 0.067,-0.16c0.044,-0.046 0.097,-0.068 0.158,-0.068Zm-0.012,0.104c-0.024,-0 -0.046,0.012 -0.066,0.035c-0.02,0.024 -0.029,0.05 -0.029,0.079c-0,0.038 0.021,0.057 0.063,0.057c0.025,-0 0.044,-0.008 0.057,-0.023c0.022,-0.025 0.033,-0.054 0.033,-0.086c0,-0.019 -0.005,-0.034 -0.016,-0.045c-0.01,-0.012 -0.024,-0.017 -0.042,-0.017Z" style="fill-rule:nonzero;"/></g></g>
    <g transform="matrix(-0.294281,-0.955719,0.955719,-0.294281,-93.4788,635.63)">
        <g transform="matrix(45.3333,0,0,45.3333,187.941,352.328)">
        <path d="M0.19,0.02l0.054,0c0.041,0 0.062,0.015 0.062,0.043c-0,0.02 -0.008,0.035 -0.022,0.047c-0.015,0.011 -0.035,0.016 -0.061,0.016l-0.076,0l-0.035,0.07l-0.014,0.029c-0.045,0.09 -0.109,0.135 -0.193,0.135c-0.051,-0 -0.093,-0.016 -0.127,-0.046c-0.034,-0.031 -0.051,-0.069 -0.051,-0.115c-0,-0.027 0.006,-0.054 0.02,-0.08c0.013,-0.025 0.031,-0.046 0.052,-0.061c0.036,-0.025 0.091,-0.038 0.165,-0.038l0.101,0l0.111,-0.273l-0.052,-0c-0.042,-0 -0.062,-0.015 -0.062,-0.044c-0,-0.02 0.007,-0.035 0.021,-0.046c0.015,-0.011 0.035,-0.017 0.062,-0.017l0.116,0c0.04,0 0.059,0.017 0.059,0.049c0,0.013 -0.003,0.028 -0.01,0.044l-0.12,0.287Zm-0.168,0.106l-0.068,0c-0.075,0 -0.112,0.025 -0.112,0.073c-0,0.015 0.005,0.028 0.015,0.038c0.011,0.01 0.024,0.015 0.041,0.015c0.024,-0 0.045,-0.009 0.063,-0.028c0.019,-0.018 0.039,-0.051 0.061,-0.098Zm0.29,-0.655c0.018,-0 0.034,0.006 0.048,0.019c0.013,0.014 0.019,0.03 0.019,0.049c0,0.018 -0.006,0.034 -0.019,0.048c-0.014,0.013 -0.03,0.019 -0.048,0.019c-0.019,0 -0.035,-0.006 -0.049,-0.019c-0.013,-0.014 -0.019,-0.03 -0.019,-0.048c-0,-0.019 0.006,-0.035 0.019,-0.049c0.014,-0.013 0.03,-0.019 0.049,-0.019Z" style="fill-rule:nonzero;"/></g></g>
    <g transform="matrix(-0.148885,-0.988854,0.988854,-0.148885,-124.332,572.074)">
        <g transform="matrix(45.3333,0,0,45.3333,184.028,339.544)">
        <path d="M0.163,-0.143c0,0.024 0.018,0.037 0.055,0.037l0.145,-0c0.041,-0 0.062,0.014 0.062,0.043c-0,0.02 -0.007,0.035 -0.022,0.046c-0.014,0.011 -0.035,0.017 -0.061,0.017l-0.138,-0c-0.051,-0 -0.09,-0.013 -0.117,-0.038c-0.027,-0.025 -0.041,-0.063 -0.041,-0.111c0,-0.063 0.022,-0.117 0.064,-0.163c0.043,-0.046 0.093,-0.068 0.152,-0.068c0.042,-0 0.077,0.011 0.103,0.033c0.025,0.022 0.038,0.052 0.038,0.088c0,0.044 -0.018,0.077 -0.053,0.098c-0.02,0.012 -0.05,0.018 -0.089,0.018l-0.098,-0Zm0.024,-0.089l0.053,0c0.035,0 0.052,-0.008 0.051,-0.023c-0.001,-0.017 -0.012,-0.026 -0.034,-0.026c-0.03,0 -0.053,0.017 -0.07,0.049Z" style="fill-rule:nonzero;"/></g></g>
    <g transform="matrix(-0.0289284,-0.999581,0.999581,-0.0289284,-135.179,512.123)">
        <g transform="matrix(45.3333,0,0,45.3333,181.169,321.723)">
        <path d="M0.326,-0l-0.142,-0c-0.041,-0 -0.074,-0.014 -0.099,-0.043c-0.026,-0.029 -0.039,-0.066 -0.039,-0.111c0,-0.061 0.021,-0.114 0.063,-0.159c0.042,-0.045 0.092,-0.067 0.148,-0.067c0.039,-0 0.07,0.01 0.094,0.032c0.024,0.021 0.036,0.049 0.036,0.084c0,0.024 -0.006,0.044 -0.018,0.059c-0.012,0.016 -0.027,0.023 -0.046,0.023c-0.03,0 -0.045,-0.014 -0.045,-0.042l-0,-0.01c0,-0.004 0,-0.007 0,-0.011c0,-0.022 -0.011,-0.034 -0.033,-0.034c-0.022,0 -0.041,0.011 -0.058,0.034c-0.018,0.022 -0.026,0.047 -0.026,0.075c-0,0.023 0.007,0.04 0.021,0.049c0.014,0.01 0.038,0.015 0.072,0.015l0.092,-0c0.042,-0 0.062,0.014 0.062,0.043c0,0.02 -0.007,0.035 -0.022,0.046c-0.015,0.011 -0.035,0.017 -0.06,0.017Z" style="fill-rule:nonzero;"/></g></g>
    <g transform="matrix(0.0822777,-0.996609,0.996609,0.0822777,-137.717,459.296)">
        <g transform="matrix(45.3333,0,0,45.3333,180.53,304.425)">
        <path d="M0.29,-0.374l0.015,0c0.042,0 0.062,0.015 0.062,0.044c0,0.02 -0.007,0.035 -0.022,0.046c-0.014,0.011 -0.035,0.017 -0.06,0.017l-0.036,-0l-0.065,0.161l0.054,-0c0.042,-0 0.062,0.014 0.062,0.043c0,0.02 -0.007,0.035 -0.021,0.046c-0.015,0.011 -0.035,0.017 -0.061,0.017l-0.088,-0c-0.024,-0 -0.044,-0.006 -0.058,-0.017c-0.015,-0.011 -0.022,-0.027 -0.022,-0.046c-0,-0.013 0.003,-0.026 0.009,-0.041l0.009,-0.021l0.057,-0.142l-0.007,-0c-0.036,-0 -0.055,-0.014 -0.055,-0.043c0,-0.02 0.008,-0.035 0.022,-0.047c0.015,-0.011 0.035,-0.017 0.061,-0.017l0.022,0l0.026,-0.064l0.006,-0.013c0.015,-0.036 0.039,-0.054 0.072,-0.054c0.013,0 0.025,0.005 0.034,0.014c0.01,0.008 0.015,0.019 0.015,0.032c-0,0.012 -0.004,0.028 -0.013,0.047l-0.018,0.038Z" style="fill-rule:nonzero;"/></g></g>
    <g transform="matrix(0.171395,-0.985202,0.985202,0.171395,-136.216,419.751)">
        <g transform="matrix(45.3333,0,0,45.3333,181.432,290.855)">
        <path d="M0.208,-0.24l-0.009,0.022c-0.014,0.032 -0.034,0.049 -0.061,0.049c-0.013,-0 -0.025,-0.005 -0.036,-0.014c-0.01,-0.01 -0.016,-0.02 -0.016,-0.032c0,-0.012 0.005,-0.027 0.015,-0.046l0.065,-0.132c0.015,-0.031 0.035,-0.047 0.059,-0.047c0.013,0 0.024,0.004 0.033,0.013c0.009,0.008 0.013,0.018 0.013,0.029c0,0.003 -0,0.009 -0.002,0.019c-0.002,0.007 -0.002,0.014 -0.002,0.019c-0,0.021 0.007,0.042 0.023,0.063l0.027,0.039c0.029,0.039 0.043,0.077 0.043,0.114c-0,0.041 -0.015,0.075 -0.046,0.103c-0.031,0.027 -0.069,0.041 -0.114,0.041l-0.102,-0c-0.042,-0 -0.062,-0.014 -0.062,-0.043c-0,-0.02 0.007,-0.035 0.022,-0.047c0.014,-0.011 0.034,-0.016 0.06,-0.016l0.057,-0c0.045,-0 0.068,-0.017 0.068,-0.05c-0,-0.012 -0.005,-0.026 -0.013,-0.042l-0.022,-0.042Z" style="fill-rule:nonzero;"/></g></g></g>
<path id="LearningAll" d="M929.203,405.946l3.521,32.303l1.241,37.167l-1.882,40.613l-4.072,29.928l-7.587,37.829l-9.999,34.579l-10.227,28.294l-9.713,21.328l-12.588,25.173l-12.077,21.328l-22.226,32.359l-129.313,-98.434l12.73,-18.503l10.672,-18.387l6.88,-13.997l6.411,-14.389l6.701,-17.591l4.305,-13.818l3.74,-14.339l2.522,-13.657l2.58,-16.148l2.117,-27.928l-0.826,-25.478l-2.284,-21.519l-2.473,-14.318l-1.286,-8.199l-2.046,-9.494l-4.811,-18.095l-7.611,-20.865l-11.73,-26.697l-27.284,-43.696l122.057,-103.09l34.184,47.941l16.579,30.018l15.934,35.538l10.999,30.393l9.465,33.878l7.397,39.973Z" style="fill:#9592a8;fill-opacity:0;"/>

<g id="LearningTxt" transform="matrix(-2.46233,-0.66294,0.66294,-2.46233,1069.25,1441.52)">
    <g transform="matrix(-0.646016,-0.763324,0.763324,-0.646016,56.6428,855.901)">
        <g transform="matrix(45.3333,0,0,45.3333,226.779,414.817)">
        <path d="M0.596,-0.343l-0.146,0.36l0.338,-0c0.045,-0 0.068,0.015 0.068,0.046c-0,0.023 -0.008,0.04 -0.024,0.052c-0.016,0.012 -0.038,0.018 -0.066,0.018l-0.364,0l-0.006,0.014c-0.022,0.051 -0.04,0.086 -0.053,0.107c-0.013,0.02 -0.03,0.04 -0.051,0.059c-0.054,0.05 -0.117,0.075 -0.188,0.075c-0.057,0 -0.104,-0.017 -0.141,-0.051c-0.038,-0.034 -0.056,-0.078 -0.056,-0.13c-0,-0.033 0.008,-0.064 0.024,-0.093c0.016,-0.028 0.037,-0.051 0.065,-0.067c0.035,-0.02 0.083,-0.03 0.144,-0.03l0.172,-0l0.146,-0.36l-0.071,-0c-0.037,-0 -0.055,-0.016 -0.055,-0.049c0,-0.021 0.008,-0.037 0.024,-0.05c0.016,-0.012 0.038,-0.018 0.066,-0.018l0.084,0l0.022,-0.055c0.043,-0.106 0.108,-0.158 0.196,-0.158c0.044,-0 0.081,0.014 0.111,0.042c0.03,0.028 0.044,0.063 0.044,0.106c0,0.054 -0.021,0.098 -0.064,0.131c-0.043,0.034 -0.099,0.051 -0.168,0.051l-0.051,-0Zm0.048,-0.117l0.022,0c0.024,0 0.045,-0.006 0.063,-0.018c0.017,-0.012 0.026,-0.027 0.026,-0.045c-0,-0.026 -0.012,-0.039 -0.037,-0.039c-0.022,-0 -0.042,0.023 -0.061,0.068l-0.013,0.034Zm-0.379,0.593l-0.129,0c-0.064,0 -0.095,0.023 -0.095,0.068c-0,0.019 0.007,0.034 0.021,0.047c0.014,0.012 0.031,0.019 0.052,0.019c0.029,-0 0.057,-0.012 0.084,-0.036c0.027,-0.024 0.049,-0.057 0.067,-0.098Z" style="fill-rule:nonzero;"/></g></g>
    <g transform="matrix(-0.495057,-0.86886,0.86886,-0.495057,-30.8184,758.929)">
        <g transform="matrix(45.3333,0,0,45.3333,205.118,388.419)">
        <path d="M0.163,-0.143c0,0.024 0.018,0.037 0.055,0.037l0.145,-0c0.041,-0 0.062,0.014 0.062,0.043c-0,0.02 -0.007,0.035 -0.022,0.046c-0.014,0.011 -0.035,0.017 -0.061,0.017l-0.138,-0c-0.051,-0 -0.09,-0.013 -0.117,-0.038c-0.027,-0.025 -0.041,-0.063 -0.041,-0.111c0,-0.063 0.022,-0.117 0.064,-0.163c0.043,-0.046 0.093,-0.068 0.152,-0.068c0.042,-0 0.077,0.011 0.103,0.033c0.025,0.022 0.038,0.052 0.038,0.088c0,0.044 -0.018,0.077 -0.053,0.098c-0.02,0.012 -0.05,0.018 -0.089,0.018l-0.098,-0Zm0.024,-0.089l0.053,0c0.035,0 0.052,-0.008 0.051,-0.023c-0.001,-0.017 -0.012,-0.026 -0.034,-0.026c-0.03,0 -0.053,0.017 -0.07,0.049Z" style="fill-rule:nonzero;"/></g></g>
    <g transform="matrix(-0.373493,-0.927633,0.927633,-0.373493,-76.8473,693.829)">
        <g transform="matrix(45.3333,0,0,45.3333,195.876,372.865)">
        <path d="M0.379,-0.106l0.054,-0c0.041,-0 0.062,0.014 0.062,0.043c-0,0.019 -0.008,0.035 -0.022,0.046c-0.015,0.011 -0.035,0.017 -0.061,0.017l-0.062,-0c-0.028,-0 -0.047,-0.011 -0.058,-0.033c-0.024,0.022 -0.048,0.033 -0.07,0.033l-0.056,-0c-0.036,-0 -0.065,-0.013 -0.087,-0.038c-0.022,-0.026 -0.033,-0.059 -0.033,-0.101c0,-0.062 0.022,-0.118 0.065,-0.167c0.043,-0.05 0.092,-0.074 0.146,-0.074c0.042,-0 0.072,0.014 0.092,0.043c0.016,-0.024 0.037,-0.037 0.064,-0.037c0.014,0 0.026,0.005 0.035,0.014c0.01,0.009 0.015,0.02 0.015,0.034c-0,0.009 -0.003,0.02 -0.008,0.033l-0.005,0.013l-0.071,0.174Zm-0.177,0.002l0.012,-0c0.027,-0 0.045,-0.011 0.054,-0.033l0.034,-0.084c0.004,-0.011 0.007,-0.021 0.007,-0.028c-0,-0.009 -0.005,-0.016 -0.013,-0.023c-0.009,-0.006 -0.019,-0.01 -0.031,-0.01c-0.024,0 -0.047,0.014 -0.07,0.042c-0.022,0.027 -0.033,0.056 -0.033,0.086c-0,0.033 0.013,0.05 0.04,0.05Z" style="fill-rule:nonzero;"/></g></g>
    <g transform="matrix(-0.244118,-0.969745,0.969745,-0.244118,-108.835,621.574)">
        <g transform="matrix(45.3333,0,0,45.3333,187.83,353.203)">
        <path d="M0.168,-0.267l-0.017,0.041c-0.015,0.037 -0.034,0.055 -0.058,0.055c-0.015,0 -0.027,-0.004 -0.037,-0.013c-0.01,-0.009 -0.014,-0.02 -0.014,-0.033c-0,-0.007 0.003,-0.02 0.01,-0.038l0.055,-0.136c0.014,-0.033 0.033,-0.049 0.057,-0.049c0.024,-0 0.039,0.011 0.044,0.034l0.004,0.015c0.002,0.008 0.005,0.013 0.009,0.015c0.004,0.001 0.014,0.002 0.029,0.002l0.114,0c0.043,0 0.064,0.015 0.064,0.045c0,0.042 -0.027,0.062 -0.081,0.062l-0.005,0.005c-0.052,0.05 -0.078,0.088 -0.078,0.115c0,0.027 0.015,0.041 0.045,0.041l0.062,-0c0.041,-0 0.062,0.014 0.062,0.043c-0,0.02 -0.008,0.035 -0.022,0.046c-0.015,0.011 -0.035,0.017 -0.061,0.017l-0.096,-0c-0.032,-0 -0.059,-0.011 -0.079,-0.034c-0.021,-0.022 -0.031,-0.051 -0.031,-0.087c-0,-0.023 0.005,-0.045 0.016,-0.066c0.011,-0.022 0.031,-0.048 0.059,-0.08l-0.051,0Z" style="fill-rule:nonzero;"/></g></g>
    <g transform="matrix(-0.105093,-0.994462,0.994462,-0.105093,-131.277,552.522)">
        <g transform="matrix(45.3333,0,0,45.3333,182.966,335.328)">
        <path d="M0.408,-0.106l0.058,-0c0.042,-0 0.062,0.014 0.062,0.043c0,0.02 -0.007,0.035 -0.022,0.046c-0.014,0.011 -0.034,0.017 -0.06,0.017l-0.102,-0c-0.02,-0 -0.037,-0.006 -0.05,-0.018c-0.014,-0.012 -0.021,-0.027 -0.021,-0.045c0,-0.012 0.005,-0.028 0.014,-0.05l0.043,-0.107c0.005,-0.011 0.007,-0.02 0.007,-0.027c0.001,-0.007 -0.002,-0.014 -0.009,-0.02c-0.007,-0.005 -0.015,-0.008 -0.026,-0.008c-0.033,0 -0.06,0.025 -0.081,0.076l-0.057,0.141c-0.018,0.043 -0.043,0.065 -0.078,0.065c-0.014,-0 -0.025,-0.004 -0.035,-0.013c-0.01,-0.008 -0.015,-0.019 -0.015,-0.031c0,-0.009 0.003,-0.02 0.008,-0.033l0.005,-0.013l0.099,-0.243c0.013,-0.032 0.034,-0.048 0.065,-0.048c0.025,0 0.043,0.012 0.054,0.034c0.034,-0.027 0.068,-0.04 0.099,-0.04c0.031,-0 0.056,0.008 0.076,0.026c0.02,0.018 0.03,0.04 0.03,0.067c-0,0.015 -0.004,0.031 -0.011,0.049l-0.053,0.132Z" style="fill-rule:nonzero;"/></g></g>
    <g transform="matrix(0.0174397,-0.999848,0.999848,0.0174397,-135.12,487.914)">
        <g transform="matrix(45.3333,0,0,45.3333,180.689,312.706)">
        <path d="M0.182,-0.106l0.055,-0c0.041,-0 0.061,0.014 0.061,0.043c0,0.02 -0.007,0.035 -0.021,0.046c-0.015,0.011 -0.035,0.017 -0.061,0.017l-0.078,-0c-0.028,-0 -0.051,-0.006 -0.067,-0.018c-0.017,-0.011 -0.025,-0.027 -0.025,-0.047c-0,-0.011 0.003,-0.025 0.01,-0.041l0.081,-0.199l0.005,-0.013c0.015,-0.037 0.039,-0.056 0.072,-0.056c0.014,0 0.026,0.005 0.036,0.014c0.01,0.009 0.015,0.02 0.015,0.033c-0,0.01 -0.005,0.026 -0.014,0.048l-0.069,0.173Zm0.064,-0.423c0.019,-0 0.035,0.006 0.048,0.019c0.013,0.014 0.02,0.03 0.02,0.049c-0,0.018 -0.007,0.034 -0.02,0.048c-0.013,0.013 -0.029,0.019 -0.048,0.019c-0.019,0 -0.035,-0.006 -0.048,-0.019c-0.013,-0.014 -0.02,-0.03 -0.02,-0.048c0,-0.019 0.007,-0.035 0.02,-0.049c0.013,-0.013 0.029,-0.019 0.048,-0.019Z" style="fill-rule:nonzero;"/></g></g>
    <g transform="matrix(0.132509,-0.991182,0.991182,0.132509,-141.207,439.368)">
        <g transform="matrix(45.3333,0,0,45.3333,180.404,300.355)">
        <path d="M0.408,-0.106l0.058,-0c0.042,-0 0.062,0.014 0.062,0.043c0,0.02 -0.007,0.035 -0.022,0.046c-0.014,0.011 -0.034,0.017 -0.06,0.017l-0.102,-0c-0.02,-0 -0.037,-0.006 -0.05,-0.018c-0.014,-0.012 -0.021,-0.027 -0.021,-0.045c0,-0.012 0.005,-0.028 0.014,-0.05l0.043,-0.107c0.005,-0.011 0.007,-0.02 0.007,-0.027c0.001,-0.007 -0.002,-0.014 -0.009,-0.02c-0.007,-0.005 -0.015,-0.008 -0.026,-0.008c-0.033,0 -0.06,0.025 -0.081,0.076l-0.057,0.141c-0.018,0.043 -0.043,0.065 -0.078,0.065c-0.014,-0 -0.025,-0.004 -0.035,-0.013c-0.01,-0.008 -0.015,-0.019 -0.015,-0.031c0,-0.009 0.003,-0.02 0.008,-0.033l0.005,-0.013l0.099,-0.243c0.013,-0.032 0.034,-0.048 0.065,-0.048c0.025,0 0.043,0.012 0.054,0.034c0.034,-0.027 0.068,-0.04 0.099,-0.04c0.031,-0 0.056,0.008 0.076,0.026c0.02,0.018 0.03,0.04 0.03,0.067c-0,0.015 -0.004,0.031 -0.011,0.049l-0.053,0.132Z" style="fill-rule:nonzero;"/></g></g>
    <g transform="matrix(0.252423,-0.967617,0.967617,0.252423,-131.656,385.32)">
        <g transform="matrix(45.3333,0,0,45.3333,183.539,277.863)">
        <path d="M0.333,0.014l0.059,-0c0.041,-0 0.062,0.014 0.062,0.043c0,0.019 -0.007,0.035 -0.022,0.046c-0.015,0.012 -0.035,0.017 -0.06,0.017l-0.081,0l-0.021,0.05c-0.05,0.122 -0.123,0.184 -0.218,0.184c-0.05,-0 -0.092,-0.016 -0.125,-0.047c-0.034,-0.031 -0.051,-0.07 -0.051,-0.116c0,-0.03 0.009,-0.059 0.025,-0.085c0.016,-0.027 0.038,-0.048 0.066,-0.064c0.034,-0.019 0.081,-0.028 0.139,-0.028l0.105,-0l0.015,-0.038c-0.02,0.012 -0.04,0.018 -0.058,0.018c-0.035,0 -0.063,-0.012 -0.085,-0.036c-0.021,-0.024 -0.032,-0.055 -0.032,-0.094c-0,-0.063 0.022,-0.119 0.066,-0.169c0.044,-0.05 0.093,-0.075 0.148,-0.075c0.04,-0 0.07,0.013 0.089,0.039c0.016,-0.026 0.037,-0.039 0.065,-0.039c0.014,-0 0.026,0.004 0.035,0.013c0.01,0.009 0.015,0.02 0.015,0.033c-0,0.01 -0.004,0.025 -0.013,0.046l-0.123,0.302Zm-0.063,-0.147l0.04,-0.096c0.003,-0.009 0.004,-0.015 0.004,-0.021c0,-0.009 -0.004,-0.017 -0.012,-0.024c-0.009,-0.006 -0.02,-0.01 -0.033,-0.01c-0.023,0 -0.046,0.014 -0.067,0.041c-0.021,0.026 -0.032,0.055 -0.032,0.085c-0,0.034 0.016,0.051 0.048,0.051c0.027,0 0.045,-0.009 0.052,-0.026Zm-0.103,0.253l-0.084,0c-0.029,0 -0.052,0.006 -0.068,0.019c-0.016,0.012 -0.024,0.029 -0.024,0.052c-0,0.015 0.005,0.028 0.016,0.039c0.011,0.011 0.025,0.016 0.041,0.016c0.024,0 0.044,-0.009 0.062,-0.028c0.017,-0.018 0.037,-0.051 0.057,-0.098Z" style="fill-rule:nonzero;"/></g></g></g>

<path id="ContactAll" d="M676.225,883.589l-31.955,13.641l-37.55,13.22l-41.485,11.155l-30.947,5.568l-42.115,4.968l-36.165,0.914l-31.487,-0.133l-25.063,-2.033l-26.896,-3.687l-15.209,-3.586l56.25,-156.922l16.179,2.095l16.448,1.519l19.794,0.77l15.282,-0.314l15.657,-1.022l14.622,-1.97l17.179,-2.712l29.061,-6.939l25.746,-8.97l21.306,-9.095l13.912,-6.965l8.002,-3.864l9.112,-5.006l17.114,-10.416l19.161,-13.986l23.964,-19.802l110.151,117.028l-32.07,26.302l-27.955,20.595l-31.913,19.859l-38.13,19.788Z" style="fill:#9592a8;fill-opacity:0;"/><g id="ContactTxt" transform="matrix(0.206947,-2.5416,2.5416,0.206947,-379.453,1235.19)"><g transform="matrix(-0.648006,-0.761635,0.761635,-0.648006,57.8726,856.313)"><g transform="matrix(45.3333,0,0,45.3333,226.811,414.783)"><path d="M0.294,-0.333c-0.044,0.078 -0.066,0.15 -0.066,0.217c0,0.047 0.011,0.081 0.032,0.102c0.022,0.02 0.058,0.031 0.109,0.031l0.271,-0c0.045,-0 0.068,0.015 0.068,0.046c-0,0.022 -0.008,0.039 -0.024,0.052c-0.016,0.012 -0.038,0.018 -0.067,0.018l-0.283,0c-0.047,0 -0.085,-0.006 -0.113,-0.019c-0.04,-0.018 -0.071,-0.047 -0.093,-0.084c-0.023,-0.038 -0.034,-0.082 -0.034,-0.13c0,-0.065 0.02,-0.143 0.06,-0.233l-0.04,-0c-0.037,-0 -0.055,-0.016 -0.055,-0.047c0,-0.02 0.008,-0.036 0.023,-0.05c0.015,-0.013 0.033,-0.02 0.054,-0.02l0.084,-0c0.03,-0.049 0.069,-0.096 0.118,-0.141c0.064,-0.057 0.132,-0.086 0.205,-0.086c0.048,0 0.088,0.015 0.12,0.045c0.031,0.029 0.047,0.067 0.047,0.113c-0,0.065 -0.03,0.116 -0.091,0.15c-0.042,0.024 -0.107,0.036 -0.198,0.036l-0.127,-0Zm0.073,-0.117l0.094,-0c0.081,-0 0.122,-0.022 0.122,-0.065c0,-0.014 -0.005,-0.025 -0.016,-0.034c-0.01,-0.008 -0.024,-0.013 -0.04,-0.013c-0.025,0 -0.052,0.011 -0.081,0.031c-0.029,0.02 -0.056,0.047 -0.079,0.081Z" style="fill-rule:nonzero;"/></g></g><g transform="matrix(-0.540502,-0.841343,0.841343,-0.540502,-9.17956,784.866)"><g transform="matrix(45.3333,0,0,45.3333,209.737,394.94)"><path d="M0.272,-0.38c0.047,-0 0.086,0.015 0.116,0.045c0.031,0.029 0.046,0.068 0.046,0.114c0,0.035 -0.008,0.069 -0.024,0.104c-0.016,0.034 -0.036,0.061 -0.062,0.082c-0.017,0.013 -0.034,0.022 -0.052,0.027c-0.018,0.005 -0.044,0.008 -0.076,0.008c-0.053,0 -0.089,-0.006 -0.108,-0.019c-0.043,-0.03 -0.065,-0.074 -0.065,-0.133c-0,-0.062 0.022,-0.115 0.067,-0.16c0.044,-0.046 0.097,-0.068 0.158,-0.068Zm-0.012,0.104c-0.024,-0 -0.046,0.012 -0.066,0.035c-0.02,0.024 -0.029,0.05 -0.029,0.079c-0,0.038 0.021,0.057 0.063,0.057c0.025,-0 0.044,-0.008 0.057,-0.023c0.022,-0.025 0.033,-0.054 0.033,-0.086c0,-0.019 -0.005,-0.034 -0.016,-0.045c-0.01,-0.012 -0.024,-0.017 -0.042,-0.017Z" style="fill-rule:nonzero;"/></g></g><g transform="matrix(-0.41637,-0.909195,0.909195,-0.41637,-62.6142,718.478)"><g transform="matrix(45.3333,0,0,45.3333,199.295,379.336)"><path d="M0.408,-0.106l0.058,-0c0.042,-0 0.062,0.014 0.062,0.043c0,0.02 -0.007,0.035 -0.022,0.046c-0.014,0.011 -0.034,0.017 -0.06,0.017l-0.102,-0c-0.02,-0 -0.037,-0.006 -0.05,-0.018c-0.014,-0.012 -0.021,-0.027 -0.021,-0.045c0,-0.012 0.005,-0.028 0.014,-0.05l0.043,-0.107c0.005,-0.011 0.007,-0.02 0.007,-0.027c0.001,-0.007 -0.002,-0.014 -0.009,-0.02c-0.007,-0.005 -0.015,-0.008 -0.026,-0.008c-0.033,0 -0.06,0.025 -0.081,0.076l-0.057,0.141c-0.018,0.043 -0.043,0.065 -0.078,0.065c-0.014,-0 -0.025,-0.004 -0.035,-0.013c-0.01,-0.008 -0.015,-0.019 -0.015,-0.031c0,-0.009 0.003,-0.02 0.008,-0.033l0.005,-0.013l0.099,-0.243c0.013,-0.032 0.034,-0.048 0.065,-0.048c0.025,0 0.043,0.012 0.054,0.034c0.034,-0.027 0.068,-0.04 0.099,-0.04c0.031,-0 0.056,0.008 0.076,0.026c0.02,0.018 0.03,0.04 0.03,0.067c-0,0.015 -0.004,0.031 -0.011,0.049l-0.053,0.132Z" style="fill-rule:nonzero;"/></g></g><g transform="matrix(-0.291315,-0.956627,0.956627,-0.291315,-97.9265,644.747)"><g transform="matrix(45.3333,0,0,45.3333,189.856,358.646)"><path d="M0.29,-0.374l0.015,0c0.042,0 0.062,0.015 0.062,0.044c0,0.02 -0.007,0.035 -0.022,0.046c-0.014,0.011 -0.035,0.017 -0.06,0.017l-0.036,-0l-0.065,0.161l0.054,-0c0.042,-0 0.062,0.014 0.062,0.043c0,0.02 -0.007,0.035 -0.021,0.046c-0.015,0.011 -0.035,0.017 -0.061,0.017l-0.088,-0c-0.024,-0 -0.044,-0.006 -0.058,-0.017c-0.015,-0.011 -0.022,-0.027 -0.022,-0.046c-0,-0.013 0.003,-0.026 0.009,-0.041l0.009,-0.021l0.057,-0.142l-0.007,-0c-0.036,-0 -0.055,-0.014 -0.055,-0.043c0,-0.02 0.008,-0.035 0.022,-0.047c0.015,-0.011 0.035,-0.017 0.061,-0.017l0.022,0l0.026,-0.064l0.006,-0.013c0.015,-0.036 0.039,-0.054 0.072,-0.054c0.013,0 0.025,0.005 0.034,0.014c0.01,0.008 0.015,0.019 0.015,0.032c-0,0.012 -0.004,0.028 -0.013,0.047l-0.018,0.038Z" style="fill-rule:nonzero;"/></g></g><g transform="matrix(-0.180672,-0.983543,0.983543,-0.180672,-121.044,590.482)"><g transform="matrix(45.3333,0,0,45.3333,185.425,345.658)"><path d="M0.379,-0.106l0.054,-0c0.041,-0 0.062,0.014 0.062,0.043c-0,0.019 -0.008,0.035 -0.022,0.046c-0.015,0.011 -0.035,0.017 -0.061,0.017l-0.062,-0c-0.028,-0 -0.047,-0.011 -0.058,-0.033c-0.024,0.022 -0.048,0.033 -0.07,0.033l-0.056,-0c-0.036,-0 -0.065,-0.013 -0.087,-0.038c-0.022,-0.026 -0.033,-0.059 -0.033,-0.101c0,-0.062 0.022,-0.118 0.065,-0.167c0.043,-0.05 0.092,-0.074 0.146,-0.074c0.042,-0 0.072,0.014 0.092,0.043c0.016,-0.024 0.037,-0.037 0.064,-0.037c0.014,0 0.026,0.005 0.035,0.014c0.01,0.009 0.015,0.02 0.015,0.034c-0,0.009 -0.003,0.02 -0.008,0.033l-0.005,0.013l-0.071,0.174Zm-0.177,0.002l0.012,-0c0.027,-0 0.045,-0.011 0.054,-0.033l0.034,-0.084c0.004,-0.011 0.007,-0.021 0.007,-0.028c-0,-0.009 -0.005,-0.016 -0.013,-0.023c-0.009,-0.006 -0.019,-0.01 -0.031,-0.01c-0.024,0 -0.047,0.014 -0.07,0.042c-0.022,0.027 -0.033,0.056 -0.033,0.086c-0,0.033 0.013,0.05 0.04,0.05Z" style="fill-rule:nonzero;"/></g></g><g transform="matrix(-0.0499045,-0.998754,0.998754,-0.0499045,-133.838,522.298)"><g transform="matrix(45.3333,0,0,45.3333,181.507,324.808)"><path d="M0.326,-0l-0.142,-0c-0.041,-0 -0.074,-0.014 -0.099,-0.043c-0.026,-0.029 -0.039,-0.066 -0.039,-0.111c0,-0.061 0.021,-0.114 0.063,-0.159c0.042,-0.045 0.092,-0.067 0.148,-0.067c0.039,-0 0.07,0.01 0.094,0.032c0.024,0.021 0.036,0.049 0.036,0.084c0,0.024 -0.006,0.044 -0.018,0.059c-0.012,0.016 -0.027,0.023 -0.046,0.023c-0.03,0 -0.045,-0.014 -0.045,-0.042l-0,-0.01c0,-0.004 0,-0.007 0,-0.011c0,-0.022 -0.011,-0.034 -0.033,-0.034c-0.022,0 -0.041,0.011 -0.058,0.034c-0.018,0.022 -0.026,0.047 -0.026,0.075c-0,0.023 0.007,0.04 0.021,0.049c0.014,0.01 0.038,0.015 0.072,0.015l0.092,-0c0.042,-0 0.062,0.014 0.062,0.043c0,0.02 -0.007,0.035 -0.022,0.046c-0.015,0.011 -0.035,0.017 -0.06,0.017Z" style="fill-rule:nonzero;"/></g></g><g transform="matrix(0.0609717,-0.998139,0.998139,0.0609717,-137.491,468.983)"><g transform="matrix(45.3333,0,0,45.3333,180.507,307.565)"><path d="M0.29,-0.374l0.015,0c0.042,0 0.062,0.015 0.062,0.044c0,0.02 -0.007,0.035 -0.022,0.046c-0.014,0.011 -0.035,0.017 -0.06,0.017l-0.036,-0l-0.065,0.161l0.054,-0c0.042,-0 0.062,0.014 0.062,0.043c0,0.02 -0.007,0.035 -0.021,0.046c-0.015,0.011 -0.035,0.017 -0.061,0.017l-0.088,-0c-0.024,-0 -0.044,-0.006 -0.058,-0.017c-0.015,-0.011 -0.022,-0.027 -0.022,-0.046c-0,-0.013 0.003,-0.026 0.009,-0.041l0.009,-0.021l0.057,-0.142l-0.007,-0c-0.036,-0 -0.055,-0.014 -0.055,-0.043c0,-0.02 0.008,-0.035 0.022,-0.047c0.015,-0.011 0.035,-0.017 0.061,-0.017l0.022,0l0.026,-0.064l0.006,-0.013c0.015,-0.036 0.039,-0.054 0.072,-0.054c0.013,0 0.025,0.005 0.034,0.014c0.01,0.008 0.015,0.019 0.015,0.032c-0,0.012 -0.004,0.028 -0.013,0.047l-0.018,0.038Z" style="fill-rule:nonzero;"/></g></g></g><circle id="InnerCircle" cx="468.75" cy="468.75" r="300.502" style="fill:#860303;"/><path id="NavTop" d="M655.742,323.65l-88.869,219.094l-4.18,10.339c-6.305,14.225 -16.644,21.337 -31.016,21.337c-11.438,0 -19.578,-3.153 -24.417,-9.459c-4.839,-6.306 -7.919,-17.818 -9.239,-34.536l-10.119,-132.644l-45.974,113.507c-18.478,45.461 -32.52,76.367 -42.125,92.719c-9.606,16.351 -22.108,30.539 -37.506,42.564c-22.29,17.305 -47.881,25.957 -76.771,25.957c-30.796,0 -55.763,-9.678 -74.901,-29.036c-19.137,-19.358 -28.706,-44.508 -28.706,-75.451c-0,-41.355 15.105,-77.504 45.314,-108.447c16.132,-16.572 36.406,-29.99 60.823,-40.255c24.417,-10.266 48.284,-15.399 71.602,-15.399c12.318,0 22.07,2.53 29.256,7.589c7.186,5.06 10.779,11.916 10.779,20.568c-0,8.799 -2.86,15.398 -8.579,19.798c-5.719,4.399 -15.178,7.185 -28.377,8.359c-29.183,2.786 -52.72,9.532 -70.611,20.237c-14.812,8.946 -26.58,20.604 -35.306,34.976c-8.726,14.372 -13.089,29.403 -13.089,45.095c0,16.718 4.29,29.879 12.869,39.485c8.579,9.606 20.421,14.408 35.526,14.408c17.451,0 32.812,-7.625 46.084,-22.877c13.272,-15.252 27.68,-42.015 43.225,-80.29l87.11,-214.475c7.772,-19.211 19.577,-28.816 35.415,-28.816c18.332,-0 28.304,10.925 29.917,32.776l11.439,146.502l59.612,-146.502l3.52,-8.799c5.719,-13.785 15.765,-20.678 30.136,-20.678l9.019,-0.22l45.095,0c20.384,0 30.576,6.893 30.576,20.678c0,10.119 -3.593,17.964 -10.778,23.537c-7.186,5.573 -17.158,8.359 -29.917,8.359l-26.837,-0Z" style="fill-rule:nonzero;"/></svg>